<svg version="1.0" xmlns="http://www.w3.org/2000/svg"
 width="2636.000000pt" height="1798.000000pt" viewBox="0 0 2636.000000 1798.000000"
 preserveAspectRatio="xMidYMid meet">

<g transform="translate(0.000000,1798.000000) scale(0.100000,-0.100000)"
fill="#000000" stroke="none">
<path d="M17910 17574 c-36 -13 -71 -24 -78 -24 -28 0 -142 -85 -225 -168 -90
-89 -147 -180 -147 -235 0 -14 -4 -28 -9 -31 -9 -6 -12 -23 -29 -161 -16 -132
-35 -500 -28 -541 17 -98 36 -203 45 -242 4 -23 31 -86 58 -140 27 -53 55
-117 62 -142 7 -25 17 -58 22 -74 13 -44 10 -186 -5 -229 -9 -27 -52 -79 -137
-164 -68 -69 -138 -135 -155 -147 -17 -11 -59 -40 -92 -63 -34 -24 -65 -43
-70 -43 -5 0 -15 -7 -22 -15 -7 -8 -21 -15 -31 -15 -10 0 -34 -9 -53 -19 -29
-16 -61 -21 -178 -25 -191 -6 -353 -28 -405 -54 -10 -6 -48 -19 -85 -31 -93
-30 -285 -129 -342 -176 -152 -126 -228 -250 -287 -465 -41 -147 -51 -258 -45
-505 4 -181 3 -237 -8 -265 -8 -19 -24 -60 -36 -90 -12 -30 -33 -86 -47 -125
-13 -38 -36 -97 -49 -130 -39 -93 -35 -83 -100 -270 -56 -162 -78 -245 -93
-361 -5 -34 -11 -66 -15 -73 -4 -6 -8 -45 -8 -86 0 -71 -2 -77 -38 -122 -37
-47 -104 -155 -151 -243 -13 -25 -30 -51 -36 -58 -7 -7 -20 -30 -29 -50 -10
-20 -23 -44 -30 -52 -28 -34 -224 -423 -224 -445 0 -3 -11 -28 -25 -57 -14
-28 -25 -57 -25 -63 0 -6 -11 -35 -25 -64 -14 -29 -33 -73 -41 -99 -17 -52
-57 -154 -85 -219 -11 -24 -19 -51 -19 -60 0 -10 -9 -42 -21 -72 -11 -30 -25
-77 -31 -105 -54 -260 -71 -332 -109 -448 -16 -48 -40 -111 -53 -140 -13 -29
-43 -97 -67 -151 -47 -104 -118 -196 -185 -238 -19 -11 -45 -36 -57 -53 -72
-106 -356 -390 -462 -463 -34 -24 -105 -121 -105 -145 0 -24 28 -42 65 -42 35
0 155 74 225 139 44 40 111 85 127 85 40 0 -9 -99 -170 -343 -117 -177 -133
-240 -67 -267 54 -22 74 -9 171 112 14 18 34 48 43 66 9 17 21 32 26 32 5 0
12 9 15 20 8 25 53 80 66 80 19 0 6 -38 -71 -204 -83 -178 -108 -262 -90 -297
10 -17 21 -22 82 -34 28 -5 43 14 118 160 39 77 75 145 80 150 9 12 41 68 77
137 29 55 40 65 56 49 7 -7 7 -21 -1 -48 -6 -21 -18 -67 -28 -103 -9 -36 -23
-85 -31 -110 -22 -67 -43 -170 -43 -212 0 -45 17 -63 67 -73 36 -6 40 -4 73
34 37 43 59 103 112 311 42 162 43 167 76 245 62 147 122 245 150 245 5 0 24
-10 43 -23 29 -20 39 -39 80 -157 72 -210 115 -280 175 -280 28 0 82 30 89 50
4 8 -5 51 -19 95 -14 44 -29 98 -35 120 -5 22 -14 58 -20 80 -6 22 -17 67 -25
100 -8 33 -22 87 -31 120 -9 33 -21 78 -26 100 -4 22 -13 60 -19 85 -5 25 -14
70 -20 100 -5 30 -12 71 -15 90 -5 29 2 54 44 142 28 58 51 109 51 112 0 6 78
180 120 266 14 30 38 74 53 97 15 24 27 45 27 47 0 3 20 34 45 70 25 37 45 69
45 72 0 3 21 37 48 76 67 100 130 201 168 269 6 11 34 44 63 73 28 30 51 57
51 60 0 3 30 46 68 95 37 50 76 103 87 118 24 34 99 179 110 213 4 14 21 53
36 88 16 34 29 66 29 70 0 4 7 20 15 36 30 58 49 123 57 201 20 198 15 187
123 313 39 45 68 84 91 123 5 10 18 28 27 41 36 50 67 99 67 107 0 5 7 14 15
21 13 11 64 112 138 273 15 31 27 66 27 77 0 10 5 22 10 25 6 3 10 21 10 40 0
19 5 37 10 40 6 3 10 19 10 35 0 16 5 32 10 35 6 3 10 21 10 39 0 17 4 36 9
41 5 6 11 21 13 35 6 46 32 29 40 -25 4 -27 12 -79 18 -115 26 -176 43 -304
50 -390 19 -219 29 -286 60 -395 6 -22 15 -53 19 -70 4 -16 13 -46 19 -65 42
-130 51 -166 62 -257 16 -136 -3 -713 -29 -883 -6 -36 -14 -92 -18 -125 -5
-33 -12 -65 -16 -71 -4 -7 -9 -29 -13 -50 -3 -22 -10 -43 -15 -48 -5 -6 -9
-18 -9 -28 0 -10 -4 -26 -9 -36 -5 -9 -14 -35 -19 -57 -13 -52 -81 -274 -91
-300 -12 -28 -96 -291 -111 -345 -40 -143 -57 -217 -90 -380 -6 -30 -15 -73
-20 -95 -41 -192 -54 -297 -45 -392 12 -124 10 -269 -3 -403 -9 -84 -9 -180
-2 -355 10 -227 16 -314 40 -515 23 -196 33 -527 22 -723 -14 -232 -29 -342
-67 -482 -70 -251 -75 -285 -85 -505 -12 -250 -19 -289 -70 -395 -50 -106 -96
-212 -116 -275 -8 -25 -19 -54 -24 -65 -15 -36 -57 -158 -78 -230 -68 -228
-75 -280 -92 -645 -6 -113 -15 -250 -20 -305 -16 -155 -28 -311 -39 -545 -6
-118 -13 -221 -16 -228 -5 -14 -22 -328 -30 -557 -16 -496 -26 -992 -20 -1023
12 -64 54 -152 94 -195 46 -50 102 -69 195 -65 44 3 95 9 111 16 17 6 50 16
75 23 63 16 103 35 122 56 25 29 68 112 68 131 0 10 4 22 10 28 5 5 13 32 16
59 4 28 20 77 36 109 15 33 28 65 28 72 0 8 8 28 19 47 10 18 22 48 26 65 3
18 11 34 16 37 5 4 9 56 9 116 0 89 -4 117 -19 147 -19 37 -75 96 -98 103 -7
2 -40 31 -73 63 -55 53 -61 63 -56 90 5 33 30 144 47 211 6 22 13 52 16 68 3
15 9 30 14 33 5 3 9 13 9 24 0 10 20 59 45 109 25 50 45 95 45 100 0 14 75
172 186 396 122 243 153 297 193 339 49 51 105 170 133 281 21 83 30 219 36
535 4 179 10 330 14 335 3 6 7 35 9 65 1 30 7 66 12 80 6 14 14 50 18 80 36
234 37 238 82 305 42 63 137 249 161 312 8 21 24 63 35 93 25 64 58 163 90
270 12 41 29 95 37 120 8 25 14 55 14 67 0 12 4 24 9 27 5 3 11 23 14 43 11
72 18 108 27 128 5 11 11 38 14 60 5 41 30 202 45 290 9 53 37 148 52 177 5
10 9 29 9 43 0 14 9 44 21 67 11 22 29 67 39 99 11 33 26 74 33 92 76 173 157
396 189 522 5 22 14 50 19 63 5 13 9 40 9 60 0 21 5 43 11 49 5 5 12 31 14 56
2 25 8 55 14 66 6 11 11 56 11 101 0 45 5 90 10 100 6 11 10 118 11 257 0 219
4 260 29 328 4 11 18 52 30 92 13 39 26 77 30 84 17 27 46 -21 93 -156 22 -64
29 -141 46 -560 11 -243 19 -313 46 -410 9 -33 20 -74 25 -91 4 -18 15 -46 24
-64 9 -18 16 -40 16 -50 0 -9 4 -20 9 -26 4 -5 20 -47 36 -94 15 -47 31 -93
36 -102 5 -10 9 -26 9 -36 0 -10 4 -22 8 -28 5 -5 15 -29 22 -54 8 -25 17 -49
20 -55 4 -5 17 -39 29 -75 13 -36 28 -78 35 -95 16 -39 31 -81 63 -180 14 -44
29 -89 34 -100 4 -11 10 -38 13 -60 4 -38 24 -140 46 -235 6 -25 15 -70 21
-100 27 -149 49 -239 77 -325 5 -16 15 -50 22 -75 7 -25 16 -54 20 -65 4 -11
20 -58 35 -105 15 -47 90 -211 166 -365 103 -207 139 -290 139 -317 0 -20 5
-40 10 -43 6 -3 10 -23 10 -43 0 -20 5 -53 11 -72 15 -46 31 -231 31 -345 -1
-49 -2 -187 -3 -305 -2 -213 4 -306 22 -325 5 -5 9 -26 9 -46 0 -21 5 -41 10
-44 6 -3 10 -17 10 -30 0 -22 37 -123 63 -170 6 -11 26 -49 45 -85 19 -36 46
-83 61 -105 15 -22 46 -79 70 -128 24 -48 47 -89 51 -92 11 -7 130 -247 130
-263 0 -7 4 -20 9 -30 5 -9 12 -24 15 -32 4 -8 15 -28 25 -45 11 -16 20 -40
20 -52 1 -12 6 -25 11 -28 6 -3 10 -15 10 -26 0 -10 4 -27 9 -37 16 -29 38
-84 61 -152 12 -36 26 -69 31 -75 5 -5 9 -17 9 -27 0 -10 4 -26 9 -36 17 -35
33 -88 40 -132 4 -25 10 -51 14 -58 9 -13 -21 -45 -83 -90 -55 -41 -150 -134
-166 -164 -19 -37 -17 -100 7 -183 11 -38 22 -87 26 -108 3 -21 10 -40 14 -43
5 -3 9 -17 9 -31 0 -27 16 -84 31 -115 5 -10 9 -27 9 -37 0 -11 5 -23 10 -26
6 -3 10 -15 10 -25 0 -21 51 -133 63 -138 4 -2 7 -10 7 -17 0 -24 90 -95 121
-95 15 0 31 -4 34 -10 3 -5 17 -10 30 -10 13 0 27 -4 30 -10 9 -14 170 -13
214 2 73 23 99 39 140 83 35 38 41 51 41 89 0 25 5 48 11 52 7 4 8 20 4 43
-13 62 -17 473 -5 485 13 13 13 179 0 192 -5 5 -11 141 -14 329 -4 338 -18
582 -36 614 -6 11 -10 88 -10 178 0 88 -4 163 -9 168 -6 6 -12 60 -15 120 -3
61 -10 169 -15 240 -6 72 -14 180 -18 240 -5 61 -12 116 -16 122 -5 7 -10 47
-13 89 -2 41 -8 84 -14 94 -5 10 -10 73 -10 139 0 69 -4 122 -10 126 -5 3 -10
33 -10 65 0 32 -4 62 -10 65 -5 3 -10 21 -10 40 0 19 -4 37 -10 40 -5 3 -10
14 -10 23 0 9 -11 39 -25 66 -14 27 -25 55 -25 63 0 7 -4 13 -10 13 -5 0 -10
7 -10 15 0 8 -12 36 -27 62 -14 26 -35 63 -45 81 -10 18 -18 39 -18 47 0 15
-4 26 -28 72 -7 13 -12 27 -12 33 0 6 -11 33 -25 62 -14 28 -25 59 -25 68 0 9
-4 20 -9 26 -16 16 -23 104 -27 344 -3 131 -9 239 -14 244 -6 6 -10 23 -10 39
0 15 -5 38 -12 50 -6 12 -12 35 -14 50 -1 16 -7 34 -13 40 -6 6 -11 23 -11 38
0 15 -4 31 -10 34 -5 3 -10 21 -10 40 0 19 -4 37 -10 40 -5 3 -10 23 -10 44 0
20 -5 42 -10 47 -15 15 -6 833 10 944 9 61 12 292 13 815 0 698 -4 818 -24
839 -5 6 -9 27 -9 48 0 22 -7 53 -16 69 -8 17 -13 37 -10 46 3 8 1 24 -6 36
-7 12 -15 42 -20 67 -4 25 -10 61 -13 80 -4 19 -10 44 -15 55 -5 11 -11 34
-14 50 -8 52 -23 109 -34 135 -5 14 -15 44 -21 68 -29 110 -34 128 -41 147 -5
11 -11 34 -13 50 -3 17 -14 55 -26 85 -11 30 -21 65 -21 77 0 13 -4 31 -9 41
-5 9 -14 37 -21 62 -7 25 -16 53 -21 62 -5 10 -9 27 -9 39 0 11 -5 29 -10 40
-16 29 -45 169 -61 289 -31 235 -52 900 -30 945 6 11 12 43 15 70 6 63 15 114
25 140 17 41 34 101 37 123 1 13 7 28 12 35 5 7 12 26 16 42 4 17 12 50 17 75
6 25 13 68 15 95 3 28 9 59 14 70 5 11 11 45 14 75 6 72 24 194 36 248 6 23
10 85 10 137 0 52 4 97 10 100 6 3 10 22 10 41 0 22 5 34 13 34 13 0 28 -44
59 -165 33 -134 52 -194 78 -248 11 -22 20 -45 20 -51 0 -12 97 -205 113 -225
6 -7 16 -21 22 -31 32 -57 153 -226 200 -280 37 -43 57 -75 60 -99 3 -20 8
-47 11 -61 3 -14 9 -47 14 -75 61 -342 126 -493 336 -784 13 -19 46 -58 72
-86 49 -55 104 -126 131 -173 9 -15 30 -51 46 -80 17 -30 57 -98 90 -154 33
-55 65 -108 70 -118 6 -10 17 -26 25 -35 8 -9 19 -25 25 -35 5 -9 17 -28 26
-41 43 -65 161 -272 187 -329 77 -168 73 -152 69 -310 -3 -80 -9 -170 -15
-200 -17 -88 -28 -136 -35 -147 -3 -5 -11 -36 -17 -69 -13 -72 -26 -133 -40
-199 -6 -27 -15 -72 -20 -100 -5 -27 -14 -70 -19 -94 -7 -37 -6 -46 10 -62 26
-26 71 -24 97 4 23 24 92 155 92 175 0 7 10 34 23 60 13 26 29 66 37 89 7 24
20 49 29 57 20 17 72 29 86 18 6 -4 28 -41 49 -82 22 -41 47 -87 58 -102 10
-14 18 -35 18 -45 0 -10 4 -23 9 -29 11 -10 31 -81 38 -137 3 -20 9 -40 14
-43 5 -3 9 -18 9 -34 0 -16 5 -32 10 -35 6 -3 10 -21 10 -40 0 -19 4 -36 9
-39 5 -3 11 -23 14 -43 12 -94 69 -183 116 -183 55 0 105 92 83 153 -7 18 -12
46 -12 62 0 27 -12 74 -31 120 -15 36 -15 125 -1 125 11 0 155 -219 218 -331
26 -45 47 -59 90 -59 54 0 74 25 74 92 0 37 -8 58 -39 105 -80 121 -131 243
-101 243 13 0 109 -101 110 -115 0 -6 24 -34 53 -63 65 -64 110 -77 138 -41
35 45 23 85 -84 279 -16 30 -38 66 -47 80 -10 14 -27 43 -38 65 -11 22 -36 58
-56 80 -75 81 -26 91 54 10 30 -30 60 -55 67 -55 7 0 27 -19 44 -42 38 -53 81
-77 139 -77 54 -1 62 4 85 48 l17 35 -53 45 c-80 66 -318 305 -364 364 -22 28
-87 101 -145 162 -136 143 -220 240 -220 252 0 6 -7 16 -14 23 -15 12 -43 67
-66 130 -7 19 -17 39 -22 44 -4 6 -8 18 -8 28 0 10 -4 26 -9 36 -14 28 -31 87
-31 109 0 11 -7 34 -15 49 -8 16 -15 37 -15 46 0 9 -4 20 -10 23 -5 3 -10 21
-10 40 0 19 -4 37 -10 40 -5 3 -10 24 -10 45 0 21 -4 42 -10 45 -5 3 -10 19
-10 36 0 16 -4 37 -9 47 -15 29 -50 140 -73 227 -6 22 -16 54 -24 70 -12 29
-29 75 -60 165 -9 25 -20 49 -25 55 -5 5 -9 17 -9 27 0 10 -4 26 -9 36 -5 9
-15 37 -22 62 -8 25 -24 68 -38 95 -13 28 -34 75 -45 105 -33 85 -166 338
-262 498 -24 40 -44 76 -44 81 0 5 -6 14 -14 20 -8 7 -27 36 -42 64 -14 29
-39 66 -53 83 -15 16 -37 47 -50 67 -20 33 -22 42 -11 66 13 33 8 154 -10 241
-6 30 -14 72 -17 93 -3 20 -9 40 -14 43 -5 3 -9 18 -9 34 0 16 -4 32 -10 35
-5 3 -10 17 -10 30 0 13 -4 26 -9 30 -5 3 -13 19 -16 37 -4 17 -16 47 -26 65
-11 19 -19 40 -19 47 0 13 -18 53 -56 128 -8 14 -14 31 -14 38 0 12 -87 189
-129 263 -20 36 -21 49 -21 370 0 187 -4 337 -9 342 -5 6 -12 35 -15 65 -8 88
-18 134 -32 155 -8 11 -14 27 -14 36 0 36 -107 215 -169 282 -73 79 -240 187
-290 187 -11 0 -23 5 -26 10 -3 6 -15 10 -25 10 -11 0 -35 9 -55 20 -20 11
-44 20 -53 20 -10 0 -27 7 -38 15 -10 8 -33 15 -51 15 -17 0 -35 5 -38 10 -3
6 -24 10 -45 10 -21 0 -42 5 -45 10 -3 6 -33 10 -65 10 -32 0 -62 5 -65 10 -4
6 -67 10 -157 10 l-150 0 -65 35 c-36 19 -70 35 -76 35 -7 0 -38 20 -69 45
-32 25 -61 45 -64 45 -4 0 -29 19 -55 43 -27 23 -70 60 -95 82 -26 22 -59 58
-73 79 -59 88 -60 92 -61 243 0 124 3 147 20 178 11 20 20 42 20 50 0 7 16 44
35 81 19 37 35 75 35 85 0 10 4 20 9 23 5 3 11 23 14 43 2 21 14 74 26 117 17
65 21 107 21 235 0 86 -5 194 -10 241 -6 47 -13 121 -16 165 -3 44 -9 84 -15
89 -5 6 -9 29 -9 52 0 24 -4 46 -10 49 -5 3 -10 17 -10 30 0 45 -90 186 -164
257 -28 26 -56 48 -62 48 -6 0 -17 7 -24 15 -13 16 -59 39 -95 48 -11 3 -53
19 -94 36 -70 30 -79 31 -205 30 -111 -1 -141 -4 -196 -25z m359 -45 c20 -6
44 -15 53 -20 10 -5 23 -9 30 -9 7 0 47 -17 88 -37 124 -63 280 -236 280 -312
0 -9 4 -21 9 -26 18 -19 38 -225 47 -473 7 -214 7 -217 -27 -284 -5 -10 -9
-22 -9 -28 0 -5 -20 -42 -44 -82 -24 -40 -62 -105 -85 -145 -24 -40 -49 -77
-57 -84 -8 -6 -14 -17 -14 -23 0 -16 -87 -97 -127 -119 -17 -9 -40 -17 -51
-17 -12 0 -24 -4 -27 -10 -4 -6 -84 -10 -208 -10 -212 0 -267 9 -312 49 -11
10 -53 39 -93 65 -75 49 -95 73 -160 196 -65 123 -75 146 -101 216 -15 39 -9
597 7 669 6 28 14 66 17 85 4 19 18 59 33 89 30 60 167 211 192 211 9 0 20 4
26 9 20 19 106 61 124 61 10 0 22 5 25 10 3 6 19 10 35 10 16 0 32 5 35 10 9
14 270 13 314 -1z m473 -1314 c-8 -65 -40 -148 -99 -260 -23 -44 -33 -95 -33
-172 0 -87 -5 -113 -23 -113 -13 0 -77 60 -77 73 0 5 -14 29 -31 54 -16 25
-28 52 -24 60 7 19 38 59 92 120 24 27 43 53 43 59 0 6 9 19 20 29 11 10 32
43 47 74 15 31 33 66 41 79 18 27 48 25 44 -3z m-1196 -79 c45 -91 77 -134
158 -220 36 -37 66 -72 66 -77 0 -6 -8 -22 -19 -37 -10 -15 -33 -51 -51 -80
-35 -57 -67 -82 -75 -60 -2 7 -6 45 -9 83 -9 128 -17 159 -70 270 -67 138 -80
171 -73 190 11 28 37 3 73 -69z m920 -376 c23 -41 50 -90 59 -107 10 -18 20
-33 24 -33 3 0 12 -12 18 -27 16 -35 202 -248 263 -300 62 -54 153 -121 232
-172 37 -23 69 -49 72 -57 6 -17 -14 -54 -52 -96 -14 -15 -30 -35 -36 -46 -6
-10 -24 -39 -41 -62 -75 -107 -105 -164 -124 -230 -7 -25 -17 -54 -21 -65 -25
-64 -72 -280 -89 -405 -25 -182 -31 -253 -31 -377 0 -77 -4 -134 -10 -138 -5
-3 -10 -19 -10 -34 0 -25 -80 -198 -107 -234 -6 -6 -21 -32 -34 -57 -13 -25
-30 -53 -38 -63 -8 -9 -19 -25 -25 -36 -6 -10 -24 -38 -40 -62 -16 -24 -45
-73 -64 -109 -19 -36 -50 -92 -69 -125 -62 -111 -153 -307 -153 -330 0 -20
-49 -75 -68 -75 -42 0 -91 68 -186 259 -53 106 -104 205 -114 219 -10 15 -31
52 -46 82 -16 30 -34 62 -41 70 -7 8 -25 40 -40 70 -25 48 -58 105 -103 175
-6 11 -28 54 -48 95 -20 41 -41 83 -45 92 -5 10 -9 26 -9 36 0 10 -4 22 -9 28
-14 14 -21 88 -30 315 -4 113 -11 211 -15 218 -4 6 -10 39 -12 74 -3 34 -8 69
-11 77 -3 8 -10 38 -14 65 -4 28 -13 73 -19 100 -6 28 -14 65 -17 83 -3 18 -9
35 -14 38 -5 3 -9 12 -9 21 0 24 -69 163 -99 199 -108 131 -171 225 -171 254
0 5 15 16 34 25 19 9 52 32 74 51 22 19 44 34 49 34 4 0 25 16 47 35 21 19 41
35 45 35 3 0 25 18 49 40 23 22 46 40 50 40 10 0 182 165 182 174 0 4 13 24
29 44 16 20 37 53 47 72 10 19 25 43 33 53 16 19 36 52 50 82 16 36 38 48 73
41 162 -33 265 -43 281 -27 6 6 37 11 68 11 32 0 61 5 64 10 3 6 17 10 30 10
13 0 27 5 30 10 4 6 31 10 62 8 l56 -3 43 -75z m-1422 -706 c9 -8 16 -20 16
-26 0 -5 14 -30 30 -55 17 -24 30 -50 30 -56 0 -7 -18 -31 -40 -52 -22 -21
-40 -44 -40 -50 0 -15 -190 -199 -222 -215 -16 -7 -28 -17 -28 -22 0 -4 -8 -8
-18 -8 -10 0 -22 -4 -27 -9 -6 -5 -59 -34 -120 -66 -185 -95 -227 -156 -251
-367 -6 -57 -7 -57 -57 -83 -28 -14 -59 -25 -68 -25 -10 0 -20 -4 -24 -9 -3
-5 -19 -13 -37 -16 -17 -4 -47 -16 -65 -26 -19 -11 -40 -19 -47 -19 -20 0
-171 -77 -186 -95 -7 -8 -17 -15 -23 -15 -15 0 -87 -71 -87 -85 0 -18 -37 -48
-50 -40 -13 8 -13 542 0 550 5 3 12 27 15 53 9 62 60 213 92 270 42 75 109
160 155 197 85 68 178 125 206 125 9 0 26 7 36 15 11 8 26 15 33 15 8 0 33 9
55 20 23 11 50 20 59 20 10 0 20 4 23 9 3 5 18 11 33 14 16 3 62 13 103 22 41
9 132 20 202 23 69 4 130 10 134 15 4 4 40 7 80 7 53 0 77 -4 88 -16z m2546 1
c41 -3 89 -13 107 -21 17 -7 42 -14 56 -14 14 0 29 -4 32 -10 3 -5 15 -10 26
-10 10 0 28 -4 39 -10 11 -5 29 -14 40 -20 11 -5 25 -10 31 -10 21 0 200 -95
252 -134 50 -36 132 -120 147 -148 7 -16 17 -28 22 -28 4 0 8 -5 8 -11 0 -6
10 -25 23 -42 31 -45 67 -117 67 -137 0 -9 3 -20 7 -24 13 -13 34 -82 45 -146
6 -36 12 -178 15 -316 3 -210 1 -253 -11 -263 -11 -9 -17 -9 -25 1 -66 84
-181 198 -198 198 -6 0 -18 9 -28 20 -10 11 -25 20 -33 20 -9 0 -41 8 -71 18
-31 11 -83 27 -116 37 -76 22 -159 61 -176 81 -7 9 -15 53 -17 102 -7 137 -52
214 -153 266 -24 12 -62 33 -84 46 -22 12 -62 35 -90 49 -99 52 -172 111 -287
232 -65 67 -118 127 -118 134 0 17 38 93 51 100 5 4 14 18 20 31 l9 25 167 -5
c93 -3 202 -8 243 -11z m-207 -475 c6 0 18 -6 26 -14 9 -8 74 -44 146 -80 175
-89 234 -148 249 -248 3 -21 9 -54 12 -74 4 -20 2 -46 -4 -57 -6 -12 -13 -58
-16 -102 -3 -44 -9 -102 -15 -130 -6 -27 -13 -66 -16 -85 -7 -36 -17 -65 -41
-113 -8 -16 -14 -33 -14 -38 0 -22 -75 -89 -134 -119 -58 -29 -69 -31 -132
-26 -97 7 -153 17 -160 27 -3 5 -13 9 -22 9 -9 0 -89 35 -177 79 -172 85 -215
101 -262 101 -44 0 -60 23 -45 64 7 19 12 94 12 187 0 143 6 202 31 334 6 28
13 67 16 88 3 20 9 40 14 43 5 3 9 20 9 39 0 19 5 37 10 40 6 3 10 19 10 35 0
16 4 31 9 34 5 3 12 22 16 43 3 20 16 57 28 82 25 53 100 156 125 170 14 9 43
-16 166 -139 82 -83 153 -150 159 -150z m-2197 258 c84 -93 144 -223 173 -378
32 -171 44 -283 61 -559 11 -176 10 -185 -38 -194 -90 -18 -118 -28 -203 -71
-51 -26 -104 -56 -117 -67 -14 -10 -31 -19 -38 -19 -8 0 -33 -9 -57 -19 -53
-24 -92 -32 -193 -38 -74 -4 -85 -2 -130 22 -27 15 -75 52 -106 83 -58 57 -60
60 -89 192 -33 149 -48 383 -28 434 56 141 93 183 204 235 39 18 78 37 88 43
10 5 36 18 57 29 21 11 44 27 51 35 6 8 17 14 25 14 17 0 154 131 154 147 0
19 120 143 139 143 9 0 30 -15 47 -32z m-813 -825 c3 -10 11 -49 17 -88 6 -38
16 -86 21 -106 5 -20 9 -46 9 -58 0 -12 9 -50 20 -84 10 -34 26 -89 34 -122
45 -184 45 -241 3 -395 -14 -52 -29 -106 -32 -120 -4 -14 -10 -34 -15 -45 -4
-11 -13 -40 -20 -65 -6 -25 -25 -85 -42 -135 -17 -49 -33 -100 -35 -112 -19
-84 -195 -375 -312 -515 l-56 -66 -107 -1 c-58 -1 -113 2 -122 5 -21 8 -21
108 0 212 16 77 68 251 86 286 5 10 12 57 15 105 6 98 -4 144 -44 191 -49 58
-130 31 -150 -49 -3 -14 -9 -30 -13 -36 -21 -29 -41 -121 -45 -210 -9 -175
-27 -297 -56 -390 -16 -49 -33 -96 -38 -103 -30 -47 -88 46 -123 198 -18 77
-10 315 12 365 5 11 11 34 13 50 7 43 45 177 57 197 6 10 10 27 10 37 0 11 5
23 10 26 6 3 10 15 10 26 0 11 9 39 20 61 11 23 20 49 20 57 0 9 7 25 15 35 8
11 15 28 15 38 0 9 9 33 20 53 11 20 20 41 20 48 0 7 9 32 20 55 11 22 20 46
20 52 0 6 11 33 25 60 14 27 25 57 26 67 0 19 5 26 83 144 68 103 129 156 226
201 19 9 55 25 78 37 24 11 50 21 58 21 8 0 22 4 32 9 19 11 70 32 122 51 19
7 39 17 45 22 16 14 43 9 48 -9z m3513 8 c12 -11 121 -52 157 -58 15 -3 30 -9
33 -14 3 -5 14 -9 24 -9 19 0 164 -73 191 -96 8 -8 19 -14 22 -14 31 0 142
-148 191 -255 30 -64 44 -92 100 -198 20 -38 36 -76 36 -86 0 -9 4 -21 9 -27
10 -11 74 -171 92 -229 6 -22 15 -49 19 -60 34 -97 40 -115 61 -205 38 -164
53 -301 39 -360 -7 -25 -14 -60 -17 -78 -3 -18 -9 -35 -14 -38 -5 -3 -9 -17
-9 -32 0 -60 -56 -162 -90 -162 -7 0 -20 25 -57 105 -13 29 -20 78 -25 175
-16 282 -20 325 -29 335 -5 5 -9 17 -9 27 0 9 -7 34 -16 55 -9 21 -22 49 -27
63 -17 39 -49 70 -72 70 -39 0 -84 -30 -102 -68 -30 -63 -21 -210 18 -284 5
-10 9 -27 9 -39 0 -12 16 -68 35 -125 31 -90 35 -115 35 -202 0 -76 -4 -103
-15 -112 -10 -8 -43 -11 -101 -9 l-86 4 -56 60 c-46 50 -157 203 -198 276 -6
10 -18 27 -27 37 -10 10 -17 22 -17 27 0 5 -7 16 -15 25 -20 22 -75 130 -75
146 0 8 -11 33 -25 58 -14 25 -25 52 -25 61 0 8 -4 23 -9 33 -15 31 -31 88
-31 115 0 14 -4 28 -9 31 -5 3 -11 23 -14 43 -6 44 -21 105 -35 148 -6 17 -15
46 -21 66 -13 43 -15 241 -2 255 5 5 11 38 14 74 3 36 15 90 26 120 12 30 21
67 21 82 0 15 5 30 10 33 6 3 10 37 10 75 0 38 5 72 10 75 6 3 10 23 10 44 0
21 3 41 7 44 9 10 37 9 49 -2z m-2469 -356 c12 -8 30 -42 42 -77 25 -79 93
-219 115 -237 9 -7 16 -17 16 -22 0 -5 33 -59 74 -121 71 -108 219 -382 310
-574 24 -50 49 -94 55 -98 31 -20 -38 -73 -239 -183 -25 -14 -77 -57 -117 -96
-54 -53 -79 -87 -103 -141 -70 -158 -73 -172 -75 -374 -3 -239 -22 -330 -104
-482 -39 -72 -137 -210 -151 -210 -23 0 -32 38 -37 161 -2 73 -9 141 -14 150
-5 10 -9 31 -9 48 0 16 -4 33 -10 36 -5 3 -10 15 -10 27 0 42 -109 227 -190
322 -73 85 -136 172 -170 236 -13 25 -30 52 -36 60 -7 8 -34 58 -60 110 -45
87 -50 103 -57 190 -23 283 -39 435 -62 565 -30 169 -36 220 -45 345 -4 69
-12 149 -17 178 -5 29 -7 54 -5 57 11 11 36 4 63 -19 39 -33 161 -69 231 -69
104 1 307 79 388 148 41 36 69 51 130 70 58 18 62 18 87 0z m1477 -5 c31 -10
94 -39 139 -63 45 -24 96 -51 112 -60 105 -56 217 -86 302 -81 63 3 196 56
223 89 24 29 40 18 40 -28 0 -24 -4 -47 -10 -53 -5 -5 -12 -57 -14 -114 -3
-58 -10 -139 -15 -180 -6 -41 -14 -109 -19 -150 -5 -41 -12 -82 -16 -90 -7
-18 -25 -159 -37 -295 -25 -286 -42 -373 -90 -453 -12 -21 -33 -57 -47 -82
-14 -25 -30 -54 -36 -64 -6 -11 -22 -36 -36 -56 -23 -34 -42 -58 -149 -194
-22 -27 -45 -61 -52 -75 -8 -14 -28 -43 -46 -65 -54 -65 -89 -147 -114 -266
-5 -25 -13 -65 -19 -90 -5 -25 -9 -77 -10 -117 0 -128 -23 -136 -91 -30 -59
91 -139 250 -139 276 0 11 -4 22 -9 25 -14 9 -22 78 -31 271 -9 199 -16 250
-36 280 -8 11 -14 29 -14 42 0 12 -4 25 -10 28 -5 3 -10 14 -10 24 0 25 -18
57 -73 133 -65 88 -112 124 -257 197 -140 70 -169 94 -146 120 21 24 56 90 56
105 0 16 148 311 177 353 11 15 27 45 36 65 10 20 22 40 28 44 6 3 15 16 20
27 5 12 18 36 28 52 11 17 20 38 20 48 1 9 5 17 10 17 5 0 16 15 26 33 27 52
40 74 55 91 21 26 90 169 90 188 0 9 5 20 10 23 6 3 10 16 10 28 1 37 30 64
71 66 9 1 42 -8 73 -19z m-3131 -775 c56 -56 60 -191 9 -341 -63 -188 -82
-275 -82 -378 0 -56 4 -87 13 -94 7 -6 56 -13 108 -14 l94 -3 -1 -55 c0 -79
-14 -212 -24 -235 -5 -11 -16 -43 -25 -72 -9 -29 -30 -80 -46 -113 -16 -33
-29 -65 -29 -71 0 -16 -119 -249 -136 -266 -7 -8 -14 -18 -14 -22 0 -9 -40
-62 -92 -125 -18 -21 -37 -46 -42 -55 -5 -9 -23 -32 -41 -51 -39 -42 -114
-150 -146 -211 -14 -24 -50 -82 -82 -129 -111 -164 -188 -285 -208 -330 -11
-25 -29 -61 -40 -80 -45 -84 -109 -222 -146 -314 -42 -108 -39 -106 -155 -106
-142 0 -273 25 -329 63 -53 36 -54 29 47 247 24 52 44 103 44 112 0 9 4 19 9
22 5 3 11 18 14 33 3 16 13 48 22 73 10 25 21 61 26 80 4 19 13 53 19 75 6 22
15 56 20 75 5 19 18 71 30 115 11 44 29 109 39 145 11 36 25 85 31 110 7 25
16 54 21 65 4 11 15 47 24 80 10 33 26 79 36 103 10 23 19 49 19 56 0 8 15 43
33 78 18 35 39 79 46 98 24 64 221 458 236 470 8 7 15 16 15 21 0 9 19 39 127
206 29 44 53 85 53 90 0 4 13 23 28 42 26 31 30 32 45 17 9 -9 19 -33 23 -54
15 -90 27 -118 70 -160 24 -24 48 -42 55 -40 15 5 68 98 69 121 0 9 4 25 9 35
5 9 14 35 20 57 10 39 13 69 31 310 10 131 28 211 64 283 21 41 31 52 50 52
14 0 31 -7 39 -15z m4745 -3 c15 -10 48 -69 70 -127 15 -39 22 -98 40 -370 10
-134 25 -194 70 -277 29 -54 51 -61 85 -25 27 27 70 116 87 177 7 25 14 51 16
58 2 8 10 12 17 10 12 -4 126 -166 126 -181 1 -5 15 -28 31 -52 17 -24 30 -46
30 -50 0 -3 12 -24 27 -48 34 -51 80 -136 132 -242 40 -84 54 -114 92 -205 12
-30 26 -59 31 -64 4 -6 8 -16 8 -23 0 -7 11 -37 25 -67 14 -30 25 -57 25 -60
0 -3 14 -34 30 -68 17 -34 30 -65 30 -70 0 -4 9 -27 20 -51 31 -67 70 -180 70
-204 0 -12 4 -24 9 -27 5 -3 11 -20 14 -38 5 -34 18 -80 35 -133 24 -71 32
-103 32 -128 0 -14 5 -29 10 -32 6 -3 10 -18 10 -32 0 -27 16 -84 31 -115 5
-10 9 -26 9 -37 0 -11 9 -41 21 -68 11 -26 32 -82 46 -123 14 -41 28 -79 33
-85 4 -5 11 -21 15 -33 4 -13 21 -46 38 -74 l31 -50 -32 -29 c-18 -16 -41 -29
-52 -29 -11 0 -28 -4 -38 -9 -42 -23 -194 -60 -266 -66 -65 -5 -81 -3 -97 11
-11 9 -19 25 -19 34 0 9 -9 35 -20 58 -11 22 -20 46 -20 51 0 6 -11 34 -24 63
-14 29 -32 69 -40 88 -9 19 -34 64 -56 100 -21 36 -48 81 -59 101 -11 20 -41
66 -66 103 -25 36 -45 69 -45 72 0 3 -15 29 -33 57 -19 29 -53 86 -77 127 -24
41 -50 86 -59 99 -9 13 -20 31 -26 40 -5 8 -28 40 -50 70 -22 30 -52 70 -66
90 -14 20 -46 63 -72 96 -58 73 -118 154 -134 180 -30 48 -83 150 -83 160 0 5
-14 37 -30 70 -17 33 -30 64 -30 70 0 6 -10 31 -22 56 -12 24 -25 62 -30 84
-5 22 -14 60 -19 85 -6 25 -13 70 -16 100 -2 30 -9 59 -14 65 -14 14 -11 51 6
65 8 7 54 17 103 22 104 12 122 26 122 97 0 26 -4 51 -9 57 -5 5 -11 36 -14
69 -6 78 -30 170 -58 227 -5 10 -9 27 -9 37 0 11 -4 23 -10 26 -5 3 -10 19
-10 35 0 16 -4 32 -10 35 -5 3 -10 24 -10 45 0 22 -5 51 -12 65 -9 21 -9 31 0
46 7 10 12 27 12 37 0 43 62 76 98 54z m-2328 -426 c40 -14 79 -31 88 -39 10
-8 37 -26 62 -40 148 -82 167 -96 213 -152 95 -117 122 -204 142 -459 9 -110
19 -205 23 -210 3 -6 10 -31 14 -56 4 -25 10 -61 14 -80 10 -57 88 -213 145
-292 88 -120 99 -158 45 -158 -13 0 -64 -14 -113 -31 -48 -17 -97 -33 -108
-36 -43 -11 -199 -86 -215 -103 -3 -3 -21 -17 -40 -30 -80 -55 -193 -170 -246
-249 -16 -24 -37 -56 -46 -70 -10 -14 -23 -36 -29 -48 -24 -45 -47 -26 -106
83 -39 73 -90 142 -132 178 -88 77 -112 96 -164 130 -68 44 -229 122 -272 131
-16 4 -39 10 -50 15 -25 10 -94 29 -119 32 -10 2 -24 11 -30 20 -8 14 -4 24
22 51 17 18 32 37 32 43 0 6 16 25 35 44 19 19 35 39 35 46 0 6 7 17 15 24 18
15 75 131 75 153 0 9 5 19 10 22 6 3 10 16 10 29 0 12 4 26 9 31 14 14 22 125
24 325 2 149 6 184 24 236 30 87 60 149 78 164 8 7 15 18 15 24 0 28 119 120
236 181 49 26 95 52 102 58 24 19 97 55 114 56 9 1 48 -10 88 -23z m1286 -471
c4 -8 2 -21 -4 -28 -5 -6 -12 -30 -15 -52 -4 -22 -11 -72 -18 -112 -11 -67 -2
-478 17 -784 6 -101 -3 -118 -58 -100 -37 12 -120 33 -191 50 -26 6 -66 11
-90 11 -23 0 -53 7 -66 16 -23 16 -23 20 -17 108 15 208 17 233 27 271 6 22
15 58 21 80 13 51 46 121 75 161 13 17 23 36 23 42 0 7 4 12 9 12 5 0 16 15
24 33 9 17 29 45 46 61 17 17 31 35 31 41 0 6 14 24 31 41 27 25 60 68 94 123
6 9 14 22 18 29 11 17 36 15 43 -3z m-2625 -86 c30 -39 68 -89 86 -112 18 -23
43 -55 56 -72 51 -64 113 -162 135 -215 33 -75 41 -121 52 -290 5 -80 12 -159
16 -177 6 -30 3 -33 -31 -47 -21 -9 -55 -16 -76 -16 -21 0 -48 -4 -61 -9 -49
-19 -208 -53 -222 -48 -12 5 -14 20 -9 79 27 372 26 674 -3 823 -26 138 -28
155 -12 155 8 0 39 -32 69 -71z m2284 -958 c33 -6 96 -20 140 -30 44 -11 103
-25 132 -31 69 -16 71 -19 93 -145 10 -57 22 -106 45 -185 22 -74 35 -118 45
-160 16 -68 49 -185 59 -215 5 -16 15 -50 21 -75 26 -104 50 -190 60 -215 8
-18 25 -75 51 -161 5 -17 9 -47 9 -67 0 -69 -34 -42 -115 92 -11 18 -39 63
-62 99 -55 87 -103 181 -103 203 0 10 -4 21 -10 24 -5 3 -10 21 -10 40 0 19
-4 37 -10 40 -5 3 -10 18 -10 33 -1 27 -32 127 -44 139 -3 3 -6 14 -6 23 0 21
-36 92 -76 150 -18 25 -116 128 -218 230 -102 102 -186 188 -186 192 0 4 12
14 28 23 28 16 60 15 167 -4z m-1884 -1 c16 0 32 -6 35 -14 3 -8 -69 -87 -184
-202 -103 -104 -209 -218 -233 -254 -46 -66 -109 -220 -109 -266 0 -40 -65
-225 -100 -284 -28 -48 -89 -141 -169 -255 -32 -46 -51 -45 -51 0 0 19 4 43 9
53 5 9 15 37 21 62 7 25 16 54 21 65 19 44 39 111 39 132 0 12 5 25 10 28 6 3
10 21 10 40 0 19 5 37 10 40 6 3 10 19 10 34 0 15 4 31 9 37 5 5 21 47 35 94
15 47 31 94 35 105 15 34 73 218 83 260 11 47 26 130 36 200 6 43 10 50 32 53
14 2 29 8 35 13 5 5 19 9 32 9 12 0 32 4 45 9 62 24 261 54 296 45 8 -2 27 -4
43 -4z m230 -60 c152 -49 312 -151 413 -263 87 -96 115 -137 162 -232 l39 -80
0 -395 c0 -217 4 -436 9 -485 8 -81 6 -95 -12 -130 -11 -22 -41 -102 -66 -178
-37 -113 -46 -152 -46 -210 0 -40 -4 -77 -8 -82 -21 -29 -134 -75 -222 -91
-69 -12 -257 -9 -335 5 -38 7 -79 12 -90 11 -58 -5 -225 17 -273 34 -23 9 -79
35 -124 57 -212 107 -286 199 -348 437 -16 60 -11 328 6 361 8 14 14 35 14 46
0 37 27 102 114 275 7 14 23 59 35 100 13 41 27 84 32 95 5 11 10 38 13 60 7
67 51 174 96 235 40 54 433 451 455 460 11 4 31 4 45 -1 14 -4 55 -17 91 -29z
m1597 -142 c101 -101 202 -209 224 -241 49 -72 108 -182 108 -202 0 -9 11 -50
24 -93 14 -42 30 -97 36 -122 7 -25 16 -53 21 -62 5 -10 9 -22 9 -28 0 -16 41
-102 64 -135 47 -66 85 -166 97 -255 12 -80 3 -279 -15 -340 -8 -25 -19 -65
-27 -90 -39 -138 -129 -238 -279 -312 -52 -25 -117 -53 -145 -62 -64 -19 -218
-45 -315 -51 -41 -3 -100 -10 -132 -16 -100 -20 -328 10 -424 56 -52 25 -50
20 -70 198 -3 28 -14 71 -25 94 -10 24 -19 48 -19 53 0 6 -10 30 -21 53 -40
77 -43 101 -51 367 -8 266 -8 291 -6 508 0 64 0 133 -2 152 -1 19 2 53 7 75
12 51 75 185 118 250 45 68 214 225 243 225 5 0 15 7 22 15 17 20 165 95 189
95 11 0 23 5 26 10 3 6 16 10 29 10 12 0 26 4 32 9 9 9 40 17 78 20 13 1 83
-62 204 -181z m2881 -840 c6 -13 32 -41 57 -63 67 -59 100 -93 189 -195 44
-50 131 -146 194 -213 134 -144 110 -119 199 -204 76 -71 84 -95 40 -109 -35
-11 -71 6 -124 59 -69 70 -161 149 -216 186 -25 17 -51 37 -58 46 -19 23 -40
18 -40 -10 0 -30 26 -83 78 -162 20 -31 42 -63 47 -72 6 -8 28 -43 50 -76 22
-33 48 -76 59 -95 10 -19 27 -46 37 -59 11 -13 19 -34 19 -46 0 -12 7 -39 15
-59 31 -73 -18 -77 -84 -8 -64 67 -183 222 -275 360 -50 75 -63 88 -73 78 -10
-9 36 -140 83 -241 23 -49 47 -106 55 -125 15 -39 66 -137 83 -160 27 -34 37
-69 34 -111 -3 -40 -6 -44 -30 -47 -24 -3 -32 4 -63 52 -19 30 -39 58 -45 61
-6 4 -24 34 -41 68 -17 34 -41 76 -53 92 -12 17 -30 47 -39 67 -10 20 -22 40
-26 43 -5 3 -28 42 -51 88 -54 104 -59 110 -76 96 -10 -8 -11 -16 -4 -29 6
-10 10 -37 10 -59 0 -22 5 -43 10 -46 6 -3 10 -24 10 -46 0 -22 5 -50 11 -61
10 -19 21 -72 36 -171 3 -20 9 -40 14 -43 14 -8 11 -168 -3 -182 -18 -18 -42
-14 -64 11 -30 35 -44 65 -44 94 0 16 -6 48 -14 73 -8 25 -20 65 -26 90 -7 25
-16 53 -21 62 -5 10 -9 33 -9 52 0 19 -4 38 -10 41 -5 3 -10 18 -10 32 0 32
-136 306 -167 337 -41 42 -114 10 -150 -66 -37 -76 -53 -118 -53 -138 0 -10
-4 -22 -10 -25 -5 -3 -10 -16 -11 -28 0 -12 -9 -35 -20 -52 -10 -16 -26 -44
-35 -61 -32 -61 -84 -68 -84 -10 0 18 4 36 9 41 5 6 11 30 14 55 8 67 17 113
27 135 5 11 11 38 14 60 2 22 12 69 21 105 25 100 36 151 42 200 3 25 9 49 14
55 5 5 9 30 9 56 0 26 5 51 10 54 6 3 10 30 10 60 0 32 5 57 12 61 7 5 41 9
75 10 34 1 76 7 95 12 118 36 265 85 278 92 27 16 56 11 69 -12z m-7601 -55
c31 -15 78 -31 106 -35 52 -9 238 -26 289 -27 25 -1 27 -4 27 -42 0 -23 4 -58
9 -78 5 -20 14 -61 21 -91 11 -54 18 -84 39 -165 11 -46 56 -243 66 -295 4
-19 11 -53 16 -75 19 -81 28 -180 17 -192 -19 -24 -37 -13 -74 42 -35 53 -94
194 -94 225 -1 59 -56 141 -113 166 l-38 17 -34 -33 c-43 -42 -145 -249 -179
-362 -45 -154 -74 -243 -96 -303 -12 -33 -24 -70 -27 -82 -7 -31 -46 -65 -66
-57 -9 3 -22 22 -28 43 -11 39 5 113 50 231 12 30 26 80 32 110 5 30 15 78 20
105 16 78 22 144 14 163 -6 15 -10 13 -31 -13 -13 -16 -24 -34 -24 -38 0 -5
-19 -36 -43 -70 -24 -34 -70 -111 -102 -172 -107 -203 -136 -255 -162 -285
-27 -33 -40 -36 -67 -17 -17 13 -17 16 2 78 11 35 34 92 51 127 17 34 31 66
31 71 0 5 20 50 45 100 25 51 55 115 66 144 11 29 30 75 41 102 58 144 21 139
-79 -10 -40 -60 -78 -117 -83 -125 -116 -177 -207 -290 -233 -290 -17 0 -47
32 -47 50 0 10 8 28 18 41 9 13 26 40 36 59 10 19 29 46 40 60 35 40 88 127
141 230 26 52 51 97 55 100 32 23 56 130 28 130 -22 0 -139 -77 -269 -179
-113 -87 -169 -109 -169 -64 0 15 107 122 123 123 13 0 167 152 209 205 22 28
71 82 109 121 38 40 69 76 69 82 0 9 43 52 155 156 28 25 56 46 64 46 8 0 39
-12 69 -27z m2187 -220 c-11 -55 -7 -344 5 -400 49 -226 303 -450 560 -493 98
-17 141 -27 150 -36 9 -9 -17 -102 -91 -334 -16 -52 -37 -113 -46 -135 -28
-71 -31 -79 -43 -125 -7 -25 -21 -70 -30 -100 -58 -182 -90 -373 -109 -665
-10 -152 -22 -209 -70 -355 -40 -119 -87 -202 -207 -365 -111 -151 -404 -370
-404 -302 0 8 3 17 7 21 11 11 46 146 63 241 24 132 28 151 33 165 4 8 9 38
12 65 3 28 10 84 16 125 6 44 8 114 4 170 -4 52 -6 103 -6 113 1 9 2 32 3 50
1 41 -30 360 -44 452 -12 79 -15 1451 -3 1548 4 32 13 70 20 84 7 14 11 32 8
40 -5 13 39 106 77 163 9 14 29 44 44 68 34 55 61 58 51 5z m3179 1 c9 -3 16
-12 16 -19 0 -7 8 -23 18 -36 60 -78 107 -193 118 -294 3 -22 9 -49 15 -60 13
-27 5 -1392 -9 -1505 -26 -216 -31 -280 -37 -495 -7 -269 5 -425 45 -585 17
-71 32 -126 40 -145 17 -46 38 -148 33 -161 -8 -21 -29 -17 -65 14 -18 15 -60
46 -93 67 -62 42 -255 230 -255 250 0 6 -13 24 -30 40 -16 16 -30 32 -30 37 0
5 -11 27 -26 49 -44 70 -64 109 -64 124 0 9 -4 23 -9 33 -5 9 -14 37 -21 62
-6 25 -16 59 -22 75 -6 17 -13 48 -15 70 -2 22 -8 49 -13 60 -5 11 -11 43 -14
70 -3 28 -10 82 -16 120 -6 39 -15 106 -19 150 -11 101 -29 214 -38 228 -3 5
-10 37 -14 71 -12 89 -19 128 -29 151 -4 11 -13 40 -20 65 -6 25 -15 52 -20
60 -4 9 -11 30 -14 48 -4 17 -12 34 -17 37 -5 4 -9 15 -9 26 0 10 -4 27 -9 37
-5 9 -14 36 -20 60 -6 23 -16 61 -22 85 -6 23 -17 57 -25 75 -8 18 -12 38 -8
43 3 5 -1 21 -10 34 -9 13 -16 34 -16 46 0 13 -5 37 -12 55 -15 43 -1 60 55
67 100 13 156 26 195 46 23 12 45 21 51 21 17 0 155 70 199 102 50 35 130 145
131 181 1 9 5 25 10 35 15 30 33 86 38 117 2 17 8 39 13 50 17 38 25 192 14
288 -6 58 -2 63 30 51z m-1750 -984 c0 -152 -27 -375 -63 -540 -23 -105 -30
-129 -60 -199 -17 -41 -31 -82 -31 -92 0 -10 -4 -21 -10 -24 -5 -3 -10 -16
-10 -27 0 -26 -16 -78 -40 -133 -36 -82 -49 -112 -80 -195 -17 -47 -42 -110
-55 -140 -12 -30 -25 -70 -29 -87 -8 -33 -32 -61 -43 -49 -15 14 -33 84 -33
126 0 26 -4 50 -9 55 -5 6 -12 39 -15 75 -21 197 -43 365 -52 390 -3 8 -8 44
-10 79 -3 35 -9 72 -15 82 -5 10 -9 60 -9 111 0 52 -4 98 -9 104 -5 5 -12 45
-15 89 -7 121 -41 324 -57 340 -10 10 -12 46 -3 69 5 12 35 15 190 15 160 1
195 4 271 24 48 13 102 31 118 40 17 9 39 16 50 14 19 -2 20 -9 19 -127z m411
88 c147 -34 254 -40 432 -23 63 6 87 4 99 -6 19 -15 21 6 -38 -304 -5 -27 -13
-81 -19 -120 -5 -38 -14 -99 -19 -135 -6 -36 -14 -104 -19 -151 -4 -48 -11
-91 -14 -96 -6 -10 -17 -87 -38 -260 -35 -290 -65 -463 -83 -475 -17 -12 -26
-9 -32 10 -3 9 -10 26 -14 37 -11 26 -53 143 -80 225 -12 36 -26 69 -31 75 -5
5 -9 17 -9 27 0 9 -7 34 -16 55 -9 21 -21 49 -27 63 -5 14 -13 33 -18 42 -5
10 -9 27 -9 37 0 11 -4 23 -10 26 -5 3 -10 17 -10 30 0 13 -4 27 -10 30 -5 3
-10 14 -10 23 0 9 -11 39 -25 66 -14 27 -25 55 -25 63 0 7 -4 21 -9 31 -11 21
-27 79 -40 147 -37 194 -41 231 -41 402 0 194 4 210 50 197 14 -4 43 -11 65
-16z m-1073 -183 c4 -28 14 -90 23 -140 27 -141 45 -296 64 -545 14 -178 30
-320 37 -331 3 -5 10 -38 16 -72 16 -101 34 -189 58 -287 26 -105 29 -144 18
-219 -14 -99 -25 -165 -37 -221 -8 -41 -21 -103 -41 -205 -7 -36 -15 -68 -52
-195 -5 -19 -12 -50 -15 -68 -3 -18 -9 -35 -14 -38 -5 -3 -9 -14 -9 -24 0 -11
-7 -36 -16 -57 -9 -21 -21 -49 -27 -63 -5 -14 -13 -33 -18 -42 -5 -10 -9 -22
-9 -27 0 -8 -90 -202 -173 -371 -27 -54 -52 -63 -68 -23 -6 15 -27 62 -46 103
-20 41 -39 84 -43 95 -15 42 -86 182 -117 232 -18 29 -33 56 -33 61 0 5 -7 15
-15 22 -41 34 -46 69 -42 271 6 246 12 284 69 394 86 168 132 332 149 535 26
319 49 478 80 558 5 13 9 36 9 52 0 16 5 32 10 35 6 3 10 17 10 30 0 13 5 27
10 30 6 3 10 14 10 24 0 9 10 39 23 67 13 27 29 69 36 94 7 25 17 53 22 62 5
10 9 29 9 43 0 14 4 33 9 43 9 17 14 36 46 147 9 33 19 66 21 73 2 8 12 12 21
10 13 -2 20 -17 25 -53z m1664 28 c7 -10 14 -29 14 -43 0 -15 4 -30 8 -35 8
-10 31 -78 52 -155 7 -25 16 -55 21 -68 5 -13 9 -36 9 -52 0 -16 5 -32 10 -35
6 -3 10 -15 10 -26 0 -11 12 -57 26 -102 41 -132 44 -142 44 -170 0 -14 4 -28
9 -31 5 -3 11 -20 14 -38 3 -18 13 -67 22 -108 9 -41 18 -102 21 -135 2 -33 7
-73 10 -90 4 -16 10 -68 15 -115 12 -125 35 -270 46 -300 3 -8 14 -35 23 -60
10 -25 25 -65 35 -90 9 -25 29 -72 44 -105 39 -84 43 -94 53 -150 20 -117 27
-239 21 -372 l-6 -143 -38 -50 c-39 -52 -188 -344 -218 -428 -24 -68 -36 -86
-54 -79 -16 6 -227 421 -227 447 0 9 -7 25 -15 36 -8 10 -15 29 -15 41 0 12
-4 25 -10 28 -5 3 -10 17 -10 30 0 13 -4 27 -10 30 -5 3 -10 19 -10 35 0 16
-4 32 -10 35 -5 3 -10 16 -10 27 0 26 -17 83 -36 121 -8 16 -14 44 -14 62 0
19 -4 37 -10 40 -5 3 -10 25 -10 49 0 23 -4 46 -9 52 -5 5 -11 29 -14 54 -3
25 -11 68 -17 95 -6 28 -15 77 -20 110 -6 33 -15 72 -21 88 -9 20 -8 31 1 41
13 16 29 98 36 186 3 30 9 64 14 75 5 11 11 47 14 80 3 33 10 89 15 125 6 36
14 94 19 130 4 36 13 75 20 87 7 12 12 44 12 70 0 27 4 53 9 59 5 5 12 32 15
59 3 28 10 79 16 115 6 36 14 97 18 135 4 39 10 75 14 81 4 7 8 43 9 80 1 38
5 79 10 91 7 18 16 117 19 196 0 13 23 7 36 -10z m744 -2162 c0 -8 -16 -38
-35 -67 -48 -72 -109 -220 -117 -284 -5 -41 -31 -35 -45 10 -14 43 -19 531 -6
544 9 9 203 -184 203 -203z m-3000 -75 c0 -247 -8 -306 -40 -306 -11 0 -20 7
-20 15 0 8 -4 23 -9 33 -14 27 -31 87 -31 106 0 17 -27 71 -89 180 l-22 39 92
93 c71 72 96 91 106 82 10 -8 13 -63 13 -242z m3075 34 c10 -11 22 -20 27 -20
10 0 100 -66 141 -103 l27 -26 0 -210 c0 -129 4 -212 10 -216 6 -3 10 -18 10
-33 0 -29 20 -91 51 -158 10 -24 19 -47 19 -52 0 -6 14 -36 30 -67 17 -31 30
-62 30 -69 0 -6 25 -60 55 -120 30 -61 55 -117 55 -126 0 -9 3 -20 7 -24 8 -8
29 -69 45 -131 16 -64 28 -160 38 -295 5 -69 16 -188 26 -265 22 -184 28 -353
15 -369 -20 -23 -129 10 -161 49 -7 8 -18 15 -24 15 -13 0 -150 137 -159 160
-4 8 -18 33 -31 55 -42 68 -76 138 -76 156 0 10 -4 21 -10 24 -5 3 -10 19 -10
35 0 16 -4 32 -10 35 -5 3 -10 21 -10 40 0 19 -5 46 -11 62 -6 15 -13 52 -15
82 -3 30 -8 59 -13 65 -8 10 -12 30 -27 151 -3 28 -10 54 -15 60 -5 5 -9 26
-9 46 0 21 -4 41 -10 44 -5 3 -10 18 -10 33 0 15 -7 40 -15 56 -8 15 -13 32
-10 37 3 4 -1 25 -10 45 -8 20 -15 49 -15 65 0 15 -4 31 -10 34 -5 3 -10 21
-10 40 0 19 -4 37 -10 40 -5 3 -10 15 -10 26 0 11 -11 42 -25 69 -14 27 -25
56 -25 64 0 9 -9 31 -20 51 -11 20 -20 42 -20 50 0 8 -11 34 -24 57 -25 46
-26 42 15 174 5 17 9 40 9 52 0 12 4 30 9 40 5 9 15 37 22 62 25 88 107 230
133 230 7 0 21 -9 31 -20z m-3276 -55 c14 -27 28 -59 31 -70 4 -11 12 -31 18
-45 38 -85 59 -140 71 -180 7 -25 17 -53 22 -62 15 -28 10 -116 -7 -150 -9
-18 -20 -43 -25 -57 -4 -14 -26 -71 -48 -125 -23 -55 -41 -108 -41 -118 0 -10
-4 -26 -9 -36 -5 -9 -14 -37 -21 -62 -6 -25 -17 -67 -25 -95 -23 -84 -34 -129
-40 -160 -3 -16 -10 -48 -16 -70 -5 -22 -14 -67 -19 -100 -24 -142 -30 -171
-70 -335 -41 -165 -70 -236 -142 -345 -66 -100 -111 -139 -246 -209 -115 -60
-115 -61 -108 152 2 98 12 218 20 267 9 50 21 135 27 190 26 252 30 273 79
410 55 157 72 197 135 330 34 72 70 155 80 185 10 30 21 64 25 75 27 74 30
106 30 302 l0 211 33 27 c65 53 182 124 202 122 13 -1 28 -19 44 -52z m293
-272 c31 -53 139 -271 157 -318 15 -38 29 -70 47 -110 21 -46 22 -137 4 -206
-13 -47 -26 -120 -42 -234 -6 -38 -13 -232 -18 -430 -7 -353 -12 -415 -45
-525 -9 -30 -19 -66 -21 -80 -3 -14 -14 -44 -25 -67 -10 -24 -19 -46 -19 -50
0 -3 -8 -24 -17 -45 -24 -54 -48 -57 -116 -14 -31 20 -60 36 -65 36 -5 0 -17
9 -27 20 -10 11 -23 20 -29 20 -14 0 -136 121 -136 136 0 6 -6 17 -14 23 -8 7
-35 54 -61 106 -25 51 -52 99 -60 105 -16 14 -20 65 -6 74 5 3 11 18 14 33 9
44 24 103 41 163 19 65 42 163 66 280 18 91 29 137 55 240 15 58 29 116 31
130 7 33 24 100 34 125 4 11 15 45 25 75 17 50 28 79 72 180 27 63 46 124 54
183 30 195 33 207 54 207 7 0 28 -26 47 -57z m2686 -33 c2 -36 7 -69 13 -74 5
-6 9 -20 9 -33 0 -13 4 -31 9 -41 25 -44 61 -136 61 -153 0 -10 5 -21 10 -24
6 -3 10 -16 10 -29 0 -12 4 -26 8 -32 4 -5 16 -34 26 -64 10 -30 21 -64 26
-75 4 -11 13 -39 19 -62 6 -24 16 -62 22 -85 6 -24 15 -54 20 -68 18 -56 48
-214 56 -290 2 -30 9 -59 14 -65 5 -5 9 -26 9 -47 0 -36 23 -136 55 -238 7
-25 19 -65 25 -90 7 -25 16 -53 21 -62 14 -28 11 -45 -22 -111 -74 -147 -171
-268 -284 -353 -107 -80 -134 -83 -188 -24 -21 21 -37 46 -37 54 0 8 -4 18
-10 21 -5 3 -10 17 -10 29 0 13 -7 29 -15 36 -9 7 -15 29 -15 51 0 21 -4 41
-10 44 -5 3 -10 21 -10 39 0 17 -4 36 -9 42 -20 20 -38 397 -21 429 29 54 -14
643 -49 678 -6 6 -11 23 -11 38 0 15 -4 31 -10 34 -18 11 -11 63 15 111 14 26
25 53 25 60 0 7 9 29 20 49 11 20 20 41 20 48 0 16 77 166 132 260 53 88 72
88 76 -3z m-3163 -1678 c14 -26 31 -56 38 -67 6 -11 33 -53 59 -95 26 -41 75
-103 110 -136 58 -57 143 -114 170 -114 16 0 48 -31 48 -47 0 -7 -12 -32 -27
-55 -14 -24 -93 -175 -175 -338 -81 -162 -163 -323 -182 -357 -18 -34 -36 -70
-39 -80 -3 -10 -16 -49 -30 -88 -14 -38 -33 -113 -42 -165 -18 -106 -32 -174
-46 -238 -5 -23 -9 -59 -9 -80 0 -20 -5 -54 -11 -75 -10 -39 -5 -77 12 -77 5
0 9 18 9 40 0 22 6 58 12 80 11 35 16 40 44 40 25 0 45 -13 100 -67 68 -67 70
-70 87 -148 13 -63 14 -90 6 -125 -6 -25 -13 -60 -16 -78 -3 -18 -9 -35 -14
-38 -5 -3 -9 -13 -9 -23 0 -9 -9 -36 -21 -60 -23 -49 -52 -53 -57 -8 -2 15 -7
27 -12 27 -17 0 -23 -51 -11 -107 14 -72 14 -106 -1 -157 -20 -67 -143 -176
-199 -176 -10 0 -21 -5 -24 -10 -8 -13 -212 -13 -220 0 -3 6 -16 10 -29 10
-38 0 -126 106 -126 153 0 12 -5 28 -11 34 -9 9 -9 20 0 44 7 21 11 150 11
388 0 196 5 396 10 445 11 94 27 403 41 816 13 373 23 544 32 558 5 7 35 26
68 42 33 17 83 46 112 64 56 37 202 182 232 231 34 58 66 95 76 89 5 -3 21
-26 34 -52z m3653 6 c15 -23 35 -55 46 -72 22 -38 130 -146 145 -146 6 0 28
-10 49 -23 36 -22 48 -28 124 -61 21 -9 42 -25 47 -34 5 -9 12 -60 15 -112 3
-52 10 -144 16 -205 6 -60 14 -171 19 -245 15 -219 30 -373 41 -410 6 -22 10
-303 10 -717 1 -667 1 -681 -19 -715 -20 -33 -96 -78 -134 -78 -9 0 -19 -4
-22 -10 -8 -13 -122 -13 -130 0 -3 6 -26 10 -50 10 -84 0 -186 74 -233 169
-29 60 -36 151 -14 173 18 18 16 78 -3 78 -8 0 -15 -7 -15 -15 0 -9 -7 -18
-15 -22 -19 -7 -44 23 -45 54 0 12 -4 25 -10 28 -5 3 -10 19 -10 35 0 16 -4
31 -9 34 -5 3 -11 20 -15 38 -23 130 -28 178 -22 202 4 16 42 61 89 107 67 64
88 79 113 79 l32 0 7 -80 c7 -84 15 -99 35 -75 8 10 10 30 5 62 -3 27 -9 93
-11 148 -3 55 -10 104 -15 109 -5 6 -9 20 -9 33 0 23 -2 29 -33 91 -9 19 -17
45 -17 58 0 13 -4 24 -10 24 -5 0 -10 13 -10 29 0 17 -4 33 -10 36 -5 3 -10
15 -10 25 0 10 -16 49 -35 86 -19 37 -35 75 -35 85 0 10 -4 21 -10 24 -5 3
-10 15 -10 26 0 18 -14 54 -65 164 -53 117 -71 152 -92 187 -13 21 -23 44 -23
53 0 8 -4 15 -10 15 -5 0 -10 8 -10 19 0 10 -6 24 -14 30 -8 7 -23 29 -34 49
-11 20 -29 54 -41 75 -11 21 -21 42 -21 48 0 5 -9 19 -20 31 -11 12 -20 28
-20 37 0 19 29 51 46 51 28 0 112 55 172 114 63 61 150 183 203 285 29 56 46
74 61 64 5 -2 21 -23 36 -45z"/>
<path d="M7587 17511 c-4 -17 -13 -21 -49 -21 -24 0 -50 6 -57 13 -8 7 -15 8
-17 2 -16 -39 -50 -48 -116 -30 -24 6 -27 4 -30 -21 -3 -26 -8 -30 -43 -34
-39 -5 -40 -6 -37 -41 2 -26 -1 -38 -12 -42 -10 -4 -16 -18 -16 -36 0 -16 -4
-33 -10 -36 -5 -3 -10 -21 -10 -39 0 -19 -6 -39 -14 -45 -20 -17 -56 -87 -56
-109 0 -10 -4 -22 -9 -27 -5 -6 -12 -41 -15 -80 -3 -38 -8 -101 -12 -139 -4
-44 -2 -72 5 -79 6 -6 11 -32 11 -57 0 -26 3 -50 7 -54 9 -8 31 -87 39 -136 3
-19 10 -40 16 -47 7 -8 1 -16 -19 -26 -53 -28 -66 -50 -59 -109 12 -116 18
-153 27 -163 5 -5 9 -19 9 -31 0 -12 11 -36 25 -52 14 -17 25 -34 25 -39 0 -5
12 -20 26 -34 32 -29 63 -94 64 -131 0 -15 5 -30 10 -33 6 -4 10 -66 10 -153
0 -120 -4 -157 -19 -200 -11 -28 -22 -70 -26 -92 -4 -22 -11 -42 -16 -46 -5
-3 -9 -17 -9 -31 0 -28 -14 -76 -36 -129 -15 -35 -149 -174 -168 -174 -7 0
-21 -9 -31 -20 -10 -11 -22 -20 -27 -20 -5 0 -32 -15 -61 -33 -65 -41 -199
-107 -217 -107 -16 0 -78 -19 -102 -31 -10 -5 -101 -9 -202 -9 -113 0 -187 -4
-191 -10 -3 -5 -24 -10 -45 -10 -21 0 -42 -4 -45 -10 -3 -5 -14 -10 -23 -10
-9 0 -48 -16 -87 -35 -38 -19 -77 -35 -86 -35 -8 0 -25 -9 -37 -20 -12 -11
-28 -20 -35 -20 -8 0 -20 -7 -27 -15 -7 -8 -18 -15 -24 -15 -30 0 -117 -109
-166 -207 -27 -57 -50 -107 -50 -113 0 -6 -9 -30 -20 -52 -11 -23 -20 -58 -20
-78 0 -20 -4 -40 -9 -45 -18 -19 -37 -343 -22 -358 6 -6 11 -46 11 -88 0 -43
5 -81 10 -84 6 -3 10 -28 10 -55 0 -27 5 -52 10 -55 16 -10 11 -41 -10 -60
-11 -10 -20 -23 -20 -29 0 -5 -13 -24 -29 -41 -33 -34 -151 -263 -151 -292 0
-11 -3 -23 -7 -27 -11 -11 -33 -79 -33 -104 0 -13 -4 -31 -10 -41 -21 -41 -50
-236 -56 -389 -5 -109 -6 -113 -32 -129 -78 -48 -175 -150 -312 -325 -54 -69
-210 -370 -210 -406 0 -7 -27 -79 -59 -157 -16 -39 -31 -92 -31 -108 0 -10 -4
-25 -9 -35 -4 -9 -14 -33 -21 -52 -28 -80 -42 -115 -60 -153 -11 -23 -20 -46
-20 -51 0 -6 -16 -44 -35 -83 -19 -40 -35 -76 -35 -81 0 -4 -9 -27 -20 -50
-11 -22 -20 -47 -20 -55 0 -7 -4 -17 -9 -23 -10 -10 -50 -116 -59 -154 -3 -14
-14 -40 -24 -58 -10 -18 -18 -39 -18 -47 0 -20 -58 -125 -86 -156 -13 -14 -24
-28 -24 -33 0 -4 -20 -37 -44 -75 -59 -89 -81 -131 -89 -161 -10 -40 -79 -140
-128 -187 -24 -23 -62 -49 -84 -59 -42 -17 -144 -66 -183 -88 -12 -7 -33 -23
-46 -35 -12 -11 -26 -21 -31 -21 -4 0 -33 -23 -64 -50 -144 -130 -190 -168
-209 -174 -27 -9 -44 -59 -32 -91 9 -24 13 -25 94 -25 88 0 181 25 206 55 18
22 48 1 55 -39 8 -40 -5 -69 -76 -163 -28 -37 -55 -78 -59 -90 -5 -11 -13 -24
-19 -27 -12 -8 -58 -102 -67 -139 -3 -15 -10 -30 -15 -33 -5 -3 -9 -16 -9 -29
0 -13 -4 -27 -10 -30 -6 -3 -10 -40 -10 -81 0 -70 2 -75 25 -86 21 -9 32 -8
61 5 19 9 37 17 41 17 3 0 3 -21 0 -47 -7 -60 12 -98 51 -106 38 -8 70 1 77
22 7 23 50 71 64 71 6 0 11 -15 11 -33 0 -18 5 -38 12 -45 16 -16 70 -15 90 1
22 17 79 102 108 162 13 28 39 74 57 103 18 29 33 61 33 72 0 10 4 22 10 25 5
3 10 17 10 30 0 26 37 68 52 59 11 -7 10 -49 -1 -72 -10 -19 -25 -65 -48 -137
-8 -27 -20 -60 -26 -72 -7 -17 -7 -30 1 -49 10 -21 18 -25 50 -22 34 3 41 9
84 73 59 88 88 142 88 164 0 9 4 21 8 27 5 5 21 41 37 79 15 39 32 74 37 79 4
6 8 16 8 23 0 7 8 32 19 56 46 105 69 197 92 357 18 135 21 150 30 156 5 3 9
18 9 33 0 51 54 169 115 250 74 100 105 146 105 158 0 12 41 110 63 148 6 11
24 43 39 71 16 29 35 57 43 64 8 7 15 17 15 23 0 5 21 34 48 62 26 29 79 90
117 136 85 101 197 214 291 292 145 121 165 137 172 137 17 0 234 223 266 274
41 64 96 171 96 186 0 5 11 33 25 62 14 28 25 60 25 69 0 10 4 20 9 23 5 3 11
18 14 33 3 16 11 48 17 73 6 25 15 65 20 90 45 247 46 250 100 305 76 78 144
223 200 425 6 25 18 63 25 85 7 22 19 61 26 88 7 26 17 47 22 47 28 0 177
-267 177 -317 0 -12 5 -25 10 -28 6 -3 10 -21 10 -40 0 -19 5 -37 10 -40 13
-8 14 -607 1 -620 -5 -6 -12 -41 -15 -80 -7 -97 -22 -217 -30 -235 -25 -61
-43 -671 -22 -761 6 -28 3 -45 -13 -79 -12 -24 -21 -52 -21 -61 0 -10 -4 -21
-10 -24 -5 -3 -10 -17 -10 -30 0 -13 -4 -27 -10 -30 -5 -3 -10 -15 -10 -26 0
-11 -6 -30 -14 -42 -8 -12 -29 -67 -47 -122 -17 -55 -42 -124 -55 -153 -13
-29 -24 -63 -24 -77 0 -13 -4 -27 -10 -30 -5 -3 -10 -17 -10 -30 0 -13 -4 -27
-10 -30 -5 -3 -10 -19 -10 -35 0 -16 -4 -32 -10 -35 -5 -3 -10 -17 -10 -30 0
-13 -4 -27 -10 -30 -5 -3 -10 -21 -10 -38 -1 -18 -7 -43 -15 -57 -8 -14 -14
-39 -15 -57 0 -17 -4 -35 -10 -38 -5 -3 -10 -28 -10 -54 0 -26 -4 -51 -9 -57
-5 -5 -12 -38 -15 -74 -13 -149 -23 -236 -29 -250 -17 -40 -46 -384 -53 -645
-2 -93 -9 -179 -15 -191 -7 -13 -8 -54 -4 -110 3 -49 8 -154 11 -234 3 -80 9
-149 15 -154 5 -6 9 -51 9 -100 0 -56 6 -110 16 -141 29 -93 34 -111 34 -138
0 -14 5 -29 10 -32 6 -3 10 -21 10 -40 0 -19 5 -37 10 -40 6 -3 10 -15 10 -26
0 -10 4 -27 9 -37 23 -46 56 -159 83 -287 15 -69 22 -404 9 -430 -6 -11 -13
-63 -15 -115 -3 -52 -10 -140 -16 -195 -5 -55 -12 -131 -15 -170 -6 -69 -11
-85 -54 -173 -11 -24 -21 -58 -21 -76 0 -18 -4 -36 -9 -42 -5 -5 -12 -40 -15
-79 -2 -38 -12 -115 -21 -170 -9 -55 -18 -122 -21 -150 -3 -27 -9 -59 -14 -70
-5 -11 -11 -39 -14 -63 -13 -96 -19 -122 -27 -128 -5 -3 -9 -21 -9 -41 0 -19
-7 -58 -16 -87 -31 -98 -34 -113 -34 -159 0 -25 -4 -49 -10 -52 -5 -3 -10 -37
-10 -74 0 -37 -5 -72 -10 -77 -7 -7 -9 -76 -6 -200 4 -199 12 -283 27 -299 5
-5 9 -26 9 -48 0 -21 5 -48 12 -60 6 -12 11 -37 10 -55 -1 -19 5 -47 13 -63 8
-15 15 -46 15 -68 0 -22 5 -43 10 -46 6 -3 10 -28 10 -55 0 -27 5 -52 10 -55
6 -3 10 -26 10 -50 0 -24 5 -47 10 -50 6 -3 10 -30 10 -59 0 -30 7 -70 15 -89
8 -20 15 -51 15 -70 0 -18 4 -37 9 -42 5 -6 12 -55 15 -110 5 -118 15 -183 27
-191 5 -3 9 -45 9 -94 0 -70 -4 -97 -21 -132 -21 -41 -30 -62 -59 -133 -7 -16
-16 -38 -21 -47 -5 -10 -9 -24 -9 -31 0 -7 -16 -44 -35 -83 -19 -38 -35 -74
-35 -81 0 -7 -9 -28 -20 -48 -11 -20 -20 -51 -20 -70 0 -19 -4 -35 -10 -35 -5
0 -10 -9 -10 -19 0 -11 -4 -23 -10 -26 -6 -3 -10 -13 -10 -22 0 -25 -98 -218
-120 -238 -11 -10 -20 -23 -20 -30 0 -6 -13 -24 -30 -40 -16 -16 -30 -33 -30
-38 0 -5 -11 -22 -25 -39 -14 -16 -25 -36 -25 -43 0 -7 -4 -15 -10 -17 -6 -2
-11 -47 -11 -103 -2 -96 -1 -100 24 -119 33 -25 92 -47 140 -53 20 -3 40 -9
43 -14 3 -5 16 -9 29 -9 13 0 27 -4 30 -10 3 -5 23 -10 44 -10 20 0 41 -4 47
-9 19 -19 301 -38 317 -22 6 6 27 11 47 11 31 0 44 9 96 63 67 69 104 123 104
155 0 11 4 23 9 26 8 5 15 47 31 191 12 101 17 120 66 222 24 50 44 100 44
110 0 10 5 24 11 30 13 13 6 218 -9 283 -6 25 -16 65 -22 90 -6 25 -15 77 -20
115 -5 39 -12 86 -16 105 -19 90 -18 428 1 550 17 111 75 277 146 423 11 22
19 47 19 57 0 11 4 21 9 24 4 3 20 40 35 83 15 43 31 86 36 95 6 10 10 29 10
42 0 14 4 28 10 31 6 3 10 15 10 26 0 10 4 27 10 37 11 18 47 142 60 207 5 22
13 58 19 80 65 256 79 339 92 520 6 77 15 187 20 245 6 58 13 224 17 370 8
287 3 258 73 417 11 24 19 49 19 56 0 7 4 17 9 23 15 16 61 148 61 175 0 14 4
29 9 35 12 12 21 96 30 299 7 161 11 187 41 260 32 78 47 121 64 185 8 30 24
80 34 110 11 30 25 75 31 100 7 25 21 74 31 110 67 230 89 351 109 590 9 108
25 213 35 240 3 8 11 44 16 80 6 36 15 90 20 120 42 245 51 328 56 555 6 209
-1 270 -37 352 -29 65 -27 67 39 57 31 -4 112 -9 179 -9 67 0 125 -3 128 -7 5
-5 -12 -59 -36 -113 -5 -11 -11 -65 -13 -120 -3 -55 -8 -133 -12 -174 -4 -47
-2 -77 5 -84 6 -6 11 -50 11 -102 0 -50 4 -95 9 -101 5 -5 12 -34 15 -64 8
-89 21 -164 30 -179 5 -8 11 -39 13 -70 3 -30 9 -63 14 -72 5 -10 9 -35 9 -56
0 -22 4 -43 9 -49 10 -10 18 -63 30 -204 13 -151 31 -283 41 -308 6 -13 10
-45 10 -72 0 -27 5 -52 10 -55 6 -3 10 -18 10 -32 0 -27 16 -84 31 -115 5 -10
9 -25 9 -33 0 -9 11 -50 24 -93 14 -42 30 -97 36 -122 7 -25 16 -54 20 -65 4
-11 19 -56 33 -100 30 -94 47 -142 58 -170 5 -11 11 -67 13 -125 10 -201 30
-364 54 -435 5 -16 15 -50 22 -75 19 -68 30 -100 56 -158 13 -29 24 -57 24
-62 0 -6 9 -29 20 -53 15 -33 20 -72 24 -182 9 -247 60 -904 73 -935 3 -8 10
-51 14 -95 13 -127 20 -169 29 -190 5 -11 11 -35 14 -52 3 -18 9 -48 12 -65 3
-18 12 -47 20 -65 8 -17 14 -41 14 -52 0 -12 4 -29 9 -39 5 -9 14 -37 21 -62
7 -25 16 -53 21 -62 5 -10 9 -23 9 -28 0 -6 20 -54 45 -106 25 -51 45 -98 45
-102 0 -5 16 -41 35 -81 19 -39 35 -75 35 -79 0 -5 9 -27 20 -50 11 -22 20
-50 20 -61 0 -11 4 -22 9 -25 5 -3 11 -18 14 -33 3 -16 13 -57 22 -93 34 -128
57 -511 36 -580 -6 -19 -12 -57 -14 -85 -3 -46 -13 -90 -38 -171 -5 -17 -9
-40 -9 -52 0 -11 -4 -24 -10 -27 -5 -3 -10 -28 -10 -55 0 -27 -5 -52 -10 -55
-14 -8 -13 -120 1 -164 12 -38 31 -78 82 -176 27 -50 33 -76 39 -155 8 -116
16 -165 34 -198 7 -14 12 -28 10 -31 -2 -3 15 -42 38 -86 44 -85 97 -134 147
-135 14 0 30 -5 36 -11 12 -12 160 -6 268 11 39 6 136 16 217 23 160 13 199
28 206 78 2 13 8 28 13 34 5 5 9 31 9 58 0 40 -7 59 -44 115 -24 37 -53 76
-64 88 -18 19 -63 83 -88 125 -6 11 -17 27 -25 36 -38 46 -95 175 -109 248
-13 67 -41 159 -51 170 -5 5 -9 18 -9 30 0 12 -7 30 -15 41 -8 10 -15 27 -15
37 0 9 -4 25 -9 35 -5 9 -16 42 -26 72 -18 57 -26 76 -68 172 -23 51 -25 68
-22 145 2 49 9 104 16 123 6 19 15 52 20 73 5 20 13 54 18 75 25 102 43 182
52 232 96 528 113 691 106 1035 -3 138 -10 277 -15 310 -20 118 -31 181 -47
255 -8 41 -20 102 -25 135 -19 112 -28 160 -65 340 -21 99 -42 203 -47 230
-10 53 -23 111 -34 160 -4 17 -11 36 -17 43 -6 7 -9 41 -8 75 2 57 -18 243
-39 362 -32 180 -29 368 9 570 5 28 14 77 20 109 6 33 15 64 21 70 5 5 10 22
10 37 0 15 4 30 9 33 5 3 11 20 14 38 3 18 17 74 31 123 33 114 45 190 78 495
15 140 15 455 0 665 -31 443 -32 450 -67 670 -16 100 -28 161 -45 245 -5 25
-14 70 -19 100 -6 30 -22 96 -37 145 -14 50 -28 107 -31 128 -3 20 -9 40 -14
43 -5 3 -9 15 -9 26 0 23 -3 33 -53 183 -19 55 -41 123 -50 150 -8 28 -40 121
-71 209 l-55 159 11 136 c8 101 8 191 0 346 -12 211 -18 265 -48 450 -29 176
-37 285 -37 510 -1 241 7 308 51 432 33 93 129 269 152 278 20 8 37 -18 45
-70 3 -25 10 -47 16 -50 5 -4 9 -18 9 -32 0 -27 16 -84 31 -115 5 -10 9 -27 9
-37 0 -11 5 -23 10 -26 6 -3 10 -14 10 -23 0 -9 7 -30 15 -46 8 -15 15 -34 15
-40 0 -35 92 -179 151 -237 33 -32 38 -44 44 -103 4 -36 11 -69 16 -72 5 -3 9
-27 9 -54 0 -27 5 -52 10 -55 6 -3 10 -21 10 -40 0 -19 5 -37 10 -40 6 -3 10
-18 10 -33 0 -15 9 -52 21 -82 11 -30 26 -73 34 -95 19 -55 97 -204 136 -262
35 -52 213 -233 229 -233 5 0 33 -20 62 -45 29 -24 82 -68 117 -97 81 -67 250
-236 318 -319 29 -35 72 -87 95 -115 24 -28 59 -73 78 -100 47 -66 130 -234
130 -262 0 -12 9 -40 20 -62 11 -22 20 -45 20 -53 0 -7 11 -28 25 -47 28 -39
89 -161 110 -224 8 -24 20 -72 25 -107 6 -35 15 -86 20 -114 6 -27 12 -70 15
-95 12 -95 63 -246 130 -385 29 -60 74 -155 100 -209 75 -160 110 -193 160
-154 33 25 32 42 -9 157 -19 53 -38 113 -41 134 -7 33 -5 37 14 37 12 0 23 -6
25 -12 40 -142 131 -324 194 -388 58 -58 89 -64 142 -25 l33 24 39 -34 c44
-40 39 -39 83 -21 48 21 54 49 29 149 -5 23 -3 27 14 27 11 0 25 -6 31 -14 7
-8 24 -17 39 -21 20 -5 31 -2 44 15 27 33 22 95 -12 175 -5 11 -16 41 -24 68
-25 75 -85 189 -121 227 -47 50 -87 132 -83 171 5 48 27 57 90 37 77 -24 153
-38 204 -38 39 0 46 3 55 27 15 40 3 70 -34 89 -17 9 -52 37 -77 63 -84 87
-159 138 -350 241 -229 124 -217 112 -316 295 -14 28 -41 73 -60 100 -37 57
-82 152 -126 270 -67 177 -120 324 -143 391 -13 39 -33 90 -44 112 -12 23 -31
67 -42 99 -12 32 -25 62 -30 68 -5 5 -9 15 -9 22 0 8 -8 31 -18 51 -10 20 -39
105 -66 187 -107 330 -216 568 -313 678 -18 20 -33 41 -33 45 0 8 -169 183
-242 249 l-46 42 -6 108 c-8 131 -35 302 -67 433 -16 61 -80 231 -94 250 -7 8
-28 44 -47 80 -19 36 -51 87 -72 114 -41 54 -42 65 -18 221 36 226 38 330 11
475 -43 232 -140 428 -252 514 -52 40 -222 126 -247 126 -9 0 -25 7 -36 15
-10 8 -27 15 -37 15 -9 0 -25 4 -35 9 -50 25 -102 31 -280 31 -116 0 -193 4
-197 10 -3 6 -15 10 -25 10 -10 0 -49 16 -87 35 -37 19 -73 35 -78 35 -14 0
-111 49 -162 83 -24 15 -46 27 -51 27 -5 0 -17 9 -27 20 -10 11 -23 20 -29 20
-14 0 -83 71 -114 116 -11 16 -27 48 -35 70 -14 37 -21 62 -45 159 -6 22 -20
73 -32 113 -12 40 -19 81 -15 90 4 9 11 55 16 102 25 230 26 232 120 317 63
57 76 95 84 244 l8 125 -32 36 c-30 35 -40 71 -22 82 4 3 11 36 15 73 3 38 10
91 14 118 12 79 -9 318 -29 331 -5 3 -9 12 -9 21 0 8 -14 43 -31 77 -53 105
-258 296 -318 296 -11 0 -23 5 -26 10 -3 6 -14 10 -24 10 -9 0 -36 9 -59 20
-22 11 -52 20 -66 20 -14 0 -37 5 -53 11 -15 7 -50 16 -78 21 -27 5 -72 13
-100 19 -112 22 -112 22 -118 0z m78 -62 c11 1 55 4 97 7 59 4 85 2 109 -10
18 -9 45 -16 60 -16 15 0 31 -4 34 -10 3 -5 15 -10 26 -10 19 0 28 -4 76 -28
13 -7 29 -12 38 -12 50 0 249 -190 294 -282 17 -34 31 -69 31 -79 0 -10 5 -21
10 -24 6 -3 10 -16 10 -29 0 -12 5 -27 11 -33 14 -14 14 -342 0 -356 -6 -6
-11 -34 -11 -62 0 -94 -55 -116 -58 -24 -1 23 -6 47 -11 53 -6 6 -12 68 -14
136 -8 201 -29 303 -83 396 -40 68 -100 109 -139 93 -18 -7 -18 -8 -2 -8 40
-2 126 -68 127 -98 0 -7 11 -36 24 -65 26 -56 34 -92 42 -173 3 -27 9 -59 14
-70 5 -11 12 -63 14 -115 6 -131 19 -227 33 -241 8 -8 17 -8 30 0 15 7 25 6
41 -5 21 -14 22 -23 22 -145 0 -151 1 -149 -101 -254 l-69 -70 -17 -105 -18
-105 -68 -72 c-63 -67 -165 -133 -203 -133 -8 0 -22 -4 -32 -9 -64 -33 -228
-47 -302 -25 -146 43 -189 59 -240 92 -103 67 -125 97 -133 187 -5 51 -11 84
-27 145 -5 19 -12 48 -15 64 -3 15 -28 51 -54 80 -61 63 -101 170 -101 264 0
68 15 87 57 71 33 -12 53 -1 53 30 0 15 5 32 11 38 7 7 8 43 5 104 -20 319
-23 291 33 409 31 67 34 70 96 104 39 22 53 26 67 17 10 -6 30 -11 46 -11 15
0 33 -5 39 -11 17 -17 316 6 398 31 22 6 60 15 85 19 25 4 54 12 65 19 18 10
16 11 -17 12 -20 0 -40 -4 -43 -10 -3 -5 -24 -10 -45 -10 -21 0 -42 -4 -45
-10 -3 -5 -33 -10 -65 -10 -32 0 -62 -4 -65 -10 -8 -12 -292 -14 -299 -1 -3 4
-22 11 -42 14 -42 7 -107 -18 -138 -52 -42 -46 -96 -163 -96 -206 0 -19 -5
-46 -12 -60 -8 -19 -8 -31 0 -48 6 -12 13 -56 16 -97 3 -41 8 -91 12 -112 5
-30 3 -38 -14 -47 -26 -14 -27 -11 -53 86 -29 107 -35 177 -28 323 8 153 18
197 58 261 17 28 31 54 31 58 0 4 15 22 34 40 30 29 33 36 23 54 -9 15 -9 21
1 24 7 3 26 16 41 29 16 13 37 24 47 24 26 1 54 24 54 44 0 18 35 23 45 6 3
-5 22 -10 42 -10 26 0 43 7 60 26 19 21 30 25 51 19 15 -4 36 -6 47 -6z m-295
-1884 c19 -19 39 -35 45 -35 7 0 20 -9 30 -20 10 -11 28 -20 41 -20 13 0 26
-4 29 -10 3 -5 20 -10 36 -10 17 0 42 -6 58 -14 40 -21 203 -30 281 -16 105
18 199 47 223 68 9 8 26 20 36 26 10 6 35 24 55 40 42 33 73 30 61 -7 -7 -21
-19 -88 -31 -170 -4 -20 -10 -40 -15 -43 -5 -3 -9 -12 -9 -21 0 -8 -6 -29 -14
-46 -7 -18 -19 -52 -26 -77 -7 -25 -16 -54 -20 -65 -5 -11 -14 -38 -21 -60 -7
-22 -27 -71 -46 -109 -18 -38 -33 -76 -33 -84 0 -9 -6 -23 -14 -31 -23 -26
-71 -123 -85 -171 -7 -25 -17 -55 -22 -68 -11 -29 -12 -62 -1 -62 5 0 26 8 48
19 160 76 288 119 429 143 84 15 277 16 282 2 2 -6 -22 -28 -54 -49 -56 -37
-94 -50 -176 -62 -20 -3 -40 -9 -43 -14 -3 -5 -13 -9 -23 -9 -23 0 -75 -26
-91 -45 -7 -8 -16 -15 -20 -15 -16 0 -175 -113 -229 -162 -147 -136 -168 -179
-183 -368 -5 -69 -14 -168 -20 -220 -9 -93 -14 -376 -7 -435 l4 -30 -65 0 -65
0 4 35 c8 79 4 332 -7 435 -7 61 -15 160 -18 220 -4 61 -10 115 -14 120 -3 6
-15 32 -25 60 -26 71 -49 105 -95 145 -23 19 -60 51 -83 71 -91 78 -271 189
-308 189 -10 0 -21 5 -24 10 -3 6 -19 10 -35 10 -16 0 -32 5 -35 10 -3 6 -20
10 -36 10 -55 0 -156 67 -145 96 5 13 21 15 103 11 113 -6 224 -22 252 -37 11
-5 31 -10 45 -10 14 0 28 -4 31 -10 3 -5 15 -10 26 -10 10 0 28 -4 39 -10 11
-5 29 -14 40 -20 11 -5 27 -10 35 -10 8 0 33 -11 55 -25 22 -14 46 -25 53 -25
7 0 18 -5 24 -11 20 -20 46 -2 40 29 -10 53 -24 98 -44 142 -11 25 -24 55 -27
67 -4 11 -13 27 -21 33 -8 7 -15 19 -15 27 0 7 -15 46 -33 86 -19 40 -40 88
-47 107 -7 19 -17 39 -22 44 -4 6 -8 20 -8 32 0 13 -4 26 -10 29 -5 3 -10 17
-10 31 0 13 -4 32 -9 42 -19 40 -62 189 -61 219 0 17 -4 35 -10 38 -11 7 -14
88 -3 98 11 11 16 8 53 -28z m-59 -167 c6 -24 15 -51 20 -60 5 -10 9 -28 9
-40 0 -13 7 -36 15 -52 8 -15 15 -35 15 -42 0 -8 4 -22 9 -32 5 -9 15 -37 22
-62 7 -25 23 -70 37 -100 14 -30 28 -64 32 -75 4 -11 21 -49 39 -84 17 -35 31
-69 31 -76 0 -7 7 -18 15 -25 8 -7 15 -23 15 -36 0 -12 5 -26 10 -29 13 -8 13
-65 0 -65 -5 0 -38 14 -72 30 -34 17 -69 30 -79 30 -10 0 -21 5 -24 10 -3 6
-19 10 -35 10 -16 0 -32 5 -35 10 -3 6 -16 10 -29 10 -12 0 -27 5 -33 11 -16
16 -115 31 -233 35 -58 3 -114 9 -125 14 -11 5 -60 11 -110 12 -83 3 -109 13
-74 29 138 64 181 86 231 120 33 21 63 39 66 39 4 0 39 33 78 73 85 86 104
124 133 257 4 19 13 45 19 57 7 12 12 33 12 47 0 43 28 31 41 -16z m983 30 c2
-7 9 -33 16 -58 6 -25 16 -53 21 -62 5 -10 9 -31 9 -48 0 -17 4 -38 9 -48 5
-9 15 -33 22 -52 13 -35 144 -180 162 -180 6 0 18 -6 26 -14 9 -8 48 -31 88
-51 40 -20 78 -43 84 -51 6 -8 21 -14 33 -14 24 0 71 -42 59 -53 -3 -4 -43 -7
-88 -7 -44 0 -85 -4 -90 -9 -6 -6 -59 -12 -120 -14 -151 -7 -281 -34 -367 -78
-10 -5 -23 -9 -31 -9 -7 0 -41 -14 -75 -31 -114 -55 -115 -37 -6 186 40 83 82
174 94 204 30 78 96 281 103 316 13 69 41 109 51 73z m-1625 -683 c111 -6 127
-9 156 -31 17 -13 36 -24 40 -24 14 0 55 -42 55 -56 0 -10 -30 -27 -140 -77
-14 -6 -38 -21 -54 -32 -48 -34 -176 -158 -176 -170 0 -7 -10 -20 -21 -31 -21
-18 -54 -64 -92 -126 -9 -16 -36 -55 -60 -86 -23 -31 -46 -64 -52 -73 -5 -9
-30 -48 -55 -86 -25 -37 -51 -77 -58 -88 -6 -11 -29 -47 -50 -79 -20 -33 -50
-74 -66 -93 -25 -30 -33 -33 -82 -33 -45 0 -62 -6 -111 -38 -32 -22 -71 -47
-87 -58 -51 -33 -73 -48 -120 -82 -52 -35 -100 -62 -114 -62 -23 0 -45 87 -58
230 -3 30 -9 64 -15 75 -6 13 -8 75 -6 155 8 229 30 319 123 515 53 111 135
182 294 256 105 49 220 89 255 89 17 0 37 5 45 10 14 10 160 8 449 -5z m2711
-2 c60 -11 119 -31 134 -44 6 -5 18 -9 28 -9 10 0 28 -5 41 -12 45 -23 57 -28
68 -28 7 0 36 -16 65 -35 29 -19 56 -35 60 -35 13 0 134 -123 134 -136 0 -6 9
-19 20 -29 11 -10 20 -24 20 -32 0 -7 4 -21 9 -31 37 -74 60 -132 65 -157 3
-16 10 -52 16 -80 27 -117 27 -332 1 -505 -32 -209 -30 -205 -103 -166 -29 16
-62 36 -73 45 -11 9 -32 23 -47 31 -16 7 -28 17 -28 22 0 4 -6 8 -13 8 -7 0
-32 16 -54 35 -23 19 -45 35 -49 35 -4 0 -18 10 -30 21 -22 21 -42 23 -123 16
-19 -2 -34 11 -67 53 -24 30 -43 60 -44 66 0 6 -9 19 -20 29 -11 10 -20 22
-20 27 0 6 -13 28 -28 51 -16 23 -46 69 -67 102 -21 33 -48 70 -58 82 -11 12
-25 31 -31 41 -12 21 -109 163 -152 222 -49 69 -159 170 -232 215 -41 25 -79
45 -85 45 -22 0 -87 34 -87 46 0 13 58 60 107 87 25 13 58 17 130 18 54 0 107
4 118 9 25 11 322 6 395 -7z m-2255 -174 c5 -5 17 -9 26 -9 21 0 117 -48 143
-72 11 -10 25 -18 31 -18 7 0 20 -9 30 -20 10 -11 23 -20 28 -20 6 0 36 -24
68 -52 31 -29 71 -63 88 -76 34 -26 91 -105 91 -128 0 -8 4 -22 9 -32 26 -49
30 -91 57 -492 3 -52 10 -103 15 -112 12 -23 11 -95 -1 -103 -5 -3 -10 -17
-10 -30 0 -29 -55 -95 -79 -95 -10 0 -36 -9 -59 -20 -22 -11 -55 -20 -72 -20
-17 0 -40 -5 -51 -10 -27 -15 -137 -31 -244 -37 -49 -2 -94 -9 -99 -14 -13
-12 -233 -12 -241 1 -3 6 -19 10 -35 10 -16 0 -54 11 -84 25 -30 14 -58 25
-63 25 -7 0 -159 70 -198 92 -10 6 -43 23 -72 38 -29 15 -68 41 -88 59 -20 17
-39 31 -43 31 -4 0 -32 23 -62 50 -30 27 -63 52 -72 55 -19 7 -33 58 -22 77
13 23 293 440 364 543 94 136 195 242 275 289 36 21 68 42 71 47 3 5 15 9 28
9 12 0 26 4 32 9 20 20 217 20 239 0z m1602 -25 c37 -20 86 -49 108 -64 55
-39 186 -180 235 -255 42 -64 132 -195 159 -230 17 -22 35 -49 40 -60 5 -12
16 -27 25 -34 9 -7 16 -18 16 -23 0 -5 32 -59 71 -120 63 -98 70 -113 60 -134
-6 -13 -16 -24 -22 -24 -7 0 -33 -18 -58 -40 -141 -124 -165 -140 -312 -212
-85 -42 -172 -82 -194 -89 -22 -7 -46 -17 -53 -22 -37 -28 -295 -49 -336 -28
-12 6 -55 12 -96 15 -105 7 -200 21 -233 34 -16 7 -39 12 -53 12 -14 0 -44 9
-66 20 -23 11 -47 20 -54 20 -46 0 -104 64 -104 115 0 17 -5 36 -10 41 -8 8
-8 19 0 38 5 15 10 67 10 115 0 48 5 101 10 117 6 16 14 99 20 184 5 85 12
171 15 190 13 72 52 136 116 191 34 30 81 71 104 92 23 20 47 37 52 37 5 0 18
9 28 20 10 11 24 20 30 20 7 0 19 7 26 16 8 9 43 30 79 46 36 16 72 34 80 38
8 5 65 9 127 9 109 1 113 0 180 -35z m-2753 -922 c3 -5 27 -10 53 -11 39 -1
53 -7 83 -36 20 -19 40 -35 46 -35 5 0 31 -22 58 -49 l48 -48 -6 -79 c-4 -44
-9 -128 -12 -189 -3 -60 -9 -114 -15 -119 -12 -13 -12 -63 1 -71 12 -8 13 -40
1 -63 -5 -9 -14 -37 -21 -62 -6 -25 -16 -58 -22 -75 -6 -16 -12 -43 -15 -60
-2 -16 -8 -39 -13 -50 -4 -11 -13 -40 -20 -65 -7 -25 -16 -54 -20 -65 -4 -11
-13 -38 -19 -60 -27 -89 -94 -205 -158 -275 -36 -38 -70 -70 -76 -70 -7 0 -43
-16 -81 -35 -37 -19 -73 -35 -78 -35 -5 0 -28 -9 -50 -20 -23 -11 -47 -20 -53
-20 -7 0 -44 -16 -84 -35 -39 -19 -76 -35 -81 -35 -5 0 -25 -9 -45 -20 -40
-23 -88 -26 -102 -7 -6 6 -15 48 -22 92 -6 44 -16 116 -22 160 -19 128 -16
424 5 530 9 50 21 113 26 140 22 125 37 168 112 320 67 135 114 195 153 196
16 0 42 8 57 17 14 9 53 32 85 51 32 18 68 42 80 54 12 11 31 25 41 31 47 27
99 65 116 85 20 22 41 27 50 13z m3662 -13 c10 -12 37 -33 58 -48 47 -31 69
-46 126 -86 23 -16 59 -39 79 -50 20 -11 49 -28 64 -37 14 -10 39 -18 54 -18
26 0 73 -34 73 -53 0 -6 7 -18 16 -28 25 -28 98 -165 127 -239 5 -14 13 -33
18 -42 5 -10 9 -27 9 -37 0 -11 4 -30 9 -43 5 -13 15 -57 21 -98 7 -41 16 -91
21 -111 23 -93 41 -338 28 -374 -4 -11 -15 -92 -24 -180 -20 -196 -31 -239
-64 -243 -13 -2 -33 1 -45 6 -12 5 -61 27 -111 47 -49 21 -109 46 -132 56 -24
11 -47 19 -51 19 -5 0 -41 16 -81 35 -39 19 -77 35 -84 35 -31 0 -167 113
-167 140 0 5 -7 15 -15 23 -33 33 -135 283 -135 332 0 8 -4 23 -9 33 -9 16
-16 43 -42 145 -5 23 -17 65 -24 92 -8 28 -17 106 -20 175 -5 122 -16 255 -30
355 l-7 50 48 35 c115 83 161 110 184 110 14 0 32 5 40 10 24 15 45 12 66 -11z
m-3308 -208 c9 -5 34 -17 55 -27 20 -10 37 -21 37 -24 0 -5 80 -47 115 -60 11
-4 54 -23 97 -43 42 -21 85 -37 96 -37 12 0 24 -4 27 -10 3 -5 17 -10 30 -10
13 0 27 -4 30 -10 3 -5 30 -10 58 -10 76 0 82 -6 67 -71 -22 -96 -32 -191 -39
-364 -3 -93 -10 -178 -15 -188 -5 -11 -4 -27 3 -40 9 -16 10 -68 6 -182 -9
-253 -8 -532 3 -625 14 -127 33 -234 43 -244 5 -6 9 -25 9 -42 0 -18 5 -36 10
-39 6 -3 10 -24 10 -45 0 -21 4 -41 9 -44 5 -3 12 -25 15 -48 16 -110 25 -170
35 -258 7 -52 15 -102 18 -110 4 -8 10 -46 14 -85 8 -68 16 -118 39 -235 6
-30 15 -77 20 -105 19 -103 35 -174 43 -181 4 -4 7 -22 7 -40 0 -18 5 -36 10
-39 6 -3 10 -19 10 -35 0 -16 5 -32 10 -35 6 -3 10 -16 10 -28 0 -12 12 -52
26 -90 38 -98 10 -117 -51 -36 -16 22 -45 57 -62 78 -18 21 -33 42 -33 47 0 5
-13 23 -28 39 -16 17 -33 38 -38 48 -15 26 -152 165 -194 196 -19 14 -54 41
-77 61 -23 19 -71 60 -107 90 -133 111 -191 160 -212 180 -26 25 -34 95 -34
315 1 150 6 225 32 450 5 50 12 122 14 160 3 39 9 79 14 90 13 29 21 145 26
419 3 158 1 243 -6 250 -5 5 -10 31 -10 57 0 26 -4 51 -10 54 -5 3 -10 19 -10
36 0 16 -4 37 -9 47 -6 9 -25 49 -44 87 -39 79 -65 126 -101 184 -15 22 -26
49 -26 59 0 10 -5 23 -11 29 -12 12 -11 34 10 303 8 104 22 170 36 170 3 0 13
-4 23 -9z m2949 1 c12 -8 21 -108 28 -342 l5 -145 -34 -60 c-130 -226 -172
-340 -188 -500 -19 -186 -8 -565 21 -715 6 -30 13 -73 16 -95 3 -22 10 -74 17
-115 41 -282 40 -724 -2 -738 -7 -3 -32 -21 -54 -42 -23 -20 -50 -43 -62 -51
-20 -13 -55 -42 -142 -115 -20 -17 -64 -51 -97 -76 -60 -46 -160 -145 -186
-184 -14 -20 -61 -78 -125 -153 -17 -20 -49 -62 -72 -93 -23 -31 -46 -59 -52
-63 -5 -3 -26 -32 -47 -63 -69 -105 -170 -232 -184 -232 -15 0 -10 45 11 88
11 22 20 46 20 51 0 6 12 37 27 68 14 32 29 67 33 78 4 11 12 31 18 45 15 33
68 203 82 260 6 25 16 63 21 85 10 39 17 74 38 185 5 30 22 114 36 185 24 120
32 173 55 390 10 94 22 155 45 245 10 36 21 82 26 103 5 20 14 56 19 80 29
116 34 221 34 757 1 533 -3 621 -32 840 -5 39 -5 70 0 77 5 6 44 14 86 16 132
8 211 35 442 152 172 87 178 89 197 77z m-1357 -112 c11 -5 29 -14 40 -20 11
-5 28 -10 37 -10 10 0 31 -7 46 -15 15 -8 53 -19 85 -24 31 -6 71 -13 87 -17
17 -3 66 -10 110 -15 198 -21 189 -17 199 -94 4 -27 11 -86 17 -130 6 -44 13
-158 15 -254 6 -202 5 -203 -95 -241 -31 -12 -65 -26 -77 -32 -32 -15 -271 1
-319 22 -30 13 -80 21 -175 28 l-85 7 -7 175 c-5 96 -7 272 -5 390 l2 215 42
6 c24 3 46 8 49 12 9 9 11 9 34 -3z m-182 -375 c1 -198 0 -370 -3 -381 -7 -30
-26 -37 -130 -45 -121 -11 -174 -19 -181 -30 -3 -5 -23 -9 -45 -9 -22 0 -48
-4 -58 -10 -46 -24 -208 -12 -273 21 -10 5 -26 9 -35 9 -10 0 -36 16 -58 34
l-40 34 1 78 c1 73 23 318 42 460 10 84 19 91 110 98 212 14 384 44 492 84 37
14 75 20 115 19 l60 -2 3 -360z m-759 -467 c20 -6 55 -19 78 -29 95 -42 160
-41 343 2 110 25 161 32 245 33 l90 1 6 -70 c11 -121 2 -555 -12 -571 -40 -48
-130 -64 -409 -71 -186 -4 -210 -1 -305 34 -62 24 -89 37 -97 48 -9 12 -11
596 -2 619 7 19 16 20 63 4z m1001 -7 c30 -7 75 -16 100 -20 25 -5 63 -14 85
-20 49 -13 148 -15 195 -3 19 5 66 21 103 36 37 15 75 25 82 22 13 -5 15 -54
15 -319 0 -287 -2 -315 -17 -329 -10 -8 -56 -27 -103 -42 -83 -27 -89 -27
-270 -22 -189 5 -321 16 -353 30 -9 5 -20 20 -24 35 -9 37 -10 590 0 624 8 28
9 29 70 24 34 -3 87 -10 117 -16z m-2782 -117 c2 -10 7 -28 12 -39 5 -11 11
-51 13 -90 12 -187 39 -309 74 -322 15 -6 96 26 241 93 40 19 78 34 83 34 6 0
38 13 72 29 137 64 200 76 181 33 -4 -9 -11 -44 -15 -77 -17 -124 -21 -145
-30 -151 -5 -3 -9 -16 -9 -30 0 -28 -38 -147 -71 -221 -51 -118 -63 -141 -97
-193 -51 -79 -95 -127 -203 -221 -96 -85 -152 -129 -165 -129 -9 0 -127 -107
-217 -197 -57 -56 -88 -92 -237 -265 -84 -98 -200 -279 -200 -313 0 -21 -82
-177 -96 -182 -8 -3 -45 21 -83 53 -37 33 -106 83 -152 112 -46 29 -95 61
-107 71 l-24 18 45 89 c24 49 54 116 66 149 13 33 29 76 36 95 7 19 23 62 35
95 12 33 37 93 56 133 19 40 34 77 34 83 0 5 9 31 21 57 62 141 98 233 118
302 39 138 78 250 92 265 5 5 9 16 9 25 0 9 16 49 35 89 19 39 35 77 36 84 0
6 8 24 17 39 9 15 41 65 70 112 28 47 72 106 97 133 24 26 45 52 45 57 0 15
194 206 205 203 5 -2 11 -12 13 -23z m5284 -77 c46 -45 101 -105 123 -132 22
-28 51 -63 65 -78 14 -16 35 -46 47 -69 12 -22 28 -47 35 -56 8 -9 36 -62 62
-117 27 -55 52 -108 57 -117 5 -10 9 -22 9 -28 0 -6 8 -29 18 -53 11 -23 25
-60 32 -82 7 -22 18 -53 25 -70 19 -48 35 -100 35 -117 0 -9 14 -49 30 -89 17
-41 38 -94 47 -119 8 -25 19 -49 23 -55 4 -5 20 -46 35 -90 15 -44 36 -98 46
-119 11 -22 19 -43 19 -48 0 -5 9 -27 19 -51 10 -23 33 -84 50 -135 31 -91 84
-231 102 -264 12 -23 -6 -52 -39 -68 -35 -16 -168 -116 -236 -178 -39 -35 -62
-50 -69 -43 -5 5 -25 54 -43 108 -19 54 -48 125 -66 158 -29 55 -93 153 -107
165 -3 3 -19 23 -36 45 -16 22 -39 50 -52 62 -12 13 -35 42 -52 65 -43 63
-295 305 -376 362 -120 85 -281 229 -325 291 -76 106 -189 366 -222 510 -29
124 -42 235 -31 246 11 11 57 -4 160 -52 34 -16 66 -29 72 -29 5 0 32 -11 59
-25 28 -14 54 -25 59 -25 5 0 37 -13 71 -30 34 -16 68 -30 75 -30 7 0 22 -7
34 -15 20 -14 23 -13 47 15 14 17 28 47 31 68 3 20 10 61 15 91 6 30 10 73 10
96 0 37 15 137 26 173 8 26 37 9 116 -71z m-3487 -503 c28 -9 58 -20 67 -25
26 -13 479 -11 535 2 27 7 65 18 86 26 21 7 43 11 48 8 5 -4 9 -125 9 -289 0
-257 -2 -284 -17 -298 -25 -21 -50 -29 -118 -38 -50 -6 -80 -2 -180 23 -66 16
-137 31 -158 34 -20 3 -40 9 -43 14 -3 5 -18 9 -33 9 -33 0 -136 49 -168 79
-13 12 -23 33 -23 46 0 13 -4 26 -9 29 -5 3 -11 23 -14 43 -3 21 -11 61 -16
88 -20 91 -41 247 -35 256 7 12 11 12 69 -7z m1558 -54 c-3 -136 -54 -362 -90
-403 -34 -36 -106 -64 -288 -109 -22 -5 -54 -14 -72 -19 -104 -32 -206 -40
-265 -20 l-36 12 -7 162 c-3 89 -5 218 -3 287 l3 125 50 -3 c28 -1 160 -5 295
-8 242 -5 246 -4 310 20 98 38 105 35 103 -44z m-1448 -490 c20 -11 51 -20 70
-20 18 0 36 -4 39 -9 3 -5 18 -11 33 -14 16 -3 82 -19 148 -36 131 -33 196
-38 265 -18 85 25 80 45 80 -301 2 -1027 -1 -1327 -13 -1334 -18 -11 -77 4
-162 42 -65 29 -185 162 -185 205 0 9 -4 23 -9 33 -9 17 -17 36 -60 134 -12
26 -21 53 -21 58 0 6 -9 30 -20 53 -12 23 -25 58 -30 77 -5 19 -14 53 -20 75
-7 22 -14 55 -17 73 -3 18 -9 35 -14 38 -5 3 -9 18 -9 34 0 16 -4 39 -9 52 -5
13 -14 52 -21 88 -12 62 -19 94 -41 205 -12 58 -23 135 -38 260 -6 50 -15 119
-20 155 -26 184 -26 170 -3 170 12 0 37 -9 57 -20z m1342 -37 c-14 -155 -42
-363 -68 -498 -6 -27 -12 -68 -15 -90 -3 -22 -9 -49 -14 -60 -5 -11 -11 -38
-14 -60 -8 -69 -24 -148 -41 -205 -29 -96 -36 -124 -41 -150 -3 -14 -9 -34
-13 -45 -5 -11 -14 -36 -21 -55 -33 -92 -44 -119 -71 -175 -16 -33 -29 -67
-29 -77 0 -9 -4 -20 -10 -23 -5 -3 -10 -14 -10 -24 0 -9 -11 -41 -25 -69 -14
-29 -25 -60 -25 -70 0 -35 -89 -92 -143 -92 -13 0 -39 -5 -56 -11 -19 -7 -36
-8 -41 -3 -7 7 -20 635 -22 1034 0 25 4 171 9 325 l8 280 70 -3 c70 -3 140 9
290 48 174 46 166 43 225 68 55 23 62 18 57 -45z m-1959 -547 c32 -25 63 -51
69 -58 6 -7 14 -56 18 -108 18 -250 -3 -511 -53 -655 -56 -161 -58 -166 -125
-252 -17 -22 -51 -65 -74 -95 -47 -60 -191 -202 -241 -237 -53 -36 -63 -25
-56 66 3 43 9 87 14 98 5 11 11 38 14 60 12 93 17 123 31 170 7 28 18 68 24
90 18 74 32 130 42 161 5 17 9 42 9 55 0 14 4 29 9 35 4 5 14 32 21 59 6 28
23 84 36 125 48 150 96 295 104 315 5 11 20 53 34 94 24 70 50 121 61 121 3 0
31 -20 63 -44z m2670 21 c6 -7 29 -69 52 -137 22 -69 44 -134 49 -145 5 -11
34 -101 66 -200 31 -99 61 -188 66 -197 5 -10 9 -29 9 -43 0 -14 4 -33 9 -43
11 -21 26 -75 47 -172 8 -41 20 -85 25 -98 5 -13 9 -40 9 -62 0 -21 5 -42 10
-45 6 -3 10 -29 10 -56 0 -28 4 -58 9 -67 5 -9 10 -48 12 -87 5 -87 -7 -92
-71 -34 -25 22 -86 79 -136 125 -183 168 -289 350 -319 549 -12 81 -23 363
-18 455 8 155 30 200 127 257 27 16 31 16 44 0z m-2465 -186 c21 -20 46 -40
55 -45 25 -12 221 -206 241 -237 9 -14 30 -43 48 -65 74 -91 152 -190 215
-273 15 -20 48 -67 74 -105 25 -38 52 -76 60 -85 64 -79 101 -127 110 -143 7
-11 25 -34 40 -51 35 -38 54 -71 54 -92 0 -8 4 -23 9 -33 27 -52 32 -104 27
-292 -2 -107 -9 -231 -15 -275 -6 -44 -15 -111 -20 -150 -5 -38 -11 -79 -15
-90 -3 -11 -8 -40 -11 -65 -2 -25 -11 -79 -20 -120 -33 -162 -37 -188 -41
-270 -3 -47 -9 -94 -14 -105 -5 -11 -11 -45 -13 -75 -3 -30 -12 -91 -22 -135
-22 -104 -35 -171 -42 -218 -3 -20 -9 -40 -14 -43 -5 -3 -9 -20 -9 -39 0 -19
-4 -36 -9 -39 -5 -3 -11 -18 -14 -33 -16 -81 -39 -156 -58 -195 -5 -10 -9 -25
-9 -33 0 -8 -4 -23 -9 -33 -5 -9 -15 -37 -23 -62 -8 -25 -21 -45 -29 -45 -11
0 -16 25 -21 110 -3 61 -11 142 -18 180 -6 39 -15 102 -20 140 -5 39 -11 86
-15 105 -3 19 -12 78 -21 130 -8 52 -19 118 -24 145 -5 28 -12 68 -15 90 -5
38 -13 79 -34 190 -5 28 -21 95 -36 150 -15 55 -31 123 -36 150 -5 28 -14 73
-20 100 -6 28 -13 68 -15 90 -3 22 -9 49 -13 60 -11 26 -46 189 -58 268 -3 20
-9 40 -14 43 -5 3 -9 16 -9 29 0 13 -14 63 -30 112 -30 86 -42 132 -60 223
-24 121 -27 134 -75 295 -20 66 -41 128 -46 137 -5 10 -9 27 -9 37 0 11 -4 23
-10 26 -5 3 -10 14 -10 24 0 10 -11 43 -23 72 -16 37 -21 62 -16 79 4 14 7
129 8 256 1 278 5 287 94 205z m2269 -37 c-2 -43 -8 -95 -14 -114 -5 -20 -7
-71 -4 -115 23 -292 21 -312 -38 -448 -9 -21 -16 -44 -16 -52 0 -9 -4 -23 -9
-33 -11 -21 -41 -114 -51 -162 -4 -19 -15 -62 -25 -95 -17 -61 -29 -107 -45
-180 -5 -22 -14 -58 -19 -80 -9 -36 -22 -89 -52 -215 -6 -25 -13 -63 -15 -85
-3 -22 -9 -49 -14 -60 -5 -11 -11 -33 -13 -50 -5 -30 -39 -163 -57 -221 -6
-17 -10 -42 -10 -57 0 -14 -4 -28 -9 -31 -5 -3 -11 -23 -15 -43 -29 -194 -40
-256 -50 -272 -8 -12 -19 -76 -32 -176 -3 -22 -9 -49 -14 -60 -5 -11 -11 -38
-14 -60 -8 -60 -23 -142 -41 -220 -29 -128 -51 -289 -63 -464 -4 -55 -12 -96
-18 -98 -13 -4 -44 55 -44 83 0 10 -8 43 -19 73 -10 31 -30 94 -44 141 -24 80
-35 119 -58 215 -6 22 -15 54 -20 71 -5 17 -9 42 -9 56 0 14 -4 38 -10 54 -9
28 -24 150 -40 339 -5 50 -13 115 -20 145 -6 30 -15 78 -20 105 -16 87 -28
148 -45 220 -67 296 -76 689 -18 835 46 115 51 124 113 185 63 61 191 225 217
277 8 15 18 28 21 28 4 0 18 17 32 38 13 20 38 54 55 74 16 21 53 65 80 100
98 121 436 443 458 435 8 -2 11 -29 9 -83z m-4738 -146 c22 -13 43 -26 46 -29
3 -3 23 -18 45 -33 110 -73 175 -131 175 -154 0 -7 -13 -32 -28 -55 -44 -65
-102 -195 -102 -227 0 -16 -4 -32 -10 -35 -5 -3 -10 -21 -10 -39 0 -17 -4 -36
-9 -41 -5 -6 -12 -37 -15 -70 -8 -90 -22 -176 -35 -210 -6 -16 -27 -79 -46
-138 -20 -59 -49 -135 -65 -167 -17 -33 -30 -66 -30 -74 0 -20 -98 -207 -123
-233 -24 -27 -35 -29 -44 -8 -6 17 23 123 38 140 5 5 9 19 9 31 0 13 5 26 10
29 6 3 10 19 10 34 0 15 5 32 11 38 15 15 7 64 -12 76 -12 8 -27 6 -52 -7 -42
-19 -67 -51 -67 -83 0 -12 -4 -25 -10 -28 -5 -3 -10 -14 -10 -25 0 -10 -16
-47 -36 -82 -20 -34 -52 -92 -72 -128 -19 -36 -51 -82 -70 -103 -32 -33 -38
-35 -51 -22 -13 13 -13 21 3 67 11 29 27 71 37 92 11 22 19 44 19 48 0 5 9 28
20 50 11 23 20 46 20 51 0 4 11 32 23 60 31 67 40 104 27 112 -14 9 -50 -4
-50 -17 0 -6 -6 -19 -14 -27 -24 -26 -126 -229 -126 -250 0 -10 -7 -24 -15
-31 -8 -7 -32 -46 -52 -86 -52 -103 -102 -115 -103 -26 0 19 6 46 14 60 16 32
26 56 61 147 14 39 44 99 65 135 56 94 74 136 66 155 -9 25 -38 14 -61 -23
-11 -18 -35 -55 -52 -82 -18 -27 -33 -54 -33 -59 0 -4 -7 -14 -15 -21 -8 -6
-35 -53 -61 -103 -52 -104 -75 -133 -98 -124 -18 7 -22 70 -7 109 5 13 17 43
26 68 47 119 76 171 156 276 68 88 77 109 79 199 2 44 2 86 1 93 -2 17 -56 15
-70 -2 -39 -47 -238 -104 -264 -76 -9 9 -5 17 17 34 15 11 72 63 125 113 53
51 99 93 103 93 4 0 22 13 40 29 19 16 90 57 158 92 141 70 222 126 244 166
14 26 33 65 74 153 9 19 38 70 65 113 55 86 65 90 131 55z m7161 6 c9 -4 36
-45 61 -93 25 -47 51 -97 58 -111 8 -14 23 -46 35 -71 24 -53 94 -123 166
-164 28 -16 71 -44 96 -62 26 -18 52 -33 59 -33 22 0 144 -72 194 -114 26 -23
79 -71 116 -108 38 -38 76 -68 85 -68 10 0 15 -6 13 -17 -8 -40 -181 -6 -266
52 -20 14 -42 25 -49 25 -34 0 -44 -99 -18 -184 17 -56 32 -81 79 -134 18 -20
46 -62 61 -92 16 -30 37 -67 47 -82 10 -14 18 -38 18 -52 0 -15 8 -43 19 -64
28 -56 37 -120 17 -128 -24 -9 -42 11 -57 63 -16 60 -224 343 -250 343 -6 0
-12 -7 -16 -16 -7 -18 8 -50 75 -162 24 -41 48 -86 52 -100 5 -15 21 -58 35
-97 64 -168 67 -195 22 -195 -30 0 -38 10 -86 102 -21 40 -45 87 -54 103 -8
17 -32 66 -53 110 -48 102 -100 175 -125 175 -23 0 -24 -21 -4 -60 8 -16 22
-50 30 -77 18 -53 54 -147 91 -234 27 -64 31 -104 9 -112 -19 -8 -51 19 -80
68 -59 99 -134 245 -154 300 -25 67 -43 90 -84 112 -39 20 -57 11 -57 -30 0
-31 21 -117 39 -162 9 -22 50 -144 54 -160 1 -5 -8 -11 -19 -13 -25 -4 -37 14
-108 153 -25 49 -46 97 -46 107 0 9 -15 46 -34 80 -32 58 -97 234 -118 318
-10 41 -25 129 -38 220 -20 140 -81 307 -144 393 l-21 29 50 45 c83 75 256
202 277 203 3 0 14 -3 23 -6z m-4772 -469 c5 -17 13 -38 18 -47 5 -10 9 -27 9
-37 0 -11 5 -23 10 -26 6 -3 10 -18 10 -32 0 -27 16 -84 31 -115 5 -10 9 -29
9 -44 0 -14 5 -35 12 -47 11 -21 24 -70 34 -132 3 -16 9 -39 13 -50 17 -43 31
-92 31 -111 0 -11 4 -24 8 -30 4 -5 16 -36 26 -69 10 -33 22 -69 26 -80 5 -11
11 -36 15 -55 8 -46 22 -123 34 -185 5 -27 17 -77 26 -110 9 -33 19 -78 21
-100 3 -22 9 -49 14 -60 5 -11 11 -38 14 -60 3 -22 10 -65 17 -95 15 -70 15
-198 0 -275 -7 -33 -14 -82 -17 -110 -3 -27 -9 -59 -14 -70 -5 -11 -11 -42
-14 -70 -2 -27 -12 -86 -21 -130 -9 -44 -18 -107 -21 -140 -3 -33 -9 -69 -14
-80 -10 -21 -16 -88 -28 -330 -12 -212 -26 -242 -82 -173 -61 76 -240 404
-240 440 0 8 -4 18 -8 24 -5 5 -19 34 -31 64 -30 72 -44 105 -70 162 -11 26
-21 50 -21 53 0 2 -11 28 -24 57 -62 135 -112 314 -136 488 -57 416 -77 662
-61 735 6 27 15 88 21 135 10 87 17 137 26 178 3 13 32 52 64 87 33 36 60 68
60 72 0 5 11 20 25 35 28 31 99 144 107 173 3 11 20 52 36 90 17 39 33 78 36
88 9 28 39 16 49 -18z m2387 4 c0 -32 98 -224 131 -255 16 -15 29 -32 29 -37
0 -6 21 -33 48 -62 95 -104 116 -136 124 -189 47 -304 59 -487 38 -611 -6 -33
-15 -112 -21 -175 -15 -160 -26 -256 -38 -315 -6 -27 -14 -70 -19 -95 -10 -49
-67 -225 -82 -252 -6 -10 -10 -24 -10 -32 0 -8 -8 -31 -19 -53 -10 -21 -26
-63 -36 -93 -10 -30 -26 -72 -37 -92 -10 -21 -18 -46 -18 -58 0 -11 -4 -20
-10 -20 -5 0 -10 -6 -10 -13 0 -14 -168 -351 -197 -395 -10 -15 -22 -34 -28
-43 -31 -50 -65 -98 -73 -102 -32 -20 -44 40 -72 363 -5 58 -14 132 -19 165
-24 153 -32 200 -57 340 -14 83 -30 179 -34 215 -16 130 -28 205 -35 223 -4 9
-3 23 3 30 5 6 12 32 15 57 10 83 38 206 58 255 4 11 10 34 12 50 3 17 15 66
27 110 12 44 25 98 30 120 15 78 52 242 77 340 14 55 29 118 33 140 5 22 18
69 30 105 11 36 25 83 31 105 6 22 15 49 19 60 16 42 60 187 60 199 0 16 21
36 37 36 7 0 13 -9 13 -21z m518 -651 c45 -28 53 -54 58 -183 3 -60 7 -119 11
-130 22 -71 34 -710 16 -855 -5 -41 -17 -95 -25 -120 -9 -25 -24 -72 -33 -105
-10 -33 -26 -79 -36 -102 -11 -24 -19 -49 -19 -56 0 -7 -4 -17 -9 -23 -4 -5
-21 -43 -35 -84 -30 -81 -44 -116 -57 -142 -5 -10 -9 -26 -9 -36 0 -10 -4 -22
-8 -28 -5 -5 -21 -43 -36 -84 -15 -41 -42 -104 -58 -140 -17 -36 -37 -78 -45
-95 -44 -95 -66 -109 -119 -76 -48 29 -86 120 -103 246 -8 58 -6 65 45 190 29
72 67 173 84 225 17 52 44 122 59 155 28 59 84 216 103 285 24 89 56 287 68
423 5 62 15 159 21 217 18 161 11 342 -20 540 -13 81 -1 88 62 39 29 -22 67
-49 85 -61z m-3329 1 c-14 -82 -31 -256 -31 -334 0 -66 16 -235 26 -275 4 -14
11 -75 16 -135 5 -61 14 -141 20 -180 6 -38 13 -90 16 -115 3 -25 10 -49 15
-55 5 -5 9 -20 9 -34 0 -28 16 -84 36 -123 8 -14 14 -35 14 -46 0 -12 5 -24
10 -27 6 -3 10 -16 10 -29 0 -12 4 -26 8 -31 5 -6 15 -26 22 -45 8 -19 33 -77
57 -128 24 -52 43 -98 43 -102 0 -5 15 -42 34 -82 64 -136 89 -229 66 -243 -5
-3 -10 -27 -10 -52 0 -81 -37 -172 -84 -208 -37 -28 -68 -32 -88 -12 -12 13
-98 189 -121 247 -5 14 -13 33 -18 42 -5 10 -9 25 -9 33 0 8 -4 23 -9 33 -27
50 -123 305 -158 417 -8 28 -19 59 -23 70 -53 143 -74 221 -83 310 -15 164 -9
433 16 675 2 19 5 89 7 155 2 66 7 134 11 150 4 17 10 47 13 67 6 32 16 43 89
92 102 69 114 64 96 -35z m874 -1150 c4 -24 12 -71 17 -104 5 -33 14 -85 19
-115 6 -30 13 -73 16 -95 8 -57 33 -214 40 -255 18 -101 27 -252 28 -495 l2
-270 -31 -3 c-33 -3 -87 23 -184 88 -105 72 -104 68 -96 232 13 276 24 380 60
568 9 47 21 117 27 155 6 39 14 95 19 125 5 30 13 86 18 123 16 105 50 129 65
46z m1500 -11 c7 -54 23 -146 36 -218 6 -30 16 -86 21 -125 6 -38 15 -79 20
-90 5 -11 12 -45 15 -75 3 -30 10 -93 16 -140 5 -47 14 -137 19 -200 5 -63 13
-153 18 -200 l8 -85 -30 -33 c-27 -30 -117 -95 -196 -143 -14 -9 -45 -20 -68
-24 -38 -6 -42 -5 -47 17 -9 37 1 587 13 653 6 33 19 114 31 180 35 211 32
194 81 440 6 33 16 66 22 73 20 24 36 12 41 -30z m-2539 -300 c8 -13 26 -57
40 -98 42 -123 52 -149 59 -156 4 -4 7 -15 7 -24 0 -9 8 -32 17 -50 9 -19 20
-50 24 -69 11 -55 34 -116 73 -191 7 -14 30 -61 51 -105 33 -67 64 -119 95
-158 11 -13 68 23 107 67 36 41 63 103 63 143 0 27 27 97 38 101 13 4 53 -49
87 -118 34 -67 57 -98 160 -207 96 -102 162 -147 263 -182 l77 -26 3 -59 c2
-32 -2 -64 -7 -69 -6 -6 -11 -37 -11 -68 0 -32 -4 -60 -9 -63 -5 -3 -11 -18
-14 -33 -7 -39 -54 -167 -78 -215 -5 -10 -9 -23 -9 -30 0 -7 -17 -47 -37 -90
-43 -88 -59 -94 -128 -55 -44 25 -44 26 -24 132 18 98 22 274 7 320 -12 37
-13 30 -19 -125 -7 -175 -20 -272 -39 -296 -16 -18 -83 -18 -118 0 -44 23 -87
76 -131 159 -23 43 -47 86 -53 96 -17 27 -72 61 -99 61 -50 0 -54 14 -23 67
50 82 57 100 50 127 -3 14 -10 26 -14 26 -8 0 -32 -48 -32 -64 0 -22 -57 -123
-89 -159 -19 -20 -42 -49 -51 -65 -24 -38 -109 -114 -123 -109 -8 2 -11 24
-10 63 2 56 6 101 34 374 17 161 17 443 1 505 -7 28 -17 68 -22 90 -19 88 -29
123 -49 185 -23 71 -33 105 -49 165 -6 22 -18 64 -26 94 -34 115 -30 167 8
109z m3523 -105 c-3 -21 -9 -62 -13 -91 -3 -29 -11 -55 -15 -58 -5 -3 -9 -17
-9 -31 0 -28 -16 -85 -32 -117 -6 -11 -11 -29 -13 -40 -2 -12 -13 -46 -24 -76
-12 -30 -21 -71 -21 -90 0 -20 -4 -40 -9 -46 -10 -9 -21 -160 -22 -284 0 -71
12 -207 31 -340 18 -119 19 -282 2 -288 -20 -6 -151 128 -192 198 -20 36 -45
89 -54 117 -17 52 -35 76 -37 51 -3 -28 8 -59 53 -155 14 -30 3 -53 -25 -53
-30 0 -88 -60 -121 -126 -26 -53 -81 -139 -102 -161 -17 -18 -92 -41 -144 -45
-45 -3 -45 -3 -56 37 -38 131 -52 331 -29 418 6 20 4 27 -8 27 -22 0 -41 -80
-32 -142 4 -29 10 -98 14 -153 4 -55 12 -113 19 -128 8 -19 9 -34 2 -47 -10
-19 -63 -50 -87 -50 -7 0 -13 -5 -13 -11 0 -6 -10 -9 -22 -7 -18 2 -26 13 -34
48 -7 25 -19 65 -28 90 -9 25 -28 79 -42 120 -14 41 -29 80 -33 85 -23 31 -61
229 -61 314 0 53 3 64 19 68 17 4 46 19 138 70 22 12 45 29 52 37 8 9 18 16
24 16 24 0 184 172 246 265 37 55 73 100 80 100 15 0 14 3 69 -116 41 -88 66
-120 114 -145 25 -13 31 -13 51 0 34 23 131 221 189 386 16 47 35 99 43 115 7
17 25 62 40 100 15 39 31 78 36 87 5 10 9 26 9 37 0 21 25 51 42 51 6 0 8 -15
5 -37z m-3117 -1343 c23 -12 87 -107 123 -182 31 -63 86 -118 120 -118 12 0
47 -9 77 -20 30 -11 72 -20 93 -20 21 0 58 -9 83 -20 41 -19 44 -23 44 -60 0
-22 -4 -40 -10 -40 -5 0 -10 -6 -10 -12 0 -7 -12 -38 -26 -68 -15 -30 -35 -72
-45 -93 -11 -22 -19 -45 -19 -52 0 -7 -7 -18 -15 -25 -18 -15 -75 -131 -75
-153 0 -9 -4 -17 -10 -17 -5 0 -10 -9 -10 -19 0 -11 -4 -23 -10 -26 -5 -3 -10
-14 -10 -24 0 -9 -16 -48 -35 -85 -19 -38 -35 -74 -35 -81 0 -7 -8 -30 -19
-52 -31 -65 -54 -138 -67 -218 -3 -16 -9 -39 -14 -50 -8 -19 -13 -43 -27 -125
-3 -19 -9 -40 -14 -45 -8 -11 -23 -81 -40 -195 -17 -107 -29 -292 -37 -530 -4
-124 -10 -230 -14 -236 -4 -6 -8 -107 -9 -224 -1 -157 -5 -222 -15 -247 -18
-42 -44 -44 -44 -3 0 16 -4 49 -10 72 -5 24 -14 70 -20 103 -10 54 -19 92 -52
220 -5 22 -14 48 -19 57 -5 10 -9 25 -9 35 0 16 -14 65 -31 108 -25 66 -60
228 -79 370 -44 320 -52 527 -48 1220 l3 630 118 118 c112 110 121 117 159
117 21 0 48 -4 58 -10z m2848 -43 c31 -29 81 -72 110 -96 66 -54 74 -69 85
-156 19 -141 19 -930 2 -1240 -9 -159 -19 -294 -22 -299 -3 -4 -10 -40 -15
-80 -10 -78 -22 -149 -38 -241 -6 -33 -13 -78 -16 -100 -3 -22 -9 -49 -13 -60
-11 -27 -52 -219 -58 -275 -3 -25 -9 -50 -14 -55 -4 -6 -9 -31 -10 -55 -1 -25
-6 -50 -10 -55 -7 -9 -37 -149 -58 -265 -14 -75 -29 -97 -48 -67 -4 6 -11 125
-14 262 -8 341 -18 565 -26 579 -4 6 -11 65 -15 131 -16 254 -35 398 -68 525
-15 56 -81 270 -102 330 -10 30 -26 80 -34 110 -32 121 -123 336 -196 462 -57
99 -129 280 -119 297 4 6 35 24 69 41 50 24 76 30 127 30 35 0 67 5 70 10 3 6
17 10 29 10 30 0 118 93 137 143 7 20 16 37 20 37 4 0 12 13 19 30 7 16 30 46
51 65 57 51 87 48 157 -18z m-2287 -494 c3 -90 -4 -320 -11 -328 -5 -6 -11
-55 -14 -110 -11 -201 -24 -342 -41 -430 -9 -49 -19 -110 -21 -135 -3 -25 -10
-49 -15 -55 -5 -5 -9 -24 -9 -41 0 -18 -4 -36 -10 -39 -5 -3 -10 -24 -10 -45
0 -21 -4 -42 -10 -45 -5 -3 -10 -18 -10 -33 0 -14 -6 -44 -14 -67 -8 -22 -19
-60 -26 -85 -7 -25 -16 -53 -21 -62 -5 -10 -9 -27 -9 -37 0 -11 -4 -23 -10
-26 -5 -3 -10 -17 -10 -31 0 -13 -4 -32 -9 -42 -34 -69 -61 -136 -61 -152 0
-11 -4 -20 -10 -20 -5 0 -10 -10 -10 -23 0 -12 -16 -55 -35 -94 -19 -40 -35
-77 -35 -82 0 -6 -9 -26 -20 -46 -11 -20 -20 -44 -20 -55 0 -10 -4 -22 -10
-25 -5 -3 -10 -19 -10 -34 0 -16 -7 -34 -15 -41 -10 -8 -15 -30 -15 -64 0 -28
-5 -67 -10 -86 -13 -46 -14 -494 -1 -519 13 -23 31 -117 38 -191 3 -30 9 -59
14 -64 5 -6 9 -36 9 -67 0 -32 5 -61 10 -64 6 -3 10 -42 10 -85 0 -61 -5 -88
-20 -115 -11 -20 -20 -42 -20 -49 0 -8 -6 -16 -12 -19 -20 -7 -58 -85 -58
-117 0 -16 -4 -32 -10 -35 -6 -3 -10 -50 -10 -106 0 -54 -4 -107 -9 -117 -5
-9 -15 -37 -22 -62 -20 -68 -46 -114 -94 -165 -29 -30 -52 -45 -69 -45 -14 0
-28 -4 -31 -10 -8 -12 -222 -14 -229 -1 -3 5 -29 11 -58 14 -49 5 -131 21
-248 48 -25 5 -58 12 -75 16 -51 10 -65 29 -65 95 0 47 5 66 28 100 15 22 32
48 37 57 6 9 24 32 40 53 83 101 185 279 185 323 0 13 5 27 10 30 6 3 10 21
10 40 0 19 5 37 10 40 6 3 10 21 10 39 0 18 7 41 15 52 8 10 15 27 15 37 0 9
5 26 10 37 6 11 15 29 20 40 6 11 10 25 10 32 0 7 16 45 35 83 19 39 35 77 35
86 0 18 19 39 37 39 7 0 13 -7 13 -16 0 -9 6 -14 13 -11 8 2 11 23 10 63 -3
107 -34 387 -53 484 -6 30 -15 83 -20 118 -5 35 -12 68 -16 74 -4 6 -11 38
-15 72 -12 86 -33 203 -58 316 -59 270 -65 327 -64 630 0 272 7 359 38 495 9
39 20 90 25 115 5 25 14 68 20 95 6 28 14 68 16 90 3 22 9 49 14 60 5 11 11
40 14 65 6 52 34 209 41 228 2 6 11 12 20 12 13 0 15 -69 19 -567 3 -572 5
-601 47 -913 5 -41 12 -100 15 -130 3 -30 10 -59 15 -64 5 -6 9 -27 9 -47 0
-21 4 -40 9 -43 4 -3 11 -22 14 -43 4 -21 14 -63 23 -93 22 -77 35 -129 41
-173 3 -20 9 -40 14 -43 5 -3 9 -23 9 -44 0 -21 5 -42 10 -45 6 -3 10 -25 10
-48 1 -23 7 -53 15 -67 8 -14 14 -52 15 -87 0 -34 5 -65 10 -68 6 -3 10 -23
10 -43 1 -52 17 -68 60 -62 45 6 47 18 49 225 1 88 7 228 12 310 6 83 15 218
20 300 17 279 25 370 31 385 4 8 9 44 11 80 5 69 23 175 38 226 5 17 9 47 9
67 0 20 5 39 10 42 6 3 10 23 10 44 0 20 4 41 8 46 4 6 16 35 26 65 10 30 21
64 25 75 17 43 31 92 31 108 0 14 92 206 177 372 27 51 74 156 99 217 19 48
43 64 45 31z m1698 -159 c39 -80 71 -149 71 -153 0 -4 11 -31 26 -60 14 -29
34 -79 46 -110 11 -31 24 -60 29 -65 5 -6 9 -18 9 -28 0 -10 4 -26 9 -36 5 -9
21 -57 37 -107 15 -49 32 -94 36 -100 4 -5 8 -19 8 -31 0 -13 5 -26 10 -29 6
-3 10 -17 10 -30 0 -13 4 -26 9 -29 5 -3 11 -18 14 -33 2 -16 12 -55 22 -88
32 -114 47 -216 61 -410 3 -43 10 -87 15 -96 5 -10 9 -111 9 -226 1 -114 5
-239 10 -278 5 -38 12 -186 16 -328 6 -230 9 -257 23 -251 9 4 28 9 43 11 23
4 27 11 31 52 3 25 9 66 15 91 5 25 15 86 22 135 7 50 17 94 21 99 5 6 9 27 9
47 0 21 5 41 10 44 6 3 10 22 10 42 0 20 4 50 10 67 12 38 54 187 69 242 6 23
11 55 11 72 0 17 5 34 10 37 6 3 10 28 10 54 0 26 4 51 9 57 6 5 11 38 12 74
1 36 6 79 10 95 24 93 47 510 55 980 3 182 10 334 15 339 21 22 30 -9 70 -234
6 -30 12 -75 15 -100 3 -25 10 -49 15 -54 5 -6 9 -30 9 -55 0 -26 5 -63 11
-85 12 -44 26 -113 41 -206 14 -90 22 -676 9 -720 -6 -19 -11 -57 -12 -85 -1
-27 -5 -54 -9 -60 -4 -5 -13 -37 -19 -70 -7 -33 -16 -80 -22 -105 -6 -25 -14
-70 -19 -100 -21 -125 -29 -167 -38 -204 -6 -22 -8 -44 -6 -48 3 -5 0 -15 -6
-23 -11 -14 -26 -83 -37 -175 -3 -25 -9 -49 -14 -54 -5 -6 -9 -36 -9 -67 0
-32 -4 -61 -10 -64 -6 -4 -10 -69 -10 -161 l0 -154 25 16 c14 9 27 15 28 13 7
-10 37 -88 48 -124 6 -22 15 -48 20 -57 5 -10 9 -27 9 -37 0 -11 5 -23 10 -26
6 -3 10 -17 10 -30 0 -13 4 -26 9 -30 5 -3 13 -20 17 -37 3 -18 10 -39 14 -48
15 -30 30 -87 30 -113 0 -14 5 -29 10 -32 6 -3 10 -14 10 -24 0 -19 68 -159
90 -186 8 -9 19 -25 25 -35 27 -46 64 -97 84 -114 11 -11 21 -24 21 -30 0 -5
11 -21 24 -35 34 -36 66 -97 66 -125 0 -13 -7 -40 -15 -60 -13 -31 -20 -36
-50 -36 -18 0 -37 -4 -40 -10 -3 -5 -22 -10 -41 -10 -19 0 -42 -4 -52 -10 -22
-12 -216 -30 -389 -36 l-132 -5 -43 31 c-74 53 -138 205 -138 329 -1 72 -17
162 -33 177 -4 4 -7 15 -7 25 0 18 -30 76 -62 118 -9 12 -20 38 -24 57 -3 19
-10 37 -15 40 -19 12 -6 123 30 254 62 225 74 330 67 571 -7 251 -22 347 -69
449 -9 19 -23 58 -32 85 -9 28 -38 102 -65 165 -52 125 -73 181 -124 335 -32
97 -42 131 -66 225 -6 25 -18 68 -25 95 -8 28 -16 64 -19 80 -3 17 -9 48 -14
70 -28 116 -42 220 -57 405 -8 113 -20 237 -25 275 -12 89 -16 337 -6 353 4 7
11 10 16 7 4 -3 40 -70 79 -151z"/>
</g>
</svg>
