<svg version="1.0" xmlns="http://www.w3.org/2000/svg"
 width="483.000000pt" height="810.000000pt" viewBox="0 0 483.000000 810.000000"
 preserveAspectRatio="xMidYMid meet">

<g transform="translate(0.000000,810.000000) scale(0.100000,-0.100000)"
fill="#000000" stroke="none">
<path d="M2380 7909 c0 -7 -12 -10 -30 -7 -16 3 -30 0 -30 -5 0 -5 -13 -7 -30
-5 -20 3 -30 0 -30 -9 0 -7 -8 -13 -18 -13 -13 0 -22 -13 -31 -49 -7 -28 -21
-66 -31 -85 -28 -57 -33 -149 -12 -236 18 -75 18 -76 -2 -91 -19 -15 -19 -20
-9 -78 8 -40 23 -77 44 -106 45 -63 51 -156 18 -281 -27 -104 -53 -137 -148
-194 -87 -52 -149 -70 -241 -70 -87 0 -132 -11 -215 -52 -81 -40 -102 -61
-140 -143 -45 -96 -60 -200 -45 -313 6 -47 14 -90 16 -94 3 -5 -5 -23 -19 -41
-66 -87 -112 -226 -123 -373 -6 -75 -9 -82 -35 -98 -42 -25 -144 -158 -183
-239 -19 -40 -48 -112 -65 -162 -57 -174 -178 -460 -225 -530 -25 -38 -46 -75
-46 -81 0 -31 -63 -94 -122 -123 -74 -35 -222 -154 -226 -182 -3 -17 3 -19 45
-19 26 0 60 6 75 14 53 28 52 -15 -4 -97 -47 -69 -78 -143 -78 -186 0 -31 18
-45 41 -30 11 6 15 1 19 -24 6 -41 44 -50 68 -16 l15 22 8 -21 c11 -30 44 -27
67 6 23 33 67 116 83 157 21 54 21 3 -1 -59 -11 -32 -17 -62 -14 -67 12 -21
43 -6 68 32 35 52 112 251 120 309 17 114 40 184 80 244 23 34 48 77 56 96 38
96 164 248 290 349 121 98 177 161 212 238 32 72 68 200 68 244 0 17 12 42 29
61 40 47 60 89 96 203 l31 100 45 -89 44 -89 3 -132 c3 -91 -1 -164 -14 -241
-10 -63 -18 -181 -20 -279 l-3 -170 -41 -115 c-90 -250 -111 -331 -134 -525
-28 -229 -36 -412 -25 -556 10 -126 17 -161 80 -389 10 -36 18 -93 18 -127 1
-94 -29 -353 -45 -393 -8 -18 -22 -84 -30 -145 -8 -60 -24 -150 -36 -200 -31
-139 -48 -254 -48 -324 0 -36 18 -157 41 -270 22 -113 44 -237 49 -276 5 -38
12 -91 16 -117 6 -41 1 -61 -44 -170 -28 -68 -60 -150 -73 -182 -13 -33 -45
-92 -71 -131 -52 -77 -66 -142 -37 -170 26 -24 170 -58 253 -59 l78 -1 38 43
c32 36 40 54 50 115 6 40 25 107 41 150 33 88 35 116 14 204 -45 191 -40 367
15 494 99 230 152 437 175 677 8 89 15 201 15 247 0 74 5 97 35 171 33 84 55
192 55 278 0 23 14 82 30 132 53 153 90 308 105 431 8 65 17 129 19 143 51
256 57 409 20 504 -4 9 15 12 76 12 76 -1 81 -2 75 -21 -29 -98 -24 -249 15
-441 11 -55 27 -155 35 -224 16 -127 44 -245 91 -380 16 -47 31 -122 40 -203
10 -92 22 -153 45 -215 36 -99 32 -75 59 -410 25 -298 49 -413 129 -597 74
-169 85 -216 85 -370 0 -100 -5 -149 -22 -215 -28 -109 -28 -123 6 -195 16
-33 31 -86 35 -118 3 -31 17 -82 31 -112 32 -72 72 -91 161 -80 33 4 94 10
136 14 85 7 105 18 111 61 5 31 -6 53 -75 153 -42 60 -156 370 -164 445 -3 26
5 84 20 150 23 95 36 161 52 257 17 99 27 253 22 340 -3 59 -27 207 -57 360
-97 483 -107 633 -56 810 3 11 14 50 25 86 39 137 51 373 31 632 -19 245 -58
433 -142 677 l-50 145 1 135 c2 91 -5 183 -18 280 -38 267 -26 417 45 537 32
54 26 62 73 -93 19 -63 43 -116 63 -144 46 -60 43 -54 67 -164 22 -103 64
-206 107 -264 14 -18 75 -74 136 -124 151 -125 318 -329 318 -389 0 -6 18 -47
41 -91 29 -58 45 -108 59 -181 21 -114 41 -172 103 -297 27 -55 49 -86 61 -88
30 -6 35 17 15 76 -19 55 -25 91 -13 79 3 -3 21 -41 40 -83 18 -42 43 -87 55
-100 23 -25 63 -32 74 -13 5 7 13 5 25 -6 12 -11 26 -14 40 -10 19 6 22 12 17
46 -6 43 -5 44 23 27 15 -10 22 -10 32 0 22 22 -27 159 -87 241 -14 19 -24 42
-23 50 4 17 10 17 106 5 50 -7 52 -6 52 17 -1 31 -80 95 -209 169 -92 53 -97
58 -143 135 -26 44 -64 123 -84 175 -21 52 -60 151 -87 220 -27 69 -62 166
-78 215 -54 164 -109 263 -198 356 -70 72 -81 89 -81 119 0 64 -31 213 -57
274 -14 34 -40 83 -57 109 l-33 48 15 87 c17 102 7 210 -28 304 -51 136 -168
206 -365 218 -98 5 -118 10 -185 42 -93 44 -155 89 -173 125 -8 16 -24 62 -35
104 -20 70 -20 83 -9 157 12 71 17 83 50 115 36 34 37 36 37 110 0 47 -4 77
-11 79 -9 3 -8 23 1 77 21 125 -5 229 -78 305 -46 48 -117 80 -232 106 -105
23 -100 23 -100 9z m194 -54 c89 -31 157 -95 187 -175 18 -47 20 -70 16 -153
-5 -92 -10 -117 -22 -106 -2 3 -9 47 -15 99 -6 51 -16 113 -22 137 -12 50 -61
105 -84 96 -10 -4 -5 -10 18 -22 41 -21 63 -80 78 -221 6 -58 14 -107 16 -110
3 -3 13 -5 22 -5 14 0 18 -12 20 -62 3 -61 2 -64 -37 -106 -29 -32 -42 -55
-47 -88 -22 -144 -262 -208 -396 -106 -38 29 -43 38 -55 102 -8 39 -22 81 -31
93 -36 51 -52 89 -52 125 0 34 3 38 22 35 30 -4 37 26 31 132 -9 137 31 201
111 179 43 -12 130 -5 215 17 51 13 76 24 55 24 -5 0 -41 -7 -79 -15 -76 -16
-168 -18 -200 -6 -28 12 -71 -13 -91 -52 -27 -50 -33 -94 -24 -160 9 -58 -2
-103 -13 -61 -36 130 -30 238 16 311 13 21 24 41 23 44 -1 9 35 48 43 47 19
-2 31 3 26 11 -3 6 9 7 30 4 21 -3 35 -2 35 5 0 21 132 13 204 -13z m-204
-875 c94 -26 208 -11 270 35 19 14 37 25 42 25 20 0 -47 -218 -103 -335 -21
-44 -41 -93 -45 -108 l-6 -28 38 17 c83 36 162 56 239 61 l80 5 -24 -20 c-13
-11 -47 -25 -75 -31 -90 -20 -245 -139 -265 -204 -14 -46 -35 -298 -28 -346 5
-40 4 -41 -24 -41 -29 0 -30 1 -23 36 8 41 -13 302 -28 353 -20 66 -163 178
-256 201 -27 6 -61 20 -78 30 l-29 20 45 0 c65 0 173 -25 237 -55 86 -39 88
-31 26 110 -47 106 -90 234 -99 292 l-7 46 34 -26 c19 -14 54 -31 79 -37z
m-95 -97 c15 -48 45 -126 66 -174 21 -48 39 -91 39 -97 0 -6 -18 -3 -44 8 -65
29 -151 48 -254 55 l-94 7 63 35 c122 68 154 104 180 207 6 25 13 46 15 46 1
0 15 -39 29 -87z m508 -98 c24 -22 71 -53 103 -70 l59 -30 -75 -7 c-126 -13
-185 -25 -251 -52 -35 -14 -65 -23 -67 -21 -3 2 18 53 46 112 28 59 58 135 68
168 9 33 19 67 22 75 2 8 15 -19 28 -60 19 -61 31 -82 67 -115z m-730 -157
l29 -21 -54 -28 c-71 -39 -117 -90 -232 -263 -81 -122 -101 -146 -122 -146
-13 0 -62 -25 -109 -57 -47 -31 -88 -53 -92 -50 -10 11 -32 139 -33 193 0 115
42 247 96 298 37 35 109 72 177 91 79 23 300 11 340 -17z m1191 8 c135 -46
189 -93 228 -202 11 -33 23 -91 26 -130 5 -76 -14 -244 -28 -244 -5 0 -46 25
-92 55 -56 38 -90 55 -108 53 -22 -3 -36 14 -122 142 -127 190 -164 232 -237
268 -59 29 -60 30 -40 48 24 21 71 29 201 32 81 3 108 -1 172 -22z m-1000 -96
c89 -54 150 -118 163 -171 17 -68 33 -297 23 -325 -5 -13 -24 -30 -43 -38 -52
-21 -173 -39 -272 -40 -87 -1 -93 0 -188 46 -81 39 -217 130 -217 145 0 3 44
70 98 150 155 234 206 277 318 271 48 -3 73 -11 118 -38z m672 10 c29 -16 68
-48 88 -72 47 -55 216 -308 215 -322 -2 -41 -256 -182 -346 -193 -62 -7 -260
22 -317 47 -49 21 -62 51 -52 118 4 20 10 88 16 149 5 62 15 124 23 138 7 14
37 46 67 71 122 100 212 119 306 64z m-1178 -447 l44 -36 -7 -66 c-3 -36 -8
-93 -10 -126 -4 -63 -42 -205 -77 -287 -11 -26 -37 -63 -57 -81 -44 -39 -267
-135 -282 -120 -11 11 -29 154 -29 239 0 106 27 232 68 313 33 67 43 78 92
104 30 16 78 46 105 67 61 47 89 45 153 -7z m1644 -16 c49 -32 92 -55 98 -52
11 7 69 -79 93 -137 15 -37 40 -151 52 -240 5 -41 -1 -118 -21 -245 -3 -18 -9
-33 -15 -33 -5 0 -64 23 -132 50 -94 39 -130 60 -157 89 -54 60 -115 241 -125
373 -2 34 -7 91 -11 124 -6 61 -6 61 29 88 32 24 83 47 97 43 3 -1 44 -28 92
-60z m-1481 -87 c57 -27 123 -52 147 -56 23 -4 42 -9 42 -13 0 -3 -4 -33 -10
-66 -14 -95 -21 -515 -9 -603 6 -42 19 -111 29 -152 10 -41 24 -118 30 -170
16 -124 55 -318 81 -399 11 -35 18 -65 15 -68 -2 -2 -32 32 -66 76 -40 54
-102 115 -183 182 l-122 101 -7 67 c-3 36 -5 86 -2 111 2 25 6 74 9 110 3 36
10 95 15 131 5 36 12 122 16 190 8 148 -4 209 -67 328 l-41 79 7 101 c4 55 9
101 10 101 1 0 49 -22 106 -50z m1252 -17 c12 -125 9 -148 -27 -215 -64 -116
-70 -146 -69 -318 0 -85 5 -175 11 -200 18 -75 34 -291 27 -356 l-6 -61 -107
-87 c-107 -88 -195 -184 -300 -329 -31 -43 -58 -74 -60 -69 -1 5 13 47 32 93
50 122 94 305 116 486 6 48 23 138 38 198 26 107 27 117 26 405 0 162 -5 320
-10 351 l-11 57 54 5 c35 4 88 22 156 55 56 28 107 51 113 51 7 1 14 -27 17
-66z m-563 -8 c25 -8 81 -19 124 -25 44 -5 81 -11 82 -13 7 -8 24 -158 24
-217 l0 -71 -42 -19 c-51 -23 -93 -25 -173 -5 -33 8 -74 14 -91 15 l-31 0 -6
98 c-4 53 -7 132 -7 174 0 72 1 77 23 81 12 2 29 2 37 0 8 -3 35 -11 60 -18z
m-142 -157 l-3 -173 -35 -3 c-19 -1 -68 -10 -108 -19 -82 -17 -131 -14 -187
13 l-38 18 7 100 c4 56 10 119 14 141 l7 40 115 17 c63 9 126 21 140 27 14 5
40 10 58 10 l32 1 -2 -172z m-291 -220 c35 -10 56 -10 115 2 40 7 97 15 126
18 l52 4 0 -146 c0 -175 8 -165 -154 -173 -91 -5 -123 -2 -164 11 l-52 18 0
145 c0 134 1 145 18 140 9 -4 36 -12 59 -19z m428 7 c78 -19 137 -19 182 0 19
8 39 15 44 15 5 0 9 -65 9 -145 l0 -145 -27 -13 c-40 -17 -285 -16 -307 2 -13
11 -16 37 -16 151 0 75 3 140 7 143 10 11 42 8 108 -8z m-1285 -37 c4 -51 31
-203 37 -209 4 -4 61 14 125 41 64 27 123 51 130 52 17 4 13 -34 -13 -132 -38
-140 -88 -219 -196 -307 -12 -10 -50 -40 -84 -68 -89 -72 -214 -226 -256 -315
-19 -41 -37 -76 -38 -78 -4 -4 -165 107 -165 114 0 2 11 27 25 56 35 76 165
406 165 419 0 22 78 206 107 253 43 69 162 195 163 174z m2423 -80 c78 -86
135 -190 181 -329 19 -57 53 -151 76 -209 23 -57 57 -146 75 -197 l33 -93 -62
-44 c-34 -24 -68 -52 -76 -60 -14 -18 -9 -26 -62 94 -45 101 -173 243 -347
383 -81 66 -110 106 -150 204 -30 73 -59 199 -48 209 3 4 60 -16 127 -44 l121
-50 14 21 c7 12 17 56 21 97 10 114 10 114 97 18z m-1430 -204 c65 3 127 11
138 16 19 11 20 8 17 -127 l-3 -137 -33 -10 c-26 -7 -56 -4 -130 14 -108 25
-147 42 -161 68 -8 15 -41 169 -41 192 0 4 21 1 48 -7 35 -11 76 -13 165 -9z
m523 -28 c-11 -81 -34 -160 -51 -173 -39 -28 -249 -71 -272 -56 -8 6 -15 54
-19 136 l-7 127 129 -6 c101 -5 138 -3 169 9 58 21 58 22 51 -37z m-572 -226
c73 -19 148 -27 186 -18 13 3 15 -44 18 -369 2 -331 0 -373 -13 -373 -28 0
-80 27 -107 56 -27 31 -85 161 -111 254 -19 69 -64 297 -72 370 -3 30 -9 68
-12 84 -4 25 -3 28 13 23 11 -3 55 -15 98 -27z m526 16 c0 -89 -65 -413 -105
-526 -84 -237 -83 -235 -150 -250 l-32 -7 -5 238 c-2 132 -3 299 0 373 l5 133
51 2 c45 1 204 35 215 47 9 9 21 3 21 -10z m-847 -347 c15 -120 -18 -302 -70
-380 -38 -57 -153 -169 -174 -169 -10 0 -7 20 31 195 24 108 120 429 137 458
3 4 19 -3 36 -16 28 -21 33 -33 40 -88z m1233 -94 c60 -181 109 -392 102 -435
-2 -17 -17 -8 -84 57 -129 125 -156 195 -157 406 0 110 1 119 23 142 13 14 31
24 39 23 10 -2 36 -68 77 -193z m-1067 0 c81 -89 289 -372 302 -412 16 -49 6
-233 -21 -378 -11 -60 -27 -162 -35 -225 -15 -112 -55 -278 -93 -390 l-19 -55
-7 79 c-23 256 -186 1004 -263 1211 -15 42 -18 71 -15 178 l4 127 48 -40 c27
-23 71 -65 99 -95z m910 68 c-5 -32 -6 -90 -3 -130 6 -64 3 -83 -30 -185 -69
-214 -213 -873 -240 -1093 -7 -60 -16 -103 -19 -95 -35 90 -97 364 -97 429 0
21 -14 107 -31 192 -40 197 -45 376 -12 449 11 25 31 54 43 65 12 11 60 72
107 135 79 107 268 304 283 295 4 -2 3 -30 -1 -62z m-2109 -63 c25 -16 56 -40
68 -53 l22 -23 -29 -55 c-18 -32 -36 -90 -46 -144 -22 -115 -48 -199 -95 -301
-56 -122 -79 -125 -39 -5 15 44 18 66 11 73 -16 16 -58 -15 -67 -49 -8 -34
-71 -147 -90 -163 -25 -20 -19 11 20 107 19 48 35 93 35 101 0 34 -29 -3 -81
-103 -58 -111 -79 -136 -79 -92 0 28 18 76 63 164 17 34 28 66 24 70 -11 10
-29 -13 -75 -92 -23 -38 -48 -79 -56 -90 -15 -19 -15 -19 -16 7 0 42 33 121
76 179 24 33 40 68 44 96 9 54 -3 62 -51 34 -34 -19 -89 -31 -99 -21 -10 11
136 133 194 162 91 46 111 63 136 115 32 69 60 113 72 113 6 0 32 -13 58 -30z
m3252 -54 c43 -83 75 -113 178 -166 55 -29 183 -134 174 -143 -8 -8 -85 12
-108 28 -11 8 -27 15 -34 15 -22 0 -10 -95 17 -128 40 -51 90 -156 91 -189 0
-25 -20 -12 -34 21 -17 41 -94 146 -107 146 -15 0 -10 -23 17 -70 41 -71 76
-172 64 -184 -14 -14 -22 -4 -73 99 -25 50 -52 99 -60 110 -31 41 -28 3 7 -88
38 -97 42 -117 27 -117 -15 0 -49 53 -87 135 -19 41 -36 75 -38 75 -3 0 -11 3
-20 6 -23 9 -21 -38 4 -110 26 -76 5 -70 -34 10 -16 32 -37 75 -47 94 -24 49
-56 162 -69 248 -7 40 -24 98 -39 127 l-28 54 41 33 c65 53 100 77 110 75 5
-2 27 -38 48 -81z m-2189 -181 c39 -125 109 -393 138 -530 l32 -149 -17 -86
c-26 -138 -56 -351 -57 -410 0 -30 -4 -64 -8 -75 -7 -17 -12 -13 -43 35 -46
72 -66 112 -126 255 -68 163 -80 207 -103 374 -22 165 -23 249 -6 341 11 54
22 76 64 128 27 34 61 89 74 122 13 33 26 56 30 52 4 -4 14 -29 22 -57z m1081
9 c11 -26 45 -79 78 -120 l58 -72 12 -106 c18 -160 -7 -375 -63 -540 -59 -177
-182 -426 -209 -426 -5 0 -11 35 -15 78 -4 42 -22 176 -41 298 l-34 220 30
123 c17 67 41 173 55 234 29 127 96 357 104 357 3 0 15 -21 25 -46z m226 -265
c14 -13 19 -53 30 -202 19 -278 13 -319 -88 -583 -56 -146 -98 -234 -111 -234
-28 0 -62 71 -63 132 -1 18 14 69 32 113 81 198 100 257 115 345 20 123 30
360 18 427 -6 29 -8 54 -6 57 4 4 36 -20 73 -55z m-1510 34 c-1 -10 -5 -52
-10 -93 -6 -53 -4 -117 6 -215 21 -205 34 -252 123 -463 49 -115 50 -122 41
-171 -12 -62 -24 -87 -50 -101 -17 -9 -22 -5 -40 30 -63 124 -166 429 -175
520 -6 61 9 384 21 440 2 14 19 35 37 47 40 27 47 28 47 6z m425 -743 c15
-105 25 -220 25 -287 0 -132 -4 -136 -86 -80 l-49 32 2 105 c1 92 43 410 60
450 9 23 19 -25 48 -220z m669 60 c14 -80 31 -197 37 -260 l11 -115 -37 -32
c-37 -32 -103 -68 -111 -60 -11 10 -3 263 11 357 17 112 44 249 53 265 7 12 7
13 36 -155z m-1163 -17 c6 -16 26 -72 45 -125 34 -99 96 -232 113 -242 19 -12
62 40 80 93 l18 54 37 -61 c46 -76 134 -158 187 -174 l41 -12 -7 -54 c-11 -87
-77 -262 -99 -262 -7 0 -19 6 -28 13 -14 10 -14 22 -5 85 7 50 7 82 -1 105 -9
29 -10 25 -11 -38 -1 -66 -13 -141 -24 -151 -3 -3 -21 1 -40 9 -25 11 -42 30
-63 69 -18 33 -41 59 -59 68 l-31 15 19 33 c11 19 16 39 12 50 -5 13 -12 5
-30 -35 -21 -47 -103 -149 -112 -140 -2 2 4 78 13 168 19 194 16 224 -36 406
-22 76 -40 141 -40 146 0 16 11 5 21 -20z m1570 -100 c-11 -43 -28 -103 -36
-133 -21 -74 -23 -201 -6 -337 8 -62 11 -116 8 -120 -13 -12 -78 61 -107 122
-31 63 -41 61 -15 -2 8 -20 14 -37 13 -38 -2 -1 -12 -7 -23 -13 -11 -6 -36
-36 -55 -68 -28 -45 -43 -60 -74 -71 -24 -8 -43 -10 -49 -4 -5 5 -12 57 -14
116 -4 66 -9 101 -15 93 -8 -12 -3 -120 8 -180 4 -22 0 -29 -26 -43 -18 -9
-33 -15 -34 -13 -15 27 -76 244 -78 276 -2 41 -1 43 40 63 57 29 135 100 173
160 18 27 35 49 39 49 4 0 12 -17 18 -39 11 -36 55 -91 73 -91 17 0 52 66 100
187 67 172 69 176 75 170 3 -3 -4 -41 -15 -84z m-1361 -580 c57 -94 50 -89
183 -117 15 -4 27 -13 27 -22 0 -9 -22 -61 -49 -117 -82 -172 -111 -247 -142
-371 -33 -138 -46 -251 -54 -501 -6 -168 -11 -222 -21 -213 -2 3 -10 38 -18
79 -8 41 -28 123 -45 184 -50 174 -61 293 -63 675 l-2 340 54 55 c69 70 90 71
130 8z m1288 -7 l57 -55 3 -257 c2 -141 -1 -313 -7 -383 -9 -102 -96 -584
-117 -641 -13 -37 -22 22 -23 149 -1 126 -13 303 -27 411 -16 123 -102 388
-169 519 -61 119 -62 127 -28 144 15 8 47 17 71 20 48 6 76 26 99 72 20 40 53
75 71 75 7 0 39 -24 70 -54z m-1083 -439 c-23 -235 -65 -401 -162 -635 -18
-45 -38 -105 -43 -133 -17 -90 -13 -225 11 -371 l24 -140 -28 -50 c-19 -34
-31 -74 -36 -122 -15 -126 -48 -175 -125 -183 -43 -5 -203 19 -252 37 -40 15
-32 62 22 133 59 79 77 115 102 207 28 102 71 198 81 181 37 -59 8 183 -57
489 -24 109 -27 148 -27 300 0 146 4 192 23 275 13 55 28 132 34 170 6 39 14
74 18 78 4 5 10 -130 13 -300 6 -332 10 -367 71 -612 20 -80 36 -154 36 -165
0 -12 5 -37 10 -58 8 -29 14 -35 30 -31 17 5 20 14 20 72 0 103 27 445 44 556
22 144 63 271 137 421 63 131 64 131 67 90 2 -22 -4 -117 -13 -209z m799 142
c26 -55 67 -160 92 -232 60 -175 80 -315 89 -624 4 -134 10 -243 12 -243 2 0
12 4 22 10 13 7 21 26 25 67 4 32 20 112 36 178 16 66 34 142 40 170 19 87 40
316 41 460 1 77 4 172 8 210 l6 70 13 -53 c38 -167 62 -345 62 -471 0 -116 -5
-157 -46 -359 -27 -136 -47 -265 -50 -322 -2 -52 -1 -89 2 -82 13 28 26 5 70
-135 46 -141 69 -188 153 -300 16 -22 22 -39 18 -56 -8 -30 -65 -44 -220 -53
-95 -6 -109 -5 -127 11 -27 24 -60 117 -60 168 0 27 -11 64 -30 102 -36 72
-37 92 -8 198 18 68 21 107 20 222 -1 152 -2 153 -91 383 -66 170 -108 355
-120 527 -6 83 -14 174 -16 203 -3 28 -1 52 3 52 5 0 30 -45 56 -101z"/>
</g>
</svg>
