<svg version="1.0" xmlns="http://www.w3.org/2000/svg"
 width="441.000000pt" height="762.000000pt" viewBox="0 0 441.000000 762.000000"
 preserveAspectRatio="xMidYMid meet">

<g transform="translate(0.000000,762.000000) scale(0.100000,-0.100000)"
fill="#000000" stroke="none">
<path d="M2042 7529 c-33 -13 -73 -41 -107 -73 -67 -66 -82 -113 -95 -295 -12
-160 -2 -232 46 -337 42 -90 46 -165 12 -210 -37 -50 -118 -120 -179 -156 -53
-32 -68 -36 -156 -41 -202 -12 -369 -93 -438 -211 -50 -87 -65 -159 -65 -308
0 -136 -1 -141 -36 -231 -80 -204 -121 -343 -128 -430 -2 -26 -10 -56 -18 -65
-21 -24 -138 -226 -170 -292 -63 -131 -140 -343 -173 -478 -54 -219 -91 -299
-189 -402 -105 -109 -161 -165 -219 -218 -48 -43 -60 -78 -32 -89 14 -5 73 30
147 87 44 34 34 4 -33 -100 -33 -52 -63 -109 -66 -127 -5 -31 -4 -33 25 -33
27 0 37 9 78 68 26 37 49 69 51 71 2 2 5 2 8 0 2 -3 -11 -37 -30 -77 -37 -79
-54 -130 -48 -149 3 -7 17 -13 32 -13 22 0 31 8 50 48 36 74 102 184 108 179
2 -3 -7 -48 -21 -100 -33 -119 -33 -143 -4 -151 36 -9 55 20 83 129 30 112 89
245 109 245 22 0 42 -32 66 -104 21 -63 48 -106 68 -106 5 0 16 6 26 13 17 13
16 21 -23 175 -67 263 -67 234 -4 375 59 130 198 355 294 477 74 94 147 255
161 355 8 56 16 78 42 110 99 122 159 236 197 373 20 75 30 92 35 59 4 -32 25
-211 34 -286 6 -47 24 -135 41 -195 l32 -111 -6 -180 c-4 -99 -11 -207 -17
-240 -12 -65 -56 -221 -100 -355 -30 -90 -59 -204 -85 -333 -23 -115 -24 -567
-1 -742 27 -218 19 -372 -29 -565 -15 -59 -30 -155 -34 -220 -8 -114 -16 -142
-77 -275 -47 -102 -81 -250 -89 -390 -3 -60 -10 -162 -15 -225 -25 -309 -40
-624 -41 -868 0 -152 2 -177 19 -210 32 -63 89 -77 191 -46 56 16 84 49 96
109 4 16 20 62 36 102 20 50 29 89 29 129 0 56 -1 57 -56 109 l-57 52 17 74
c26 116 170 425 252 538 43 61 55 122 64 341 10 254 26 333 84 442 71 133 140
351 166 528 14 93 36 165 90 300 85 212 120 374 121 573 1 92 33 228 49 210 4
-4 17 -37 28 -73 16 -50 21 -92 22 -183 1 -178 12 -231 100 -482 49 -137 92
-279 106 -350 50 -243 84 -349 170 -516 46 -91 56 -120 70 -210 11 -72 14
-138 10 -216 -6 -119 4 -210 31 -283 9 -25 55 -119 104 -210 79 -149 178 -388
193 -465 5 -27 0 -34 -49 -73 -30 -23 -58 -54 -61 -67 -7 -27 26 -176 57 -261
11 -28 31 -62 47 -76 68 -63 189 -63 246 1 18 20 19 39 18 319 -1 330 -16 560
-72 1125 -12 126 -20 152 -79 278 -68 145 -81 195 -81 312 0 80 -6 123 -31
214 -30 114 -30 115 -25 311 3 108 8 349 12 535 l5 339 -26 126 c-15 70 -56
227 -91 350 -79 278 -89 342 -89 572 0 179 1 189 32 295 18 61 40 169 48 240
9 72 20 148 24 170 l7 40 13 -55 c33 -135 91 -253 191 -385 32 -42 41 -66 58
-155 26 -129 76 -233 165 -345 35 -44 77 -102 92 -130 16 -27 62 -103 103
-169 139 -223 143 -246 86 -511 -27 -125 -33 -169 -25 -179 28 -34 61 8 115
147 10 24 21 37 33 37 27 0 69 -89 104 -221 32 -118 49 -149 81 -149 31 0 41
44 23 112 -27 107 -19 109 45 11 48 -75 65 -93 84 -93 42 0 47 43 11 98 -13
20 -31 55 -40 77 l-16 40 59 -62 c62 -67 72 -72 92 -48 10 12 10 22 -1 47 -18
46 -99 182 -110 186 -11 4 -12 22 -1 22 4 0 31 -23 60 -50 42 -39 61 -50 87
-50 61 0 51 24 -53 128 -104 103 -236 248 -264 291 -18 27 -58 148 -104 316
-70 255 -179 502 -312 704 -32 47 -36 61 -37 125 -2 84 -40 203 -115 363 l-50
106 0 141 c0 226 -34 333 -132 421 -79 71 -277 135 -418 135 -42 0 -74 7 -103
21 -61 31 -163 114 -186 153 -30 49 -28 138 4 212 39 88 55 164 55 261 0 135
-17 251 -46 310 -65 135 -243 199 -392 142z m263 -44 c111 -57 142 -127 152
-336 l6 -126 -42 -80 c-54 -104 -102 -159 -150 -174 -21 -6 -79 -9 -132 -7
-91 3 -96 5 -146 41 -42 31 -60 54 -94 120 l-41 82 5 150 c2 83 10 168 17 189
6 21 31 59 53 83 92 96 250 121 372 58z m124 -607 c-44 -111 -48 -124 -49
-160 0 -21 -4 -38 -10 -38 -5 0 -20 17 -33 38 l-24 37 42 55 c24 30 50 70 59
88 27 52 38 37 15 -20z m-524 3 c9 -22 36 -58 58 -82 l40 -42 -23 -43 c-12
-24 -26 -44 -30 -44 -4 0 -10 25 -14 56 -3 30 -17 76 -30 102 -13 26 -27 57
-30 70 -12 37 10 25 29 -17z m426 -188 c47 -82 138 -182 219 -239 38 -27 69
-52 70 -56 0 -4 -16 -29 -37 -55 -81 -106 -126 -262 -139 -478 -7 -124 -26
-178 -107 -302 -24 -37 -70 -121 -102 -186 -32 -64 -62 -120 -67 -123 -16 -10
-39 19 -83 106 -24 47 -75 141 -115 209 -39 68 -79 142 -87 165 -8 23 -18 102
-23 176 -8 139 -37 285 -66 343 -9 17 -31 50 -49 72 -45 56 -61 88 -46 93 6 2
51 35 100 72 93 72 140 123 186 203 l28 48 41 -8 c52 -10 143 -7 176 6 52 21
67 14 101 -46z m-638 -324 c17 -31 17 -31 -12 -67 -53 -67 -99 -104 -178 -147
-89 -47 -118 -82 -128 -155 l-7 -49 -96 -38 c-71 -27 -110 -50 -146 -83 l-48
-45 4 145 c5 156 19 212 73 290 72 103 255 171 480 179 35 1 42 -3 58 -30z
m1150 21 c133 -19 260 -89 318 -173 61 -89 71 -127 77 -284 2 -79 3 -143 0
-143 -2 0 -29 24 -59 53 -44 43 -67 56 -119 71 -107 30 -120 40 -120 89 0 65
-28 99 -124 153 -52 29 -108 71 -147 111 l-64 63 19 35 c19 35 20 35 85 35 36
0 96 -5 134 -10z m-34 -250 c45 -22 88 -52 98 -66 32 -49 11 -255 -33 -322
-49 -75 -124 -77 -273 -7 -54 25 -106 45 -117 45 -18 0 -19 6 -16 108 2 71 12
143 29 212 27 113 33 128 71 178 l26 34 68 -71 c50 -52 88 -81 147 -111z
m-1032 100 c36 -72 57 -179 68 -346 l6 -102 -37 -7 c-21 -3 -70 -24 -110 -45
-76 -40 -145 -57 -189 -46 -14 4 -41 21 -60 39 -29 27 -37 45 -50 109 -35 176
-15 229 113 297 63 33 98 61 139 108 33 37 63 63 72 61 9 -2 31 -32 48 -68z
m-391 -381 c6 -35 16 -83 23 -105 31 -113 31 -131 -4 -258 -55 -201 -95 -285
-188 -398 -30 -35 -36 -38 -84 -38 l-53 0 0 45 c0 24 11 79 25 122 40 125 27
219 -28 211 -31 -4 -56 -81 -67 -204 -5 -56 -16 -119 -25 -140 -13 -33 -17
-36 -30 -23 -8 8 -22 44 -32 80 -16 62 -16 70 1 155 17 87 93 305 144 413 39
84 93 132 197 173 50 20 95 35 100 34 6 -2 15 -31 21 -67z m1630 47 c92 -31
125 -49 163 -87 65 -65 175 -323 210 -492 l19 -97 -20 -73 c-11 -39 -26 -78
-33 -86 -22 -22 -41 39 -49 157 -12 176 -51 247 -106 192 -27 -27 -26 -69 5
-174 14 -47 25 -109 25 -136 l0 -50 -43 0 c-51 0 -68 15 -147 134 -63 95 -90
159 -125 297 -29 113 -29 189 -1 293 8 28 17 72 21 99 3 26 7 47 9 47 1 0 34
-11 72 -24z m-1160 -153 c17 -53 32 -83 82 -162 30 -47 81 -137 112 -199 32
-62 64 -119 70 -127 10 -12 1 -21 -51 -52 -88 -52 -152 -119 -173 -178 -9 -29
-16 -80 -16 -128 0 -78 -20 -178 -43 -220 -20 -36 -68 -97 -76 -97 -5 0 -11
39 -14 86 -6 100 -31 157 -120 273 -93 120 -124 184 -131 276 -4 44 -16 141
-26 215 -20 146 -32 270 -27 270 1 0 20 -9 42 -20 78 -40 136 -27 295 61 43
24 69 24 76 2z m745 -30 c117 -58 166 -64 231 -30 l48 24 -6 -56 c-3 -31 -10
-90 -15 -131 -5 -41 -18 -146 -29 -233 -17 -144 -22 -163 -54 -221 -20 -35
-53 -86 -74 -113 -106 -133 -141 -215 -142 -325 0 -27 -4 -48 -8 -48 -10 0
-66 92 -88 145 -9 22 -19 88 -24 150 -13 185 -55 258 -187 324 -35 17 -63 32
-63 34 0 13 106 215 161 309 64 108 83 145 102 201 10 28 47 20 148 -30z
m-1491 -329 c15 -39 12 -67 -16 -151 -14 -43 -26 -105 -27 -138 l-2 -60 51 -3
50 -3 -8 -66 c-10 -69 -59 -204 -102 -277 -14 -24 -45 -67 -69 -97 -71 -87
-221 -327 -266 -424 -72 -155 -57 -140 -142 -139 -48 1 -86 7 -107 18 -17 9
-32 18 -32 21 0 2 16 40 35 83 19 44 57 160 84 258 27 98 57 202 66 229 44
129 240 492 272 502 6 2 14 -12 17 -31 6 -34 40 -86 56 -86 18 0 44 93 56 207
13 123 32 183 60 183 8 0 19 -12 24 -26z m2152 -15 c10 -20 21 -82 28 -151 10
-119 32 -188 57 -188 16 0 50 53 58 92 4 15 10 28 14 28 8 0 108 -163 144
-236 63 -125 150 -355 188 -491 42 -156 82 -273 107 -311 20 -31 5 -46 -66
-65 -81 -21 -116 -27 -128 -19 -6 4 -23 38 -38 76 -34 85 -209 371 -304 496
-79 104 -133 221 -158 339 -17 84 -14 91 48 91 27 0 38 5 43 20 8 24 -10 122
-36 197 -24 70 -28 125 -10 147 19 23 33 16 53 -25z m-1043 -172 c157 -79 182
-119 200 -318 12 -120 35 -192 86 -263 19 -27 35 -54 35 -60 0 -6 -27 -19 -61
-29 -34 -10 -81 -27 -106 -39 -58 -27 -156 -118 -189 -175 -14 -23 -27 -43
-29 -43 -2 0 -15 21 -30 48 -55 95 -142 161 -265 202 -36 11 -71 23 -78 25 -8
3 3 25 32 65 61 83 78 140 80 270 2 93 5 113 29 161 15 31 35 63 44 72 26 23
176 107 192 107 7 0 34 -11 60 -23z m540 -257 c-10 -54 -8 -357 3 -412 2 -7
-5 -13 -17 -12 -29 2 -166 32 -172 38 -11 10 17 187 35 228 19 43 153 230 160
224 2 -2 -2 -32 -9 -66z m-1140 -23 c87 -115 103 -154 112 -265 4 -53 6 -98 4
-100 -2 -2 -33 -10 -70 -17 -37 -8 -75 -17 -84 -20 -15 -4 -16 14 -16 188 0
105 -4 213 -8 240 -5 26 -5 47 0 47 4 -1 32 -33 62 -73z m161 -395 c0 -3 -44
-50 -98 -106 -103 -107 -116 -130 -156 -278 -16 -57 -117 -221 -123 -201 -4
12 20 96 92 323 24 74 47 156 50 182 8 52 3 49 120 77 40 9 115 11 115 3z
m903 -11 c43 -10 80 -20 82 -22 2 -2 13 -42 24 -89 19 -76 43 -166 109 -397
11 -40 18 -73 15 -73 -24 0 -126 185 -143 260 -20 89 -52 140 -148 234 -50 50
-89 93 -86 98 8 13 63 9 147 -11z m30 -220 c14 -25 33 -75 42 -111 9 -36 34
-101 55 -145 46 -96 55 -147 40 -239 -28 -174 -118 -240 -360 -263 -103 -10
-180 -5 -219 14 -32 16 -37 24 -47 78 -7 33 -22 84 -33 113 -19 47 -21 76 -22
275 -2 210 -1 225 20 270 44 95 149 183 261 218 l55 17 92 -90 c50 -50 103
-112 116 -137z m-786 184 c79 -39 157 -116 192 -188 l30 -62 -1 -214 c-1 -209
-2 -217 -29 -299 -16 -46 -29 -99 -29 -117 0 -31 -4 -35 -47 -51 -51 -20 -120
-23 -253 -11 -104 10 -209 56 -263 117 -79 87 -89 242 -24 386 20 44 44 109
53 145 24 94 37 114 148 227 115 118 117 118 223 67z m2122 -585 c53 -57 113
-120 133 -138 21 -19 35 -38 32 -43 -11 -19 -41 -7 -84 34 -47 44 -114 97
-124 97 -16 0 0 -36 57 -126 64 -101 91 -160 78 -169 -11 -6 -69 57 -135 148
-32 44 -59 77 -62 74 -7 -7 23 -83 72 -183 25 -52 44 -104 42 -116 l-3 -23
-25 27 c-14 14 -54 76 -89 137 -35 61 -67 109 -71 106 -4 -3 3 -56 16 -117 28
-130 30 -178 10 -178 -17 0 -28 29 -61 154 -28 106 -80 209 -109 214 -28 6
-53 -25 -76 -92 -21 -63 -54 -115 -65 -104 -4 3 13 99 37 212 l43 206 30 0
c17 0 65 13 109 28 l78 28 36 -36 c19 -19 79 -82 131 -140z m-3576 135 c20 -8
68 -18 106 -21 63 -6 71 -9 72 -28 1 -25 1 -27 28 -139 11 -49 23 -101 26
-115 3 -15 7 -38 10 -52 15 -74 16 -88 7 -94 -14 -9 -51 55 -71 122 -13 42
-24 61 -45 72 -26 14 -28 14 -49 -13 -28 -35 -57 -105 -97 -234 -35 -112 -52
-137 -69 -104 -9 15 -7 34 8 78 24 70 44 173 39 199 -3 19 -40 -38 -121 -187
-20 -36 -43 -72 -52 -79 -35 -29 -24 24 30 147 54 121 75 183 61 183 -3 0 -37
-46 -74 -102 -80 -118 -107 -147 -124 -130 -8 8 0 26 29 69 79 118 129 223
105 223 -7 0 -68 -40 -142 -94 -72 -52 -56 -18 31 67 46 45 119 119 161 165
42 45 81 82 86 82 5 0 26 -7 45 -15z m973 -183 c1 -114 9 -140 60 -201 43 -52
109 -91 186 -110 88 -22 88 -10 18 -219 -50 -149 -73 -260 -85 -406 -12 -142
-55 -250 -138 -351 -28 -34 -142 -125 -157 -125 -5 0 -4 15 1 32 5 18 18 85
30 148 18 96 20 137 15 252 -3 75 -10 168 -17 207 -17 111 -8 705 12 756 13
35 65 125 72 125 1 0 2 -48 3 -108z m1467 41 c44 -83 49 -139 43 -503 -3 -184
-9 -426 -12 -537 -5 -195 -5 -205 20 -296 14 -52 26 -100 26 -106 0 -6 -23 6
-51 26 -153 110 -218 229 -249 463 -24 171 -41 251 -90 411 -28 89 -49 168
-46 175 2 6 26 15 52 19 58 8 150 48 182 78 13 12 33 40 44 61 25 48 48 177
41 223 -8 47 9 41 40 -14z m-827 -450 c-8 -155 -31 -241 -129 -498 -19 -49
-37 -99 -42 -110 -7 -20 -7 -20 -15 0 -4 12 -20 108 -34 215 -45 331 -57 414
-63 443 l-5 27 93 0 c65 1 109 7 144 19 28 10 52 19 54 20 2 0 1 -52 -3 -116z
m357 82 c60 5 77 4 77 -7 0 -7 -9 -67 -20 -132 -11 -66 -29 -190 -40 -275 -20
-155 -36 -252 -46 -281 -7 -19 -150 371 -169 460 -14 62 -21 241 -10 252 3 3
34 -1 68 -9 43 -10 86 -13 140 -8z m-639 -147 c9 -57 21 -157 26 -223 12 -134
24 -212 47 -300 8 -33 15 -76 15 -95 -1 -49 -38 -228 -68 -330 -30 -97 -125
-311 -137 -307 -5 1 -25 41 -46 87 -21 47 -53 109 -71 138 -32 53 -33 53 -28
161 3 87 8 114 25 142 38 62 63 156 78 298 16 153 27 203 79 359 19 56 38 118
42 137 3 19 10 35 14 35 4 0 14 -46 24 -102z m780 -43 c57 -207 73 -276 80
-345 14 -139 29 -208 62 -285 18 -44 38 -109 44 -145 11 -75 3 -188 -15 -210
-8 -8 -36 -62 -64 -119 -28 -58 -53 -106 -55 -109 -3 -2 -27 40 -54 95 -58
114 -101 248 -136 415 l-24 117 49 290 c26 160 51 325 55 366 4 42 10 73 14
68 4 -4 24 -66 44 -138z m296 -848 c0 -5 -9 -21 -19 -36 -11 -15 -28 -53 -39
-85 -16 -48 -20 -54 -26 -34 -3 13 -6 75 -6 138 l0 114 45 -44 c25 -24 45 -48
45 -53z m-1360 -42 c0 -74 -4 -125 -10 -125 -5 0 -16 24 -25 53 -8 28 -24 65
-35 82 l-20 30 42 42 c23 24 43 43 45 43 2 0 3 -56 3 -125z m1431 -1 l49 -36
0 -88 c0 -100 18 -170 78 -301 63 -137 75 -181 87 -339 3 -41 10 -111 14 -155
5 -44 5 -83 2 -87 -10 -11 -83 28 -119 63 -50 49 -90 142 -113 264 -31 165
-74 331 -109 414 l-30 74 20 76 c19 67 56 151 68 151 2 0 26 -16 53 -36z
m-1516 -4 c27 -48 65 -159 65 -187 0 -16 -9 -47 -19 -69 -32 -67 -60 -162 -95
-335 -56 -266 -88 -337 -181 -390 -27 -16 -56 -29 -62 -29 -19 0 -16 109 6
275 20 149 33 193 88 320 64 145 73 181 73 285 l0 97 48 31 c26 16 51 29 55
28 5 -1 15 -13 22 -26z m159 -170 c13 -25 35 -75 50 -112 26 -66 26 -66 10
-145 -9 -45 -17 -159 -20 -268 -5 -162 -9 -202 -30 -270 -33 -112 -35 -113
-79 -89 -60 31 -112 84 -150 153 -30 54 -34 69 -26 90 6 14 20 69 32 121 51
222 81 335 108 403 16 40 32 94 35 121 11 74 16 83 33 60 8 -10 25 -39 37 -64z
m1186 42 c0 -16 14 -66 31 -113 48 -129 77 -231 94 -332 9 -50 28 -134 41
-185 l25 -93 -28 -50 c-32 -61 -117 -147 -152 -156 -35 -9 -64 29 -86 113 -14
54 -18 114 -20 274 -2 156 -6 219 -19 264 -16 58 -16 61 5 115 29 73 91 191
101 191 4 0 8 -13 8 -28z m-1411 -796 c41 -74 86 -123 133 -147 22 -11 38 -25
36 -32 -2 -7 -44 -91 -93 -187 -109 -212 -111 -219 -136 -349 -22 -121 -26
-216 -5 -118 8 34 23 34 64 0 45 -40 55 -92 30 -171 -18 -58 -38 -82 -38 -45
0 9 -3 13 -7 9 -4 -4 -6 -33 -5 -65 3 -46 -1 -62 -19 -85 -55 -71 -192 -77
-235 -11 -15 23 -17 51 -15 198 1 95 6 264 11 377 5 113 12 267 16 343 4 84
11 142 18 148 6 5 40 28 74 50 40 27 75 60 95 90 18 27 35 49 39 49 3 0 20
-24 37 -54z m1636 27 c32 -51 70 -85 126 -113 l56 -29 12 -133 c7 -73 16 -180
21 -238 11 -122 15 -704 5 -719 -14 -24 -80 -42 -126 -36 -95 13 -146 71 -134
151 4 29 2 44 -4 44 -6 0 -11 -5 -11 -12 0 -25 -19 8 -34 61 -25 85 -21 110
21 153 50 51 73 51 73 -3 0 -25 4 -38 10 -34 15 9 2 128 -22 205 -38 119 -106
279 -165 388 -32 59 -59 110 -61 114 -2 4 14 16 36 27 47 24 109 92 143 156
13 25 27 45 30 45 4 0 15 -12 24 -27z"/>
</g>
</svg>
