<?xml version="1.0" encoding="UTF-8" standalone="no"?>
<svg
   version="1.0"
   width="80.485001pt"
   height="103.131pt"
   viewBox="0 0 80.485001 103.131"
   preserveAspectRatio="xMidYMid"
   id="svg1"
   sodipodi:docname="MuscleBackHead.svg"
   inkscape:version="1.3 (0e150ed6c4, 2023-07-21)"
   xmlns:inkscape="http://www.inkscape.org/namespaces/inkscape"
   xmlns:sodipodi="http://sodipodi.sourceforge.net/DTD/sodipodi-0.dtd"
   xmlns="http://www.w3.org/2000/svg"
   xmlns:svg="http://www.w3.org/2000/svg">
  <g
     transform="matrix(0.1,0,0,-0.1,-229.01452,944.1125)"
     fill="#000000"
     stroke="none"
     id="g1">
    <path
       style="fill:#ffffff;stroke-width:0.193463"
       d="m 29.113613,132.40341 c -2.277794,-1.59634 -6.49107,-7.91744 -7.40542,-8.64756 -1.890074,-1.50925 -4.920718,-6.43166 -6.238843,-8.16014 C 12.923445,112.25722 9.1512438,107.38194 5.8534059,100.7799 2.6657491,94.398431 2.7803576,91.245729 2.3228538,87.166343 2.0300592,84.555607 1.9258691,68.961019 2.2187297,62.908751 2.8611919,49.631602 5.7334439,37.429208 7.46249,31.900541 10.351439,22.663055 19.070329,12.417429 32.005843,7.7134304 34.909907,6.6573679 41.088988,4.0317162 44.264314,3.5175761 c 1.617788,-0.2619477 5.349098,-2.02801 6.340912,-1.0276066 l 6.431821,0.02834 7.913138,1.6376474 c 8.328283,1.7235625 10.251274,2.6911918 17.287569,6.2552131 13.906344,7.043836 19.331526,17.47264 22.124596,36.771105 0.98859,6.830611 3.93138,12.129061 1.80983,28.03875 l 0.30357,12.359219 -3.40098,9.317433 c -5.217553,14.294203 -10.980172,19.454763 -16.191347,25.585893 -2.8899,3.40008 -10.437707,8.72315 -12.673337,9.75616 -2.625362,1.21311 -4.6118,2.33916 -24.015381,2.33604 l -14.493148,-0.82279 z"
       id="path2"
       sodipodi:nodetypes="cssssssssscsssscsssccc"
       transform="matrix(7.5,0,0,-7.5,2290.1452,9441.125)" />
    <path
       d="m 2585,9426 c -22,-7 -55,-21 -74,-31 -50,-25 -140,-113 -163,-158 -30,-60 -47,-167 -54,-343 -7,-155 -6,-163 16,-207 13,-25 27,-45 31,-44 5,1 21,-19 36,-46 48,-82 125,-165 163,-177 84,-24 295,-3 357,36 12,7 49,55 83,106 34,51 74,106 88,121 l 27,28 -1,177 c -1,245 -27,346 -112,435 -95,99 -269,144 -397,103 z m 174,-36 c 76,-13 164,-56 208,-102 64,-67 88,-157 99,-378 l 7,-125 -38,-75 c -52,-104 -108,-184 -152,-217 -36,-28 -38,-28 -182,-28 h -146 l -46,32 c -63,43 -93,81 -140,174 -39,78 -39,79 -39,196 0,155 16,296 37,342 41,86 157,165 267,181 28,4 53,8 56,9 3,0 34,-4 69,-9 z"
       id="path1" />
  </g>
</svg>
