<?xml version="1.0" encoding="UTF-8" standalone="no"?>
<svg
   version="1.0"
   width="97.282997pt"
   height="178.713pt"
   viewBox="0 0 97.282997 178.713"
   preserveAspectRatio="xMidYMid"
   id="svg1"
   sodipodi:docname="MuscleBackForearmL.svg"
   inkscape:version="1.3 (0e150ed6c4, 2023-07-21)"
   xmlns:inkscape="http://www.inkscape.org/namespaces/inkscape"
   xmlns:sodipodi="http://sodipodi.sourceforge.net/DTD/sodipodi-0.dtd"
   xmlns="http://www.w3.org/2000/svg"
   xmlns:svg="http://www.w3.org/2000/svg">
  <g
     transform="matrix(0.1,0,0,-0.1,-51.388491,679.93766)"
     fill="#000000"
     stroke="none"
     id="g1">
    <path
       style="fill:#ffffff;stroke-width:0.547197"
       d="M 15.797949,233.73542 C 13.558176,233.35008 2.9365643,230.26469 2.0431876,228.5954 1.6787931,227.91453 5.2221761,221.07515 7.4011827,215.34232 13.373023,199.63077 17.883492,184.67542 26.849933,154.04963 34.20577,128.92502 37.430657,119.77032 47.526063,99.598379 60.794631,73.086038 79.391934,43.269035 81.154301,44.358237 c 0.267601,0.165389 4.333838,6.168973 4.98678,8.198402 2.344175,7.285966 5.240132,9.822535 7.732906,9.1367 4.219035,-1.160779 2.520693,-4.746327 6.500273,-30.779572 2.90117,-18.978641 6.51583,-25.9397561 9.32162,-28.4326498 1.38413,-1.2297789 5.54134,-0.7841687 7.36443,1.6662266 0.97492,1.310375 1.59958,4.3037295 1.56022,9.3762042 -0.0475,6.123317 -0.67936,12.177757 -3.36622,22.428134 -2.52646,9.638483 -3.88415,16.999423 -4.29002,24.277736 l -0.53206,3.924414 8.80494,-1.039865 8.32128,0.241825 -0.53199,9.477067 c -0.70163,12.499024 -9.1861,36.793741 -15.84951,47.877871 -3.1046,5.16428 -9.24425,15.32668 -15.993806,24.7371 -17.348166,24.18728 -29.280644,43.60401 -42.840207,69.94255 -7.186824,13.95992 -11.197189,18.94798 -14.106693,20.32862 -2.055367,0.97534 -5.257015,0.9724 -8.944233,0.33803 z"
       id="path2"
       sodipodi:nodetypes="sssssssssssssscccsssssss"
       transform="matrix(7.5,0,0,-7.5,513.88491,6799.3766)" />
    <path
       d="m 1315,6778 c -24,-35 -43,-111 -60,-246 -8,-68 -22,-140 -30,-160 -13,-31 -17,-34 -29,-21 -8,8 -23,43 -34,79 -14,48 -24,65 -37,65 -12,0 -44,-43 -97,-130 -151,-247 -267,-514 -344,-793 -67,-242 -96,-327 -137,-405 -35,-67 -39,-79 -27,-91 26,-23 97,-45 188,-57 89,-12 142,-8 142,12 0,22 80,190 140,296 75,130 185,299 266,409 66,88 144,232 175,322 28,80 61,239 55,260 -5,14 -16,16 -72,14 l -67,-4 7,58 c 4,32 18,101 31,153 29,110 33,206 9,239 -20,29 -58,28 -79,0 z m 66,-29 c 15,-30 7,-108 -24,-223 -16,-58 -27,-124 -27,-162 v -64 h 61 61 l -7,-57 c -8,-70 -63,-240 -104,-320 -16,-32 -68,-112 -116,-177 -122,-164 -253,-376 -336,-544 -81,-162 -77,-159 -195,-148 -72,6 -134,27 -134,45 0,5 18,53 39,107 22,55 72,209 111,344 76,267 96,320 178,485 93,187 216,395 234,395 4,0 10,-12 14,-27 11,-49 53,-113 74,-113 26,0 54,94 75,250 23,168 42,230 70,230 8,0 19,-9 26,-21 z"
       id="path1" />
  </g>
</svg>
