<?xml version="1.0" encoding="UTF-8" standalone="no"?>
<svg
   version="1.0"
   width="91.941002pt"
   height="128.616pt"
   viewBox="0 0 91.941002 128.616"
   preserveAspectRatio="xMidYMid"
   id="svg1"
   sodipodi:docname="MuscleBackGluteR.svg"
   inkscape:version="1.3 (0e150ed6c4, 2023-07-21)"
   xmlns:inkscape="http://www.inkscape.org/namespaces/inkscape"
   xmlns:sodipodi="http://sodipodi.sourceforge.net/DTD/sodipodi-0.dtd"
   xmlns="http://www.w3.org/2000/svg"
   xmlns:svg="http://www.w3.org/2000/svg">
  <defs
     id="defs1" />
  <sodipodi:namedview
     id="namedview1"
     pagecolor="#ffffff"
     bordercolor="#000000"
     borderopacity="0.25"
     inkscape:showpageshadow="2"
     inkscape:pageopacity="0.0"
     inkscape:pagecheckerboard="0"
     inkscape:deskcolor="#d1d1d1"
     inkscape:document-units="pt"
     showgrid="false"
     inkscape:zoom="5.6568543"
     inkscape:cx="68.059027"
     inkscape:cy="114.10936"
     inkscape:window-width="1920"
     inkscape:window-height="1017"
     inkscape:window-x="-8"
     inkscape:window-y="-8"
     inkscape:window-maximized="1"
     inkscape:current-layer="svg1" />
  <g
     transform="matrix(-0.1,0,0,-0.1,271.8,568.14723)"
     fill="#000000"
     stroke="none"
     id="g1"
     inkscape:label="g1">
    <path
       style="fill:#ffffff;stroke-width:0.193463"
       d="m 58.997062,169.91523 c -0.532024,-0.0383 -4.369956,-0.52078 -6.01923,-0.63506 -15.75025,-2.90803 -20.370391,-7.59678 -33.38355,-14.52276 C 10.984322,150.17494 6.479133,139.72481 3.720105,131.53676 2.3466584,127.46074 1.1828394,123.61149 1.3037784,111.58317 1.4408584,97.949503 1.7029001,97.461683 6.1098571,85.600058 8.5886658,78.928174 12.641974,72.950447 15.486614,64.686862 20.087979,51.320054 21.112112,46.711252 23.157963,42.66426 26.007814,37.026836 29.263677,33.040705 39.098911,22.636655 50.871514,10.183193 55.562662,4.9624195 59.941146,2.7694036 64.678295,0.39674585 70.975486,3.4327064 78.683832,6.9611012 86.8792,10.712425 94.845929,14.56944 101.87775,22.528898 c 7.04094,7.969776 10.35391,13.019703 15.44509,21.27328 l 2.71179,4.396211 0.69806,17.429544 c 0.51894,12.957072 0.18749,17.535327 0.0766,24.983663 -0.49998,33.580784 -1.85059,36.335174 -5.03665,46.330014 -2.83613,8.89708 -3.11131,13.79575 -4.12026,19.80409 -0.94001,5.5978 -3.39959,6.50935 -7.0577,8.40848 -3.25263,1.68862 -17.426781,2.80601 -25.351957,3.55323 -2.131099,0.20093 -18.237642,1.35226 -20.245661,1.20782 z"
       id="path2"
       sodipodi:nodetypes="scssssssssssscscsssss"
       transform="matrix(7.5,0,0,-7.5,1798.5884,5681.4723)" />
    <path
       d="m 2228,5665 c -46,-31 -220,-223 -252,-278 -15,-24 -42,-92 -61,-151 -19,-59 -50,-134 -70,-167 -48,-82 -51,-100 -43,-252 7,-159 17,-187 93,-266 59,-61 123,-98 220,-126 33,-10 65,-21 70,-25 18,-14 316,6 365,25 25,9 54,18 65,18 17,2 22,16 38,107 10,60 28,125 41,152 l 24,46 -3,302 c -3,247 -6,304 -18,313 -8,7 -31,38 -51,69 -54,82 -135,152 -230,197 -122,59 -147,64 -188,36 z m 175,-61 c 93,-47 202,-154 247,-243 l 32,-64 -4,-276 c -4,-270 -5,-278 -32,-361 -16,-47 -31,-107 -35,-135 -6,-46 -9,-52 -46,-70 -54,-27 -244,-33 -368,-12 -161,28 -290,111 -338,220 -20,44 -24,68 -23,162 0,97 3,119 28,185 16,41 49,133 73,205 52,149 58,160 167,275 160,169 177,175 299,114 z"
       id="path1" />
  </g>
</svg>
