<?xml version="1.0" encoding="UTF-8" standalone="no"?>
<svg
   version="1.0"
   width="42.407001pt"
   height="87.588997pt"
   viewBox="0 0 42.407001 87.588997"
   preserveAspectRatio="xMidYMid"
   id="svg1"
   sodipodi:docname="MuscleBackObligueR.svg"
   inkscape:version="1.3 (0e150ed6c4, 2023-07-21)"
   xmlns:inkscape="http://www.inkscape.org/namespaces/inkscape"
   xmlns:sodipodi="http://sodipodi.sourceforge.net/DTD/sodipodi-0.dtd"
   xmlns="http://www.w3.org/2000/svg"
   xmlns:svg="http://www.w3.org/2000/svg">
  <g
     transform="matrix(-0.1,0,0,-0.1,228.56178,647.85538)"
     fill="#000000"
     stroke="none"
     id="g1">
    <path
       style="fill:#ffffff;stroke-width:0.193463"
       d="M 9.4572593,111.96401 C 8.6230024,108.36298 9.2820196,105.72813 9.1569706,103.19056 8.7194746,94.312614 10.471722,63.101532 10.460735,47.955416 10.452335,36.31786 4.5315731,15.425129 5.1680331,15.64388 c 0.230588,0.07925 23.1447529,31.721775 24.7833039,34.179296 7.999343,11.997525 12.277055,24.368903 12.893922,37.630943 0.129605,2.786393 1.350012,15.486721 1.094584,16.446061 -0.118939,0.44671 -3.622732,1.87883 -9.105216,3.12488 -10.110339,2.29785 -15.535347,3.57757 -17.957753,3.70016 -1.815339,0.0919 -2.714526,2.83659 -7.4196147,1.23879 z"
       id="path2"
       sodipodi:nodetypes="cscssssscc"
       transform="matrix(7.5,0,0,-7.5,1861.5462,6478.5538)" />
    <path
       d="m 1864,6466 c -9,-23 7,-106 44,-231 29,-100 31,-184 11,-479 -5,-82 -8,-150 -6,-153 3,-2 22,5 44,17 70,36 275,68 258,40 -4,-6 8,-10 28,-10 42,0 59,27 23,36 -49,12 -66,44 -77,145 -16,153 -43,213 -173,388 -63,85 -126,195 -126,222 0,8 -4,21 -10,29 -7,12 -10,12 -16,-4 z m 171,-332 c 96,-126 130,-231 123,-370 l -3,-59 -93,-21 c -66,-15 -95,-18 -97,-10 -2,6 -6,137 -8,291 -4,211 -2,276 7,265 6,-8 38,-51 71,-96 z"
       id="path1" />
  </g>
</svg>
