<?xml version="1.0" encoding="UTF-8" standalone="no"?>
<svg
   version="1.0"
   width="75.410004pt"
   height="144.918pt"
   viewBox="0 0 75.410004 144.918"
   preserveAspectRatio="xMidYMid"
   id="svg2"
   sodipodi:docname="MuscleBackCalvesL.svg"
   inkscape:version="1.3 (0e150ed6c4, 2023-07-21)"
   xmlns:inkscape="http://www.inkscape.org/namespaces/inkscape"
   xmlns:sodipodi="http://sodipodi.sourceforge.net/DTD/sodipodi-0.dtd"
   xmlns="http://www.w3.org/2000/svg"
   xmlns:svg="http://www.w3.org/2000/svg">
  <g
     transform="matrix(0.1,0,0,-0.1,-137.15,311)"
     fill="#000000"
     stroke="none"
     id="g2">
    <path
       style="fill:#ffffff;stroke-width:0.176777"
       d="m 3.6993292,174.93344 c -0.7653389,-0.78273 -0.1809648,-3.69868 -0.274963,-8.32089 -0.2657161,-13.06618 2.6580445,-38.97539 6.0860728,-56.47866 1.376893,-7.03031 5.848812,-18.40926 12.29124,-34.244911 9.84,-24.186966 10.464206,-26.273125 11.251122,-41.918824 0.146705,-2.916816 0.236733,-7.802807 0.384481,-11.302985 0.14775,-3.500179 0.702457,-6.824583 0.906242,-7.602242 l 0.81216,-3.099263 5.284598,-4.0150023 C 45.910339,3.7947571 51.133935,2.2464319 52.24196,2.2464319 c 0.840285,0 4.733308,3.0964226 6.339711,6.3014011 2.793567,5.573524 9.147831,19.076087 10.197666,24.563078 0.241708,1.263292 0.210285,5.985692 -0.193213,7.646236 -0.600077,2.469534 -1.463119,7.181747 -3.36556,12.311653 -4.294079,11.578914 -8.090308,23.570816 -11.994432,40.428496 -9.037802,39.024464 -11.832305,51.778354 -15.996785,60.254234 -2.030714,4.13307 -5.795306,7.92243 -9.096752,11.24282 -4.179009,4.20298 -11.604032,10.98405 -16.118091,12.3783 -1.521076,0.46981 -5.1007795,0.84824 -5.5651788,0.37329 z"
       id="path2"
       sodipodi:nodetypes="ssssssscssssssssssss"
       transform="matrix(7.5,0,0,-7.5,1371.3597,3109.7099)" />
    <path
       style="fill:#ffffff;stroke-width:0.176777"
       d="M 73.33074,186.38066 C 68.942046,185.15764 61.546283,179.62251 56.321182,174.4169 50.026197,168.14539 43.44221,157.59371 41.297258,151.18502 c -0.507332,-1.51581 -1.029742,-4.43866 -0.934851,-5.71513 0.430894,-5.79643 12.310507,-53.89767 19.402307,-78.46329 0.729774,-2.527906 3.20574,-11.75417 4.360942,-15.254349 3.544855,-10.740646 3.859248,-12.196241 5.487372,-19.811126 1.492856,-6.982224 3.56695,-10.061631 4.213318,-10.309666 0.40184,-0.1542 4.129656,1.864173 5.307657,3.689618 2.037777,3.157766 5.152354,9.082722 9.994331,19.479252 2.955363,6.345656 3.996383,8.080746 4.987686,11.12567 1.008999,3.099281 3.86169,6.324922 3.984097,9.020592 0.114106,2.51285 -1.131254,6.852533 -1.956467,11.985649 -1.37958,8.581421 -3.169815,25.53308 -4.005014,44.07899 -0.619394,13.75387 -1.791382,29.71534 -2.289197,33.66251 -1.099408,8.71715 -7.261957,27.38321 -9.773891,30.54466 -0.424302,0.53402 -5.45192,1.52255 -6.744808,1.16226 z"
       id="path3"
       sodipodi:nodetypes="sssssssssssssssss"
       transform="matrix(7.5,0,0,-7.5,1371.3597,3109.7099)" />
    <path
       d="m 1705,3085 c -16,-14 -37,-25 -46,-25 -9,0 -21,-6 -27,-13 -12,-14 -27,-105 -37,-217 -9,-111 -23,-163 -76,-288 -89,-208 -113,-314 -134,-602 -18,-237 -18,-220 0,-220 30,0 187,122 232,181 26,32 47,59 49,59 1,0 19,-28 40,-62 56,-93 100,-144 155,-178 28,-17 52,-37 55,-45 10,-26 32,-16 62,28 61,89 74,161 92,500 11,206 21,280 46,359 15,46 12,108 -6,108 -4,0 -40,66 -80,146 -39,80 -80,154 -91,165 -33,33 -48,24 -51,-28 l -3,-48 -24,63 c -32,84 -75,142 -104,142 -12,-1 -35,-12 -52,-25 z m 88,-43 c 22,-38 77,-196 77,-223 0,-10 -17,-65 -39,-121 -21,-57 -53,-166 -71,-243 -100,-436 -121,-499 -188,-568 -34,-36 -118,-87 -142,-87 -25,0 -3,297 36,490 9,41 41,136 71,210 95,232 95,233 102,379 l 6,135 55,33 c 30,18 59,31 65,30 5,-2 18,-18 28,-35 z m 217,-255 c 68,-144 72,-163 55,-259 -8,-44 -19,-180 -25,-302 -5,-121 -13,-241 -16,-266 -9,-72 -56,-222 -72,-228 -23,-8 -94,34 -145,86 -56,57 -117,157 -117,191 0,41 137,582 171,672 16,46 37,115 45,154 21,100 22,103 40,76 9,-12 38,-68 64,-124 z"
       id="path1" />
  </g>
</svg>
