<?xml version="1.0" encoding="UTF-8" standalone="no"?>
<svg
   version="1.0"
   width="42.497002pt"
   height="101.186pt"
   viewBox="0 0 42.497002 101.186"
   preserveAspectRatio="xMidYMid"
   id="svg1"
   sodipodi:docname="MuscleBackAdductorR.svg"
   inkscape:version="1.3 (0e150ed6c4, 2023-07-21)"
   xmlns:inkscape="http://www.inkscape.org/namespaces/inkscape"
   xmlns:sodipodi="http://sodipodi.sourceforge.net/DTD/sodipodi-0.dtd"
   xmlns="http://www.w3.org/2000/svg"
   xmlns:svg="http://www.w3.org/2000/svg">
  <g
     transform="matrix(-0.1,0,0,-0.1,263.98973,448.3996)"
     fill="#000000"
     stroke="none"
     id="g1">
    <path
       style="fill:#ffffff;stroke-width:0.193463"
       d="M 20.199779,124.00421 C 19.435487,121.51713 15.059304,99.878916 9.5067538,60.932627 5.6175145,33.653008 3.9130939,18.384472 3.3536524,15.2211 2.9400263,12.882244 4.281213,9.0644927 4.9185628,8.7349067 6.1070919,8.1202947 10.610759,8.5477665 19.406783,8.2063485 25.819523,7.9574365 32.084453,7.6659293 35.367501,7.2678418 40.006327,6.705359 42.10423,7.227803 48.047371,5.0191717 c 1.447528,-0.5379408 3.70876,0.086096 4.147367,0.1959483 l 1.166357,-1.3284916 0.988504,4.0093749 C 55.100085,10.939974 53.682165,28.536011 52.984162,35.223055 51.42633,50.14746 49.040748,61.736065 42.959583,79.744169 39.662195,89.508695 32.203909,108.39866 29.304395,115.54594 c -1.428095,3.52024 -5.521019,8.62134 -6.10493,9.32766 -0.371365,0.44923 -2.38111,0.2704 -2.490964,-0.0871 z"
       id="path2"
       sodipodi:nodetypes="cssssssscssssscc"
       transform="matrix(7.5,0,0,-7.5,2214.9227,4483.996)" />
    <path
       d="m 2599,4474 c -26,-31 -116,-46 -256,-42 -117,3 -133,2 -127,-12 15,-38 44,-252 70,-503 9,-87 28,-219 44,-294 25,-123 40,-157 63,-150 4,1 25,52 46,112 22,61 57,160 80,220 22,61 52,153 66,205 48,180 72,461 41,473 -8,3 -20,-1 -27,-9 z m 1,-175 c -15,-202 -36,-285 -161,-618 -32,-86 -56,-137 -60,-129 -4,7 -33,193 -64,413 -31,220 -58,407 -61,416 -4,15 11,17 123,21 96,4 141,10 178,25 28,11 51,19 53,17 2,-1 -2,-66 -8,-145 z"
       id="path1" />
  </g>
</svg>
