<?xml version="1.0" encoding="UTF-8" standalone="no"?>
<svg
   version="1.0"
   width="70.347pt"
   height="115.317pt"
   viewBox="0 0 70.347 115.317"
   preserveAspectRatio="xMidYMid"
   id="svg1"
   sodipodi:docname="MuscleBackTricepL.svg"
   inkscape:version="1.3 (0e150ed6c4, 2023-07-21)"
   xmlns:inkscape="http://www.inkscape.org/namespaces/inkscape"
   xmlns:sodipodi="http://sodipodi.sourceforge.net/DTD/sodipodi-0.dtd"
   xmlns="http://www.w3.org/2000/svg"
   xmlns:svg="http://www.w3.org/2000/svg">
  <defs
     id="defs1" />
  <sodipodi:namedview
     id="namedview1"
     pagecolor="#ffffff"
     bordercolor="#000000"
     borderopacity="0.25"
     inkscape:showpageshadow="2"
     inkscape:pageopacity="0.0"
     inkscape:pagecheckerboard="0"
     inkscape:deskcolor="#d1d1d1"
     inkscape:document-units="pt"
     showgrid="false"
     inkscape:zoom="10.33788"
     inkscape:cx="41.01421"
     inkscape:cy="53.057298"
     inkscape:window-width="1920"
     inkscape:window-height="1017"
     inkscape:window-x="-8"
     inkscape:window-y="-8"
     inkscape:window-maximized="1"
     inkscape:current-layer="g1" />
  <g
     transform="matrix(0.1,0,0,-0.1,-111.27901,744.31686)"
     fill="#000000"
     stroke="none"
     id="g1">
    <path
       style="fill:#ffffff;stroke-width:0.273598"
       d="m 29.994849,148.48692 c -0.199903,-0.4536 -0.271235,-4.4745 0.03499,-6.88216 0.634308,-4.98724 2.429664,-12.18436 4.227785,-19.60219 2.714044,-11.19631 3.204295,-12.36506 3.621013,-19.64762 0.2875,-5.024366 0.234398,-6.184703 -0.969837,-8.590932 -0.892125,-1.782589 -0.928735,-4.038599 -2.301271,-4.742294 -1.299193,-0.666091 -1.863478,-0.535413 -3.288554,0.06002 -4.665957,1.949561 -6.483047,8.903723 -9.295447,29.836816 -2.085094,15.51964 -3.361364,21.92157 -5.239682,25.62825 -0.361112,0.71262 -5.484193,5.77352 -5.902702,5.74931 C 8.9737286,150.18578 5.1449426,140.78636 3.3353162,133.0027 1.9302315,126.95908 1.6852712,120.89959 2.459337,115.31867 5.3869762,94.210778 20.193234,48.698457 30.741839,31.584845 32.732984,28.354499 38.089028,21.947027 41.557785,19.347706 46.97715,15.28669 54.990385,11.166284 64.10613,7.5439737 72.957475,4.0267273 81.302825,1.9197536 81.807617,4.290392 c 0.434674,2.0413432 6.613589,22.931944 8.143508,32.709271 0.365483,2.335707 2.177422,8.891946 2.179099,13.461805 0.0021,5.630791 -0.07599,10.592277 -0.789134,14.346137 -2.946969,15.512217 -12.129014,38.596295 -18.072799,51.246585 -4.222566,8.98698 -11.323721,20.76683 -16.213454,26.86004 -1.767369,2.20236 -5.887875,6.1644 -7.043921,6.44801 -1.509672,0.37035 -5.376312,2.19542 -9.923722,2.21073 l -9.450007,-1.62851 z"
       id="path2"
       sodipodi:nodetypes="ssssssssssssssssscssssccs"
       transform="matrix(7.5,0,0,-7.5,1112.7901,7443.1686)" />
    <path
       d="m 1614,7406 c -129,-53 -177,-82 -243,-149 -50,-50 -57,-65 -118,-228 -75,-201 -128,-387 -138,-480 -5,-51 -2,-77 14,-128 27,-82 57,-131 82,-131 25,0 53,96 74,250 26,195 56,263 92,214 20,-27 13,-107 -20,-228 -16,-57 -27,-124 -27,-161 v -62 l 78,-6 c 77,-6 77,-6 105,26 47,53 154,219 183,282 15,33 49,128 76,210 39,118 48,158 43,190 -3,22 -6,69 -6,105 -1,42 -8,78 -20,102 -10,20 -26,80 -36,132 -9,52 -21,97 -27,99 -6,2 -56,-14 -112,-37 z m 104,-43 c 54,-219 64,-280 59,-353 -7,-90 -72,-311 -126,-425 -41,-86 -148,-238 -176,-248 -9,-4 -42,-7 -72,-7 h -56 l 7,57 c 4,32 18,100 31,152 42,159 30,261 -30,261 -48,0 -75,-73 -100,-268 -18,-143 -38,-204 -59,-181 -25,26 -50,122 -49,184 2,144 165,606 247,703 41,48 110,92 201,129 104,42 112,42 123,-4 z"
       id="path1"
       transform="translate(2.5e-5)" />
  </g>
</svg>
