<?xml version="1.0" encoding="UTF-8" standalone="no"?>
<svg
   version="1.0"
   width="23.691pt"
   height="51.046001pt"
   viewBox="0 0 23.691 51.046001"
   preserveAspectRatio="xMidYMid"
   id="svg1"
   sodipodi:docname="MuscleBackSomethingL.svg"
   inkscape:version="1.3 (0e150ed6c4, 2023-07-21)"
   xmlns:inkscape="http://www.inkscape.org/namespaces/inkscape"
   xmlns:sodipodi="http://sodipodi.sourceforge.net/DTD/sodipodi-0.dtd"
   xmlns="http://www.w3.org/2000/svg"
   xmlns:svg="http://www.w3.org/2000/svg">
  <defs
     id="defs1" />
  <sodipodi:namedview
     id="namedview1"
     pagecolor="#ffffff"
     bordercolor="#000000"
     borderopacity="0.25"
     inkscape:showpageshadow="2"
     inkscape:pageopacity="0.0"
     inkscape:pagecheckerboard="0"
     inkscape:deskcolor="#d1d1d1"
     inkscape:document-units="pt"
     inkscape:zoom="20.675761"
     inkscape:cx="7.013043"
     inkscape:cy="45.729877"
     inkscape:window-width="1920"
     inkscape:window-height="1017"
     inkscape:window-x="-8"
     inkscape:window-y="-8"
     inkscape:window-maximized="1"
     inkscape:current-layer="g1" />
  <g
     transform="matrix(0.1,0,0,-0.1,-229.25933,877.1344)"
     fill="#000000"
     stroke="none"
     id="g1">
    <path
       style="fill:#ffffff;stroke-width:0.0683996"
       d="M 16.774817,59.834296 C 16.305742,58.906084 16.249845,56.038127 15.280578,51.185185 14.705839,48.307573 14.34393,45.845051 13.630035,43.374976 12.438058,39.250734 11.036709,36.316425 9.4378369,32.766164 7.4465202,28.344491 6.0797192,23.537492 5.6407918,21.725769 5.4446875,20.916326 2.3561903,6.2347405 2.5127112,6.1746785 2.9352179,6.0125465 11.947034,18.426107 13.971347,21.799455 c 2.415956,4.02599 6.32254,8.202166 9.268598,11.598454 0.554675,0.639443 4.797184,4.151462 4.693291,5.239497 l 1.765031,3.122502 -2.387003,4.58544 c -2.457654,4.721159 -2.154712,6.607788 -3.451168,8.520298 -0.922863,1.361391 -4.412005,5.333615 -4.633421,5.333615 -0.02052,0 -2.380569,-0.22389 -2.451858,-0.364965 z"
       id="path2"
       sodipodi:nodetypes="csssssssscsssc"
       transform="matrix(7.5,0,0,-7.5,2292.5933,8771.344)" />
    <path
       d="m 2295,8718 c 4,-29 27,-106 51,-171 35,-94 45,-136 49,-199 2,-44 7,-83 10,-86 7,-7 26,18 75,98 40,66 61,130 43,130 -6,0 -31,18 -56,40 -32,28 -61,70 -97,140 -59,116 -86,133 -75,48 z m 158,-223 45,-50 -26,-47 c -15,-27 -30,-48 -33,-48 -3,0 -11,31 -18,69 -7,38 -26,97 -42,131 -37,80 -38,110 0,45 16,-28 49,-73 74,-100 z"
       id="path1" />
  </g>
</svg>
