<?xml version="1.0" encoding="UTF-8" standalone="no"?>
<svg
   version="1.0"
   width="65.477997pt"
   height="172.978pt"
   viewBox="0 0 65.477998 172.978"
   preserveAspectRatio="xMidYMid"
   id="svg1"
   sodipodi:docname="MuscleBackLegR.svg"
   inkscape:version="1.3 (0e150ed6c4, 2023-07-21)"
   xmlns:inkscape="http://www.inkscape.org/namespaces/inkscape"
   xmlns:sodipodi="http://sodipodi.sourceforge.net/DTD/sodipodi-0.dtd"
   xmlns="http://www.w3.org/2000/svg"
   xmlns:svg="http://www.w3.org/2000/svg">
  <defs
     id="defs1" />
  <sodipodi:namedview
     id="namedview1"
     pagecolor="#ffffff"
     bordercolor="#000000"
     borderopacity="0.25"
     inkscape:showpageshadow="2"
     inkscape:pageopacity="0.0"
     inkscape:pagecheckerboard="0"
     inkscape:deskcolor="#d1d1d1"
     inkscape:document-units="pt"
     inkscape:zoom="4"
     inkscape:cx="65.5"
     inkscape:cy="84.375"
     inkscape:window-width="1920"
     inkscape:window-height="1017"
     inkscape:window-x="-8"
     inkscape:window-y="-8"
     inkscape:window-maximized="1"
     inkscape:current-layer="svg1" />
  <g
     transform="matrix(-0.1,0,0,-0.1,197.56856,203.71681)"
     fill="#000000"
     stroke="none"
     id="g1"
     style="fill:#000000;fill-opacity:1">
    <path
       style="display:inline;fill:#ffffff;fill-opacity:1;stroke-width:0.386927"
       d="M 14.735579,226.77684 C 11.519283,226.14751 7.976088,222.99513 6.1014702,220.96141 4.2035676,218.90242 3.1040697,215.22969 2.4807358,209.53399 1.9688453,204.8566 1.5879857,173.19911 2.2793866,154.41946 4.4832061,94.559895 8.2157841,51.22702 8.438698,45.376347 8.6647449,39.443443 7.958072,35.572151 19.473172,31.704461 28.391367,28.709019 33.210373,22.796607 38.534698,16.62814 c 5.102036,-5.910936 7.618113,-9.8940044 8.114927,-9.3441844 0.168963,0.186992 5.199783,7.8601474 8.448,12.7264124 5.90725,8.849862 8.679224,9.812276 11.640152,12.473168 0.866457,0.778659 5.516436,5.140274 8.735205,7.423843 3.218768,2.283568 5.085539,-1.855333 7.669967,4.142998 2.600281,6.035126 -7.103676,17.511726 -14.302065,31.944425 -16.941693,33.967938 -18.437412,38.663698 -21.272975,50.144868 -2.536035,10.26838 -4.76919,14.22598 -4.798118,17.44524 -0.09461,10.52821 -1.70354,4.10365 0.585968,3.95527 3.022585,-0.19589 0.693489,3.60109 0.74233,3.54467 0.04885,-0.0564 4.027045,-0.52256 5.602157,0.51189 4.489621,2.94854 9.078647,7.32238 10.703874,11.60216 0.835424,2.19997 1.151475,12.02569 0.586452,16.31638 -0.816478,6.20019 -4.627844,13.66948 -5.421858,13.38222 -0.165559,-0.0599 -0.838923,3.23117 -0.982687,2.16462 -0.154051,-1.14282 -1.567606,3.68249 -2.007474,3.39523 -0.986382,-0.64417 -1.042181,-3.72131 -1.0315,4.95117 0.0068,5.55501 -1.7408,8.98036 -2.174784,10.19976 -1.97747,5.55624 -7.561416,11.25421 -15.676635,13.56784 -3.676491,1.04816 -9.474571,1.45673 -12.868409,0.79266 z"
       id="path4"
       sodipodi:nodetypes="ssssssssssssssssssssssssssss"
       transform="matrix(7.5,0,0,-7.5,1318.9357,2037.1681)" />
    <path
       d="m 1635,1983 c -14,-32 -43,-75 -63,-96 -41,-43 -127,-91 -147,-83 -7,2 -22,-5 -33,-17 -18,-20 -22,-49 -36,-257 -35,-514 -47,-1035 -25,-1113 6,-22 26,-55 44,-75 33,-36 35,-37 108,-36 59,0 85,6 128,27 30,14 60,36 67,47 7,12 35,88 63,170 36,108 49,163 49,205 v 57 l -70,72 -70,73 20,77 c 36,143 151,405 255,581 57,97 64,128 26,118 -64,-17 -239,164 -260,270 -10,49 -27,43 -56,-20 z m 99,-126 c 35,-54 75,-100 100,-117 22,-16 51,-36 63,-45 l 23,-16 -111,-222 c -137,-272 -151,-310 -179,-468 -21,-120 -24,-211 -6,-164 4,11 12,31 17,43 l 9,24 33,-20 c 17,-11 42,-38 55,-59 19,-32 22,-47 18,-96 -6,-64 -46,-165 -53,-134 -11,42 -23,10 -23,-59 0,-62 -4,-82 -22,-106 -45,-64 -180,-92 -251,-51 -55,33 -60,63 -53,358 8,325 35,919 45,964 5,29 21,45 91,95 50,36 102,85 128,119 25,32 48,55 52,50 3,-4 33,-48 64,-96 z"
       id="path1"
       style="display:inline;fill:#000000;fill-opacity:1" />
  </g>
</svg>
