<?xml version="1.0" encoding="UTF-8" standalone="no"?>
<svg
   version="1.0"
   width="106.581pt"
   height="129.233pt"
   viewBox="0 0 106.581 129.233"
   preserveAspectRatio="xMidYMid"
   id="svg1"
   sodipodi:docname="MuscleBackAboveButt.svg"
   inkscape:version="1.3 (0e150ed6c4, 2023-07-21)"
   xmlns:inkscape="http://www.inkscape.org/namespaces/inkscape"
   xmlns:sodipodi="http://sodipodi.sourceforge.net/DTD/sodipodi-0.dtd"
   xmlns="http://www.w3.org/2000/svg"
   xmlns:svg="http://www.w3.org/2000/svg">
  <defs
     id="defs1" />
  <sodipodi:namedview
     id="namedview1"
     pagecolor="#ffffff"
     bordercolor="#000000"
     borderopacity="0.25"
     inkscape:showpageshadow="2"
     inkscape:pageopacity="0.0"
     inkscape:pagecheckerboard="0"
     inkscape:deskcolor="#d1d1d1"
     inkscape:document-units="pt"
     showgrid="false"
     inkscape:zoom="3.6549927"
     inkscape:cx="77.154737"
     inkscape:cy="106.84016"
     inkscape:window-width="1920"
     inkscape:window-height="1017"
     inkscape:window-x="-8"
     inkscape:window-y="-8"
     inkscape:window-maximized="1"
     inkscape:current-layer="g1" />
  <g
     transform="matrix(0.1,0,0,-0.1,0,953)"
     fill="#000000"
     stroke="none"
     id="g1">
    <path
       style="fill:#ffffff;stroke-width:0.145097"
       d="m 51.274618,122.60862 c -0.298323,-0.46711 -1.952382,-2.0712 -2.793437,-3.38796 -1.798909,-2.81638 -3.523445,-4.67831 -5.141981,-6.68028 -2.859087,-3.5364 -6.060956,-6.09136 -8.378893,-7.95975 -3.457572,-2.78701 -6.645772,-6.058367 -12.05327,-8.714274 -4.683543,-2.30034 -7.519245,-3.145315 -11.828401,-4.315389 -2.1319267,-0.57888 -4.8608538,-2.490265 -5.2972919,-2.896869 -0.3814549,-0.35538 -0.764788,-1.736613 0.2650791,-3.857845 0.823548,-1.696276 2.0714292,-4.240207 4.5829968,-8.223659 2.910582,-4.616299 4.87211,-8.032842 5.851671,-11.928387 1.078495,-4.288983 1.864969,-8.211077 2.515331,-18.302423 0.845647,-13.121486 0.242538,-13.915641 3.709247,-20.931548 3.540888,-7.166028 6.09172,-9.809883 15.58503,-15.5064058 7.231744,-4.3394555 7.653015,-5.7893291 10.046706,-6.6173055 1.183135,-0.4092456 3.278887,-0.9175625 4.695709,-0.9175625 1.424386,0 3.37166,1.2947227 4.590288,1.7159284 1.580968,0.5464441 8.623625,4.0703379 11.554058,5.7789639 6.560897,3.8254145 10.098808,7.6540695 12.462891,12.4166685 2.323852,4.681554 3.724228,11.147088 5.310477,23.269449 2.42022,18.495789 3.636859,22.581652 11.251654,34.194068 1.768988,2.697668 3.972648,5.92135 3.977378,6.632417 0.01,1.511603 -2.241617,3.378985 -8.486957,5.493977 -4.826505,1.634505 -7.79046,2.503598 -10.93788,4.016092 -8.268284,3.973336 -14.63031,9.082594 -20.376689,15.967414 -1.762296,2.11143 -2.881592,3.88873 -5.356183,7.55944 -1.102885,1.63596 -3.514262,3.42982 -3.573762,3.49791 -0.0595,0.0681 -1.875449,0.16444 -2.173771,-0.30267 z"
       id="path2"
       sodipodi:nodetypes="sssssssssssssssssssssssssss"
       transform="matrix(9.9999998,0,0,-9.9999998,0,9530)" />
    <path
       d="m 481.5,9524.5496 c -1,-5 -37,-31 -78,-59.0001 -89,-60 -164,-133.0001 -191,-186.0002 -14,-26 -23,-75.0001 -30,-155.0002 -18,-211.0002 -35,-275.0003 -97,-367.0004 -30,-44.0001 -63,-89.0001 -73,-101.0001 -20,-22.0001 -16,-34.0001 12,-34.0001 9,0 30,-7 45,-15 16,-8 44,-15 62,-15 97,0 287,-152.0002 352,-280.0003 47,-94.0002 57,-97.0002 78,-23.0001 17,57.0001 90,153.0002 154,202.0003 66,50 163,95.0001 248,117.0001 36,9 75,22 88,28 22,12.0001 22,12.0001 -24,60.0001 -26,28 -63,83.0001 -85,130.0002 -35,73.0001 -40,96.0001 -54,221.0002 -9,77.0001 -22,163.0002 -30,190.0003 -30,106.0001 -92,173.0002 -220,237.0002 -33,17.0001 -66,35.0001 -73,41.0001 -17,13 -79,20 -84,9 z m 140,-76.0001 c 173,-88.0001 200,-133.0002 232,-391.0005 20,-160.0002 46,-237.0002 119,-345.0004 37,-54 34,-58 -68,-91.0001 -142,-46 -262,-136.0001 -343,-257.0003 l -35,-52 -41,64 c -23,35.0001 -67,87.0001 -98,115.0002 -59,54 -186,122.0001 -267,142.0001 -26,6 -50,16.0001 -53,21.0001 -3,5 17,44 44,86.0001 69,106.0001 82,152.0001 92,321.0003 8,138.0002 11,148.0002 45,217.0003 34,70.0001 40,75.0001 118,122.0001 162,97.0002 159,97.0002 255,48.0001 z"
       id="path1" />
  </g>
</svg>
