<?xml version="1.0" encoding="UTF-8" standalone="no"?>
<svg
   version="1.0"
   width="75.737pt"
   height="195.05099pt"
   viewBox="0 0 75.737 195.05099"
   preserveAspectRatio="xMidYMid"
   id="svg1"
   sodipodi:docname="MuscleFrontQuadsR.svg"
   inkscape:version="1.3 (0e150ed6c4, 2023-07-21)"
   xmlns:inkscape="http://www.inkscape.org/namespaces/inkscape"
   xmlns:sodipodi="http://sodipodi.sourceforge.net/DTD/sodipodi-0.dtd"
   xmlns="http://www.w3.org/2000/svg"
   xmlns:svg="http://www.w3.org/2000/svg">
  <g
     transform="matrix(0.1,0,0,0.1,-203.26291,-372.9)"
     fill="#000000"
     stroke="none"
     id="g1">
    <path
       style="fill:#ffffff;stroke-width:0.581648"
       d="M 31.306455,234.932 C 25.707294,226.99627 14.179589,194.62297 4.9693655,170.05627 -0.46777503,155.55363 1.900842,147.21508 1.0743011,131.89593 0.1470037,114.70936 3.4778706,80.030734 5.0829543,69.993092 5.6227595,66.617335 8.768107,64.069701 13.725927,63.289231 l 9.804603,-5.921939 -2.773787,28.407552 c 0.0013,12.740002 2.124013,27.444946 2.455059,31.923636 1.749168,23.66428 5.349835,38.64811 16.790204,67.29775 8.350803,20.91257 11.397319,25.79715 11.38764,30.22754 -0.01009,4.621 -3.451258,12.80121 -5.398951,17.2053 -1.528869,3.45704 -6.262173,9.02026 -7.49446,9.02026 -0.43044,0 -3.175438,-0.82777 -3.925155,-1.89035 z"
       id="path4"
       sodipodi:nodetypes="sssssccsssssss"
       transform="matrix(7.5,0,0,-7.5,2032.6291,5679.5148)" />
    <path
       style="fill:#ffffff;stroke-width:0.581648"
       d="M 62.728156,234.95369 C 53.538863,220.78587 47.301991,209.56149 37.212834,184.04629 28.262133,161.41021 25.764642,153.32236 22.825883,134.55301 19.988067,116.42837 19.717089,109.20566 19.686894,92.089855 19.661044,77.437054 19.368916,75.232408 20.255041,65.165357 c 0.615323,-6.990546 3.605246,-8.817977 9.612538,-17.58836 5.842766,-8.530183 8.6404,-11.456312 12.966921,-19.847422 3.899428,-7.56278 2.399037,-16.89625 7.748107,-15.436424 6.508726,1.776309 23.110135,72.539648 30.626667,111.231489 l 3.442246,17.71919 -3.1341,16.89432 c -3.345332,18.03297 -5.797728,43.48967 -6.755553,53.93847 -0.322577,3.51897 -0.887885,11.287 -1.193402,15.12587 -0.559952,7.03588 -0.02975,15.08202 -0.874365,15.08202 -0.253271,0 -7.424164,-3.41197 -9.965944,-7.33082 z"
       id="path5"
       sodipodi:nodetypes="ssssssssscsssss"
       transform="matrix(7.5,0,0,-7.5,2032.6291,5679.5148)" />
    <path
       style="fill:#ffffff;stroke-width:0.581648"
       d="m 89.490083,256.36776 c -1.022948,-0.36104 -7.776222,-3.55846 -10.585843,-6.23535 l -7.812681,-6.24131 0.363177,-9.66183 c 0.588968,-15.66869 3.087734,-42.75524 7.136916,-67.84166 2.110089,-13.07291 3.146704,-23.02998 6.065895,-21.03269 2.060216,1.40959 5.641933,23.85677 7.035108,33.64717 3.301352,23.19993 8.240622,48.11893 7.805576,59.31345 -0.55805,14.35966 0.926689,21.91158 -4.76425,19.90301 z"
       id="path6"
       sodipodi:nodetypes="sscsssssss"
       transform="matrix(7.5,0,0,-7.5,2032.6291,5679.5148)" />
    <path
       d="m 2399,5679 c -40,-212 -66,-267 -183,-386 -68,-68 -99,-92 -121,-95 l -30,-3 -12,-100 c -19,-168 -27,-497 -14,-625 11,-108 30,-168 50,-156 5,3 30,-54 56,-127 54,-149 126,-307 150,-327 14,-11 21,-8 51,21 20,19 43,58 56,92 l 21,58 39,-62 c 78,-123 188,-213 284,-233 l 31,-7 7,73 c 8,80 8,80 0,153 -44,406 -200,1153 -320,1538 -19,60 -34,121 -34,137 0,15 -7,33 -15,40 -8,7 -15,11 -16,9 z m 35,-196 c 45,-139 143,-520 190,-739 l 27,-121 -25,-134 c -32,-174 -66,-415 -67,-481 -1,-29 -4,-66 -8,-83 -7,-30 -7,-30 -53,40 -25,39 -55,89 -67,112 -43,85 -150,352 -169,424 -45,163 -76,463 -62,590 13,113 24,143 87,229 30,41 68,105 86,143 17,37 35,67 39,67 3,0 13,-21 22,-47 z m -259,-475 c 0,-316 27,-460 140,-733 36,-88 68,-176 71,-195 11,-70 -35,-190 -73,-190 -30,0 -154,311 -219,549 -27,100 -34,143 -34,218 0,141 19,434 31,471 6,19 26,43 47,57 20,14 37,25 37,25 0,0 1,-91 0,-202 z m 504,-520 c 41,-199 78,-571 66,-663 -8,-67 -17,-69 -97,-17 l -58,37 v 95 c 0,98 28,361 55,510 8,47 15,86 15,88 0,1 2,2 4,2 3,0 9,-24 15,-52 z"
       id="path1" />
  </g>
</svg>
