<?xml version="1.0" encoding="UTF-8" standalone="no"?>
<svg
   version="1.0"
   width="64.472pt"
   height="101.809pt"
   viewBox="0 0 64.472 101.809"
   preserveAspectRatio="xMidYMid"
   id="svg1"
   sodipodi:docname="MuscleFrontBicepL.svg"
   inkscape:version="1.3 (0e150ed6c4, 2023-07-21)"
   xmlns:inkscape="http://www.inkscape.org/namespaces/inkscape"
   xmlns:sodipodi="http://sodipodi.sourceforge.net/DTD/sodipodi-0.dtd"
   xmlns="http://www.w3.org/2000/svg"
   xmlns:svg="http://www.w3.org/2000/svg">
  <g
     transform="matrix(0.1,0,0,-0.1,0,1013)"
     fill="#000000"
     stroke="none"
     id="g1">
    <path
       style="fill:#ffffff;stroke-width:0.290824"
       d="M 7.2109934,132.08085 C 5.0911776,129.73848 1.3512169,104.89915 1.8251289,90.792996 2.4679647,71.658772 8.0391254,51.199209 14.529523,37.992077 18.698145,29.509464 19.797589,25.578492 26.036259,21.319603 36.554878,14.138965 52.834235,6.4869532 56.222225,5.1804047 60.661669,3.4683747 65.138486,1.8961009 69.767471,5.0086223 73.255365,7.3538771 85.696035,16.299768 83.636263,16.98051 c -1.25468,0.414664 -2.711686,26.243231 -3.876145,34.385185 -3.880425,27.132104 -14.791271,53.516565 -23.181912,61.916355 -5.772537,5.77883 -28.210891,15.30389 -40.466579,18.42838 -3.272816,0.83437 -8.2672027,1.07036 -8.9006336,0.37042 z"
       id="path2"
       sodipodi:nodetypes="sssssssssss"
       transform="matrix(7.5,0,0,-7.5,0,10130)" />
    <path
       d="m 350.2775,10070 c -54,-33 -116,-65 -136,-70 C 92.277503,9966 -26.722497,9580 5.2775032,9321 22.277503,9179 38.277503,9116 58.277503,9112 c 14,-3 217.999997,72 327.999997,120 32,14 102,115 134,193 58,144 84,256 91,388 4,76 13,143 21,164 9,19 14,36 12,37 -2,2 -19,13 -38,26 -19,13 -52,39 -73,57 -20,18 -47,33 -60,33 -13,0 -68,-27 -123,-60 z m 139,9 c 12,-7 42,-27 65,-47 l 44,-35 -7,-91 c -19,-269 -79,-489 -161,-585 -46,-55 -341.999997,-189 -362.999997,-165 -15,16 -32,169 -32,286 0,169 39,332 104.999997,436 29,46 32,49 180,143 113,71 131,77 169,58 z"
       id="path1" />
  </g>
</svg>
