<?xml version="1.0" encoding="UTF-8" standalone="no"?>
<svg
   version="1.0"
   width="64.598pt"
   height="58.123001pt"
   viewBox="0 0 64.598 58.123001"
   preserveAspectRatio="xMidYMid"
   id="svg1"
   sodipodi:docname="MuscleFrontTrapL.svg"
   inkscape:version="1.3 (0e150ed6c4, 2023-07-21)"
   xmlns:inkscape="http://www.inkscape.org/namespaces/inkscape"
   xmlns:sodipodi="http://sodipodi.sourceforge.net/DTD/sodipodi-0.dtd"
   xmlns="http://www.w3.org/2000/svg"
   xmlns:svg="http://www.w3.org/2000/svg">
  <g
     transform="matrix(0.1,0,0,-0.1,0,1013)"
     fill="#000000"
     stroke="none"
     id="g1">
    <path
       style="fill:#ffffff;stroke-width:0.145412"
       d="m 84.578015,72.091093 c 0.02197,0.08169 -1.563357,4.014849 -2.763006,3.692457 C 80.615361,75.46116 73.765867,72.395278 71.086653,71.546737 63.069193,69.007508 59.190014,67.983969 52.982867,66.769968 46.507117,65.503433 38.410003,65.515506 26.901963,64.319544 23.382995,63.953839 14.405605,63.314371 12.554709,63.22054 8.6244542,63.021296 15.369937,55.644013 17.702994,54.513261 32.468663,47.356855 38.93159,42.803495 43.56266,38.173285 c 4.935467,-4.934547 6.622184,-7.779921 9.304707,-16.13166 1.444859,-4.498411 3.324166,-13.030717 7.526728,-13.9161282 2.514364,-0.5297353 4.440753,8.3774492 5.644848,12.4472642 2.137667,7.225268 4.860023,15.595997 11.365154,31.861341 2.873342,7.184466 4.812492,11.157247 4.812492,11.669774 0,0.123063 1.239065,3.813857 1.321001,4.118529 z"
       id="path2"
       sodipodi:nodetypes="sssssssssssssss"
       transform="matrix(7.5,0,0,-7.5,0,10130)" />
    <path
       d="m 419.23504,10064 c -18,-93 -47,-165 -82,-203 -61,-65 -180,-133 -276.000001,-158 -32,-8 -59.0000004,-16 -61.00000036,-18 -2.00000004,-3 8.99999996,-13 24.00000036,-23 23,-15 57,-19 193.000001,-25 170,-7 224,-18 337,-64 86,-34 97,-33 90,8 -3,19 -24,78 -48,133 -47,110 -119,318 -119,343 0,9 -10,29 -23,45 l -23,28 z m 53,-108 c 9,-35 44,-128 76,-208 32,-79 57,-146 55,-147 -2,-2 -43,10 -92,26 -83,27 -161,42 -308,57 l -58,6 83,49 c 114,67 163,121 192,214 12,40 25,71 28,69 3,-2 14,-32 24,-66 z"
       id="path1" />
  </g>
</svg>
