<?xml version="1.0" standalone="no"?>
<!DOCTYPE svg PUBLIC "-//W3C//DTD SVG 20010904//EN"
 "http://www.w3.org/TR/2001/REC-SVG-20010904/DTD/svg10.dtd">
<svg version="1.0" xmlns="http://www.w3.org/2000/svg"
 width="604.000000pt" height="1013.000000pt" viewBox="0 0 604.000000 1013.000000"
 preserveAspectRatio="xMidYMid meet">

<g transform="translate(0.000000,1013.000000) scale(0.100000,-0.100000)"
fill="#000000" stroke="none">
<path d="M3356 8872 c-21 -40 -65 -78 -121 -104 -42 -19 -67 -23 -150 -23 -86
0 -106 3 -145 24 -56 29 -89 59 -101 90 -9 23 -11 23 -26 8 -24 -23 -29 -116
-9 -158 8 -19 29 -75 46 -126 17 -51 51 -140 75 -199 25 -59 43 -109 41 -111
-2 -2 -43 10 -92 26 -83 27 -162 42 -307 57 -31 3 -55 9 -53 13 5 7 -133 -15
-141 -23 -2 -2 16 -6 39 -9 48 -7 140 -43 178 -70 13 -9 29 -17 34 -17 5 0 17
-6 25 -13 9 -7 38 -19 65 -25 26 -7 69 -24 93 -39 63 -36 161 -129 182 -172
21 -41 37 -153 47 -321 l7 -116 -32 -27 c-18 -15 -39 -27 -47 -27 -20 0 -17
-17 4 -22 22 -6 190 -1 220 7 30 7 28 17 -8 37 -51 29 -53 51 -30 262 12 105
27 204 34 221 14 33 82 97 153 145 47 31 87 46 190 75 39 12 60 22 57 30 -5
12 52 45 78 45 8 0 27 13 42 29 l29 30 -59 -5 c-153 -13 -297 -39 -377 -66
-49 -17 -90 -28 -93 -25 -3 2 16 51 42 108 26 57 63 152 84 211 20 60 39 105
43 102 6 -6 14 50 20 138 4 66 -14 85 -37 40z m-10 -118 c-8 -64 -64 -225
-130 -380 -31 -72 -56 -138 -56 -147 0 -13 9 -12 63 10 92 38 192 63 282 70
71 6 79 5 67 -9 -7 -8 -43 -25 -80 -37 -97 -30 -187 -86 -268 -166 -70 -69
-72 -72 -83 -140 -16 -100 -33 -321 -29 -380 3 -48 2 -50 -24 -53 l-28 -3 0
123 c-1 148 -23 345 -43 384 -20 38 -119 131 -183 172 -28 18 -83 43 -121 56
-39 13 -83 31 -99 39 l-29 16 55 1 c65 0 191 -29 277 -64 35 -15 69 -26 78
-26 24 0 18 37 -21 130 -87 206 -156 422 -141 437 4 3 15 -1 25 -10 59 -53
213 -81 323 -58 31 7 81 27 110 45 30 19 56 34 58 35 2 1 1 -20 -3 -45z"/>
</g>
</svg>
