<?xml version="1.0" encoding="UTF-8" standalone="no"?>
<svg
   version="1.0"
   width="81.341003pt"
   height="115.44pt"
   viewBox="0 0 81.341003 115.44"
   preserveAspectRatio="xMidYMid"
   id="svg1"
   sodipodi:docname="MuscleFrontHead.svg"
   inkscape:version="1.3 (0e150ed6c4, 2023-07-21)"
   xmlns:inkscape="http://www.inkscape.org/namespaces/inkscape"
   xmlns:sodipodi="http://sodipodi.sourceforge.net/DTD/sodipodi-0.dtd"
   xmlns="http://www.w3.org/2000/svg"
   xmlns:svg="http://www.w3.org/2000/svg">
  <g
     transform="matrix(0.1,0,0,-0.1,-269.05875,986.94003)"
     fill="#000000"
     stroke="none"
     id="g1">
    <path
       d="m 3035,9859 c -16,-6 -47,-12 -68,-15 -22,-3 -63,-16 -94,-30 -155,-71 -207,-201 -168,-423 17,-94 17,-102 2,-119 -33,-36 -14,-156 37,-233 28,-42 56,-134 56,-185 0,-26 8,-39 39,-63 77,-61 124,-76 246,-76 98,0 116,3 165,26 30,15 74,40 96,57 38,28 43,36 53,98 14,79 20,92 69,146 36,40 36,41 36,129 0,48 -5,94 -11,101 -7,8 -8,33 -2,68 22,156 0,283 -66,372 -84,115 -271,185 -390,147 z m 220,-58 c 169,-81 231,-211 210,-436 -4,-47 -11,-74 -18,-72 -6,1 -13,-7 -15,-19 -2,-14 5,-24 23,-32 23,-11 25,-16 25,-81 0,-65 -2,-72 -35,-112 -44,-52 -53,-68 -71,-130 -19,-64 -70,-120 -137,-150 -43,-20 -68,-24 -152,-24 -89,0 -105,3 -150,27 -73,38 -91,63 -115,158 -13,50 -36,109 -58,143 -29,47 -36,70 -37,110 0,46 2,51 25,57 20,4 26,13 28,39 2,19 -1,38 -7,44 -8,8 -11,5 -12,-9 0,-10 -7,4 -16,31 -8,28 -15,95 -16,150 -1,85 2,108 21,150 13,27 33,60 45,73 54,58 206,109 332,111 58,1 80,-4 130,-28 z"
       id="path1" />
  </g>
</svg>
