<?xml version="1.0" standalone="no"?>
<!DOCTYPE svg PUBLIC "-//W3C//DTD SVG 20010904//EN"
 "http://www.w3.org/TR/2001/REC-SVG-20010904/DTD/svg10.dtd">
<svg version="1.0" xmlns="http://www.w3.org/2000/svg"
 width="604.000000pt" height="1013.000000pt" viewBox="0 0 604.000000 1013.000000"
 preserveAspectRatio="xMidYMid meet">

<g transform="translate(0.000000,1013.000000) scale(0.100000,-0.100000)"
fill="#000000" stroke="none">
<path d="M3035 9859 c-16 -6 -47 -12 -68 -15 -22 -3 -63 -16 -94 -30 -155 -71
-207 -201 -168 -423 17 -94 17 -102 2 -119 -33 -36 -14 -156 37 -233 28 -42
56 -134 56 -185 0 -26 8 -39 39 -63 77 -61 124 -76 246 -76 98 0 116 3 165 26
30 15 74 40 96 57 38 28 43 36 53 98 14 79 20 92 69 146 36 40 36 41 36 129 0
48 -5 94 -11 101 -7 8 -8 33 -2 68 22 156 0 283 -66 372 -84 115 -271 185
-390 147z m220 -58 c169 -81 231 -211 210 -436 -4 -47 -11 -74 -18 -72 -6 1
-13 -7 -15 -19 -2 -14 5 -24 23 -32 23 -11 25 -16 25 -81 0 -65 -2 -72 -35
-112 -44 -52 -53 -68 -71 -130 -19 -64 -70 -120 -137 -150 -43 -20 -68 -24
-152 -24 -89 0 -105 3 -150 27 -73 38 -91 63 -115 158 -13 50 -36 109 -58 143
-29 47 -36 70 -37 110 0 46 2 51 25 57 20 4 26 13 28 39 2 19 -1 38 -7 44 -8
8 -11 5 -12 -9 0 -10 -7 4 -16 31 -8 28 -15 95 -16 150 -1 85 2 108 21 150 13
27 33 60 45 73 54 58 206 109 332 111 58 1 80 -4 130 -28z"/>
</g>
</svg>
