<?xml version="1.0" standalone="no"?>
<!DOCTYPE svg PUBLIC "-//W3C//DTD SVG 20010904//EN"
 "http://www.w3.org/TR/2001/REC-SVG-20010904/DTD/svg10.dtd">
<svg version="1.0" xmlns="http://www.w3.org/2000/svg"
 width="604.000000pt" height="1013.000000pt" viewBox="0 0 604.000000 1013.000000"
 preserveAspectRatio="xMidYMid meet">

<g transform="translate(0.000000,1013.000000) scale(0.100000,-0.100000)"
fill="#000000" stroke="none">
<path d="M2998 7525 c-46 -25 -158 -47 -278 -54 l-115 -6 -1 -45 c-1 -25 -7
-110 -13 -190 -8 -92 -11 -246 -8 -420 4 -236 7 -288 26 -365 12 -49 39 -198
61 -330 35 -209 82 -426 106 -490 7 -18 6 -19 -10 -5 -16 13 -16 9 3 -25 11
-22 21 -45 21 -51 0 -19 137 -207 161 -219 14 -8 52 -11 109 -7 57 3 94 1 109
-7 20 -11 26 -8 62 30 22 23 44 61 50 83 6 23 28 88 49 146 53 144 96 323 126
514 27 172 46 275 71 371 21 81 29 541 13 775 -6 96 -11 187 -10 202 0 24 -4
27 -52 33 -114 14 -226 37 -282 57 -47 17 -62 19 -77 10 -23 -15 -59 -16 -59
-2 0 14 -31 12 -62 -5z m62 -173 c0 -77 -3 -173 -6 -215 -7 -75 -8 -77 -33
-77 -14 0 -73 -9 -131 -21 -116 -22 -166 -20 -243 13 l-48 21 6 56 c20 216 27
277 33 283 4 4 66 16 137 28 72 12 155 27 185 35 107 26 100 35 100 -123z
m155 123 c27 -8 92 -22 145 -31 52 -8 104 -17 116 -19 19 -4 22 -16 33 -105 6
-55 11 -135 11 -178 l0 -77 -44 -18 c-67 -28 -107 -31 -192 -14 -44 9 -100 19
-126 22 l-46 7 -6 57 c-11 116 -18 311 -11 340 6 27 11 31 38 31 18 0 54 -7
82 -15z m-157 -620 c-3 -149 -6 -177 -20 -191 -14 -14 -46 -19 -150 -26 -114
-7 -143 -6 -203 9 l-70 18 -3 178 c-1 97 1 177 6 177 5 0 30 -7 56 -16 52 -18
94 -16 276 10 52 8 99 14 103 15 5 1 7 -78 5 -174z m177 150 c78 -19 171 -19
225 0 23 8 46 15 51 15 5 0 9 -81 9 -179 l0 -180 -53 -11 c-63 -15 -341 -10
-357 6 -15 15 -24 176 -15 277 l7 87 36 0 c21 -1 64 -7 97 -15z m-343 -398
c73 6 140 13 148 15 13 3 15 -19 14 -155 -1 -124 -4 -161 -15 -168 -38 -26
-284 20 -352 65 -29 19 -34 32 -54 116 -12 52 -22 107 -22 121 l-1 25 74 -15
c62 -13 96 -13 208 -4z m628 -2 c0 -42 -30 -176 -48 -214 -14 -28 -27 -38 -72
-53 -80 -27 -202 -50 -246 -46 -36 3 -39 5 -45 43 -4 22 -10 93 -14 158 l-7
118 159 -6 c126 -5 167 -3 203 8 64 21 70 20 70 -8z m-742 -311 c55 -14 137
-28 183 -32 l84 -7 6 -155 c9 -212 10 -667 3 -712 -8 -48 -31 -50 -95 -10
-105 67 -199 343 -269 790 -21 139 -23 152 -15 152 2 0 49 -12 103 -26z m677
-41 c-9 -97 -61 -359 -95 -488 -35 -131 -112 -339 -138 -375 -19 -25 -96 -60
-107 -48 -10 10 -19 673 -11 799 l8 116 71 6 c40 4 113 17 162 30 128 34 118
38 110 -40z"/>
</g>
</svg>
