<?xml version="1.0" encoding="UTF-8" standalone="no"?>
<svg
   version="1.0"
   width="37.299999pt"
   height="93.728996pt"
   viewBox="0 0 37.299999 93.728996"
   preserveAspectRatio="xMidYMid"
   id="svg1"
   sodipodi:docname="MuscleFrontAbductorR.svg"
   inkscape:version="1.3 (0e150ed6c4, 2023-07-21)"
   xmlns:inkscape="http://www.inkscape.org/namespaces/inkscape"
   xmlns:sodipodi="http://sodipodi.sourceforge.net/DTD/sodipodi-0.dtd"
   xmlns="http://www.w3.org/2000/svg"
   xmlns:svg="http://www.w3.org/2000/svg">
  <defs
     id="defs1" />
  <sodipodi:namedview
     id="namedview1"
     pagecolor="#ffffff"
     bordercolor="#000000"
     borderopacity="0.25"
     inkscape:showpageshadow="2"
     inkscape:pageopacity="0.0"
     inkscape:pagecheckerboard="0"
     inkscape:deskcolor="#d1d1d1"
     inkscape:document-units="pt"
     inkscape:zoom="4.8627838"
     inkscape:cx="-26.528015"
     inkscape:cy="29.098559"
     inkscape:window-width="1920"
     inkscape:window-height="1017"
     inkscape:window-x="-8"
     inkscape:window-y="-8"
     inkscape:window-maximized="1"
     inkscape:current-layer="svg1" />
  <g
     transform="matrix(-0.1,0,0,-0.1,243.3,605.32876)"
     fill="#000000"
     stroke="none"
     id="g1">
    <path
       style="fill:#ffffff;stroke-width:0.102822"
       d="M 1.6475185,114.95864 C 1.3434901,112.40481 5.3486788,79.068329 16.93467,48.292459 20.85161,37.887891 25.083441,22.359781 27.475319,15.577497 l 2.882806,-8.1743305 3.49594,-6.2214712 9.973711,8.8419167 2.390607,2.148783 c 0.452071,0.406342 2.412247,3.122987 2.459642,3.342464 0.120965,0.560166 -0.733542,13.296281 -0.741955,18.15499 -0.01061,6.127027 0.02204,20.996333 -0.632003,26.570086 C 45.782836,73.203966 39.57246,77.333121 37.009063,84.647262 32.728457,96.861117 13.270231,113.37992 8.1007171,115.31409 c -0.7901312,0.29562 -5.7554541,5.50558 -6.0676169,2.88342 z"
       id="path2"
       sodipodi:nodetypes="ssscccssssssss"
       transform="matrix(7.5,0,0,-7.5,2060,6053.2876)" />
    <path
       d="m 2300,6040 c -28,-52 -151,-418 -179,-530 -30,-122 -61,-309 -61,-366 v -28 l 33,31 c 17,17 56,46 84,65 65,43 140,141 204,264 l 48,94 2,192 2,191 -29,25 c -16,13 -43,37 -61,53 -32,28 -33,28 -43,9 z m 62,-69 33,-29 3,-124 c 4,-143 -19,-278 -62,-371 -38,-80 -213,-263 -233,-243 -14,14 52,292 133,565 59,195 72,231 85,231 5,0 23,-13 41,-29 z"
       id="path1" />
  </g>
</svg>
