<?xml version="1.0" encoding="UTF-8" standalone="no"?>
<svg
   version="1.0"
   width="76.900002pt"
   height="101.087pt"
   viewBox="0 0 76.900002 101.087"
   preserveAspectRatio="xMidYMid"
   id="svg1"
   sodipodi:docname="MuscleFrontHandR.svg"
   inkscape:version="1.3 (0e150ed6c4, 2023-07-21)"
   xmlns:inkscape="http://www.inkscape.org/namespaces/inkscape"
   xmlns:sodipodi="http://sodipodi.sourceforge.net/DTD/sodipodi-0.dtd"
   xmlns="http://www.w3.org/2000/svg"
   xmlns:svg="http://www.w3.org/2000/svg">
  <g
     transform="matrix(-0.1,0,0,-0.1,126.9,585.0862)"
     fill="#000000"
     stroke="none"
     id="g1">
    <path
       style="fill:#ffffff;stroke-width:0.290824"
       d="m 32.608809,129.69325 c -0.405129,-0.81027 2.929622,-4.69648 6.37519,-14.10538 4.125735,-11.26627 4.411773,-10.53991 5.239647,-13.1662 l 1.074308,-2.592466 -0.318936,-1.431913 c -0.131453,-0.590177 -0.86588,1.05864 -1.482543,1.649439 -1.778542,1.70395 -0.692041,6.12443 -8.180867,19.17159 -4.93286,8.59412 -6.853475,11.01656 -11.830345,12.11119 -1.513321,0.33284 -2.270424,-1.2785 -2.943761,-1.59293 -6.669873,-3.11473 -1.790328,-6.33522 2.264657,-15.70572 7.942646,-18.354341 10.715129,-20.910612 9.562674,-22.063069 -0.618846,-0.618844 1.054336,1.551633 -0.05306,2.239547 -1.734075,1.0772 -1.041418,3.314894 -7.015569,12.914392 -6.633104,10.65833 -11.220839,17.41971 -16.5498625,13.83866 -0.5489158,-0.36887 -0.2384048,-6.46305 1.0566182,-10.37977 1.9561703,-5.91632 2.3160423,-7.64525 5.8164673,-13.269027 5.460417,-8.772705 7.364338,-11.527487 8.815552,-15.7842 0.784757,-2.301856 2.983301,-4.102678 4.108656,-7.439119 1.041349,-3.087381 0.360305,-1.881298 -0.163995,-2.713904 -1.129563,-1.793787 0.139949,-0.933437 -6.337852,-1.015003 -2.056599,-0.0259 -7.41104,1.312496 -8.610688,1.649069 C 9.4941116,73.114122 1.4876261,74.957739 1.076339,71.377605 0.90710613,69.904482 21.185786,53.278129 31.047256,46.735744 c 2.013317,-1.335693 6.546333,-5.26633 9.445015,-6.975356 6.453274,-3.804768 8.093218,-4.935784 11.13167,-8.170665 2.553087,-2.718139 4.221219,-4.560437 8.788634,-12.862164 C 63.692309,12.76632 67.411483,5.4297476 68.752152,4.7015894 L 71.9916,2.9421471 76.525406,6.4160628 c 1.549914,1.1875833 5.524749,3.6165592 8.243952,5.4246242 8.027827,5.337901 14.726429,10.267736 14.726429,11.716484 0,1.399723 -3.459391,5.36611 -5.698685,10.601075 -3.859611,9.022902 -3.761547,13.683434 -8.219071,31.782421 -3.677348,14.931222 -6.040339,20.734707 -8.210435,26.373398 -3.314507,8.612285 -8.273752,22.698725 -12.144807,25.692645 l -4.183551,3.23561 -3.535149,1.01146 c -1.280054,0.36625 1.423607,-6.58528 3.228605,-13.65896 2.047464,-8.02387 2.599422,-8.43376 0.917984,-8.967428 -1.838188,-0.583416 -1.329602,-1.245049 -3.403421,1.360078 -1.886859,2.37028 -3.65784,6.74628 -7.153906,13.43711 -3.78952,7.25245 -9.5153,15.97795 -11.265536,17.94167 -1.544042,1.73237 -5.621424,0.52218 -6.036557,-0.30809 z"
       id="path2"
       sodipodi:nodetypes="ssscssssssssssssssssssssssscssssssscssssssss"
       transform="matrix(7.5,0,0,-7.5,500,5850.862)" />
    <path
       d="m 983,5786 c -23,-39 -47,-84 -53,-101 -17,-45 -67,-92 -145,-137 -136,-79 -285,-204 -285,-241 0,-18 5,-19 73,-14 39,3 85,9 101,13 26,6 28,5 21,-17 -4,-13 -31,-64 -60,-114 -65,-111 -87,-170 -83,-221 3,-35 6,-39 34,-42 24,-2 32,-9 40,-35 12,-41 52,-49 82,-17 l 20,22 11,-21 c 18,-32 56,-27 85,12 14,18 46,73 71,122 25,49 45,85 45,80 0,-5 -9,-42 -21,-82 -11,-40 -17,-78 -14,-83 11,-18 42,-10 69,17 54,54 151,298 180,455 20,107 48,187 85,248 l 30,48 -22,20 c -12,10 -57,42 -99,70 -42,29 -79,56 -83,62 -3,5 -14,14 -23,19 -14,7 -24,-4 -59,-63 z m 141,-37 c 42,-27 80,-57 85,-66 6,-11 -2,-38 -25,-87 -19,-40 -46,-128 -63,-201 -16,-71 -39,-159 -51,-195 -29,-88 -111,-258 -117,-243 -2,7 5,46 17,89 25,88 18,109 -27,84 -18,-10 -44,-50 -80,-119 -49,-98 -93,-161 -93,-133 0,6 18,60 40,118 42,111 49,148 28,142 -12,-4 -45,-56 -133,-211 -30,-52 -53,-63 -47,-23 2,12 19,57 39,101 53,120 68,163 60,171 -12,12 -36,-17 -104,-129 -43,-69 -69,-104 -71,-94 -6,31 30,127 71,191 55,84 77,134 77,179 0,44 -15,47 -81,17 -46,-20 -99,-26 -99,-11 0,15 166,146 231,182 106,60 142,91 175,154 43,82 77,135 85,135 4,0 41,-23 83,-51 z"
       id="path1" />
  </g>
</svg>
